<svg width="93" height="95" viewBox="0 0 93 95" fill="none" xmlns="http://www.w3.org/2000/svg">
<mask id="path-1-outside-1_131_123" maskUnits="userSpaceOnUse" x="6" y="8" width="79" height="79" fill="black">
<rect fill="white" x="6" y="8" width="79" height="79"/>
<path fill-rule="evenodd" clip-rule="evenodd" d="M20.8982 26.8271C18.9456 28.7798 18.9456 31.9456 20.8982 33.8982L34.4289 47.4289L20.4645 61.3934C18.5118 63.346 18.5118 66.5118 20.4645 68.4645L24.8271 72.8271C26.7798 74.7798 29.9456 74.7798 31.8982 72.8271L45.8627 58.8627L59.1959 72.1959C61.1485 74.1485 64.3143 74.1485 66.2669 72.1959L70.6296 67.8332C72.5822 65.8806 72.5822 62.7148 70.6296 60.7621L57.2964 47.4289L70.1959 34.5295C72.1485 32.5768 72.1485 29.411 70.1959 27.4584L65.8332 23.0957C63.8806 21.1431 60.7148 21.1431 58.7621 23.0957L45.8627 35.9952L32.3319 22.4645C30.3793 20.5118 27.2135 20.5118 25.2609 22.4645L20.8982 26.8271Z"/>
</mask>
<path fill-rule="evenodd" clip-rule="evenodd" d="M20.8982 26.8271C18.9456 28.7798 18.9456 31.9456 20.8982 33.8982L34.4289 47.4289L20.4645 61.3934C18.5118 63.346 18.5118 66.5118 20.4645 68.4645L24.8271 72.8271C26.7798 74.7798 29.9456 74.7798 31.8982 72.8271L45.8627 58.8627L59.1959 72.1959C61.1485 74.1485 64.3143 74.1485 66.2669 72.1959L70.6296 67.8332C72.5822 65.8806 72.5822 62.7148 70.6296 60.7621L57.2964 47.4289L70.1959 34.5295C72.1485 32.5768 72.1485 29.411 70.1959 27.4584L65.8332 23.0957C63.8806 21.1431 60.7148 21.1431 58.7621 23.0957L45.8627 35.9952L32.3319 22.4645C30.3793 20.5118 27.2135 20.5118 25.2609 22.4645L20.8982 26.8271Z" fill="white"/>
<path d="M20.8982 33.8982L29.4981 25.2983L20.8982 33.8982ZM20.8982 26.8271L12.2983 18.2272L12.2983 18.2272L20.8982 26.8271ZM34.4289 47.4289L43.0289 56.0289C47.7785 51.2792 47.7785 43.5786 43.0289 38.829L34.4289 47.4289ZM20.4645 61.3934L11.8645 52.7935L20.4645 61.3934ZM20.4645 68.4645L11.8645 77.0644L11.8645 77.0644L20.4645 68.4645ZM24.8271 72.8271L33.4271 64.2272L33.4271 64.2272L24.8271 72.8271ZM31.8982 72.8271L40.4981 81.4271L40.4981 81.4271L31.8982 72.8271ZM45.8627 58.8627L54.4626 50.2627C49.713 45.5131 42.0123 45.5131 37.2627 50.2627L45.8627 58.8627ZM59.1959 72.1959L67.7958 63.5959L67.7958 63.5959L59.1959 72.1959ZM70.6296 60.7621L62.0297 69.3621L62.0297 69.3621L70.6296 60.7621ZM57.2964 47.4289L48.6965 38.829C43.9469 43.5786 43.9469 51.2792 48.6965 56.0289L57.2964 47.4289ZM70.1959 34.5295L78.7958 43.1294L78.7958 43.1294L70.1959 34.5295ZM70.1959 27.4584L78.7958 18.8585L78.7958 18.8585L70.1959 27.4584ZM65.8332 23.0957L57.2333 31.6957L57.2333 31.6957L65.8332 23.0957ZM58.7621 23.0957L67.3621 31.6957L67.3621 31.6956L58.7621 23.0957ZM45.8627 35.9952L37.2627 44.5951C39.5436 46.876 42.6371 48.1573 45.8627 48.1573C49.0883 48.1573 52.1817 46.876 54.4626 44.5951L45.8627 35.9952ZM32.3319 22.4645L40.9319 13.8645L40.9319 13.8645L32.3319 22.4645ZM25.2609 22.4645L16.6609 13.8645L16.6609 13.8645L25.2609 22.4645ZM29.4981 25.2983C32.2951 28.0953 32.2951 32.6301 29.4981 35.4271L12.2983 18.2272C5.59604 24.9294 5.59604 35.7959 12.2983 42.4981L29.4981 25.2983ZM43.0289 38.829L29.4981 25.2983L12.2983 42.4981L25.829 56.0289L43.0289 38.829ZM29.0644 69.9933L43.0289 56.0289L25.829 38.829L11.8645 52.7935L29.0644 69.9933ZM29.0644 59.8645C31.8614 62.6615 31.8614 67.1963 29.0644 69.9933L11.8645 52.7935C5.16231 59.4957 5.16231 70.3622 11.8645 77.0644L29.0644 59.8645ZM33.4271 64.2272L29.0644 59.8645L11.8645 77.0644L16.2272 81.4271L33.4271 64.2272ZM23.2983 64.2272C26.0953 61.4302 30.6301 61.4302 33.4271 64.2272L16.2272 81.4271C22.9294 88.1293 33.7959 88.1293 40.4981 81.4271L23.2983 64.2272ZM37.2627 50.2627L23.2983 64.2272L40.4981 81.4271L54.4626 67.4626L37.2627 50.2627ZM67.7958 63.5959L54.4626 50.2627L37.2627 67.4626L50.5959 80.7958L67.7958 63.5959ZM57.667 63.5959C60.464 60.799 64.9988 60.799 67.7958 63.5959L50.5959 80.7958C57.2982 87.498 68.1646 87.498 74.8669 80.7958L57.667 63.5959ZM62.0297 59.2333L57.667 63.5959L74.8669 80.7958L79.2295 76.4331L62.0297 59.2333ZM62.0297 69.3621C59.2327 66.5651 59.2327 62.0303 62.0297 59.2333L79.2295 76.4331C85.9318 69.7309 85.9318 58.8644 79.2295 52.1622L62.0297 69.3621ZM48.6965 56.0289L62.0297 69.3621L79.2295 52.1622L65.8963 38.829L48.6965 56.0289ZM61.5959 25.9295L48.6965 38.829L65.8963 56.0289L78.7958 43.1294L61.5959 25.9295ZM61.5959 36.0583C58.799 33.2613 58.799 28.7265 61.5959 25.9295L78.7958 43.1294C85.498 36.4272 85.498 25.5607 78.7958 18.8585L61.5959 36.0583ZM57.2333 31.6957L61.5959 36.0583L78.7958 18.8585L74.4331 14.4958L57.2333 31.6957ZM67.3621 31.6956C64.5651 34.4926 60.0303 34.4926 57.2333 31.6957L74.4331 14.4958C67.7309 7.79357 56.8644 7.79356 50.1622 14.4958L67.3621 31.6956ZM54.4626 44.5951L67.3621 31.6957L50.1622 14.4958L37.2627 27.3953L54.4626 44.5951ZM23.732 31.0644L37.2627 44.5951L54.4626 27.3953L40.9319 13.8645L23.732 31.0644ZM33.8608 31.0644C31.0638 33.8614 26.529 33.8614 23.732 31.0644L40.9319 13.8645C34.2296 7.16231 23.3632 7.16231 16.6609 13.8645L33.8608 31.0644ZM29.4981 35.4271L33.8608 31.0644L16.6609 13.8645L12.2983 18.2272L29.4981 35.4271Z" fill="white" mask="url(#path-1-outside-1_131_123)"/>
<mask id="path-3-outside-2_131_123" maskUnits="userSpaceOnUse" x="12" y="14" width="67" height="67" fill="black">
<rect fill="white" x="12" y="14" width="67" height="67"/>
<path fill-rule="evenodd" clip-rule="evenodd" d="M20.8982 26.8271C18.9456 28.7798 18.9456 31.9456 20.8982 33.8982L34.4289 47.4289L20.4645 61.3934C18.5118 63.346 18.5118 66.5118 20.4645 68.4645L24.8271 72.8271C26.7798 74.7798 29.9456 74.7798 31.8982 72.8271L45.8627 58.8627L59.1959 72.1959C61.1485 74.1485 64.3143 74.1485 66.2669 72.1959L70.6296 67.8332C72.5822 65.8806 72.5822 62.7148 70.6296 60.7621L57.2964 47.4289L70.1959 34.5295C72.1485 32.5768 72.1485 29.411 70.1959 27.4584L65.8332 23.0957C63.8806 21.1431 60.7148 21.1431 58.7621 23.0957L45.8627 35.9952L32.3319 22.4645C30.3793 20.5118 27.2135 20.5118 25.2609 22.4645L20.8982 26.8271Z"/>
</mask>
<path fill-rule="evenodd" clip-rule="evenodd" d="M20.8982 26.8271C18.9456 28.7798 18.9456 31.9456 20.8982 33.8982L34.4289 47.4289L20.4645 61.3934C18.5118 63.346 18.5118 66.5118 20.4645 68.4645L24.8271 72.8271C26.7798 74.7798 29.9456 74.7798 31.8982 72.8271L45.8627 58.8627L59.1959 72.1959C61.1485 74.1485 64.3143 74.1485 66.2669 72.1959L70.6296 67.8332C72.5822 65.8806 72.5822 62.7148 70.6296 60.7621L57.2964 47.4289L70.1959 34.5295C72.1485 32.5768 72.1485 29.411 70.1959 27.4584L65.8332 23.0957C63.8806 21.1431 60.7148 21.1431 58.7621 23.0957L45.8627 35.9952L32.3319 22.4645C30.3793 20.5118 27.2135 20.5118 25.2609 22.4645L20.8982 26.8271Z" fill="white"/>
<path d="M20.8982 33.8982L25.1982 29.5982L20.8982 33.8982ZM20.8982 26.8271L16.5982 22.5272L16.5982 22.5272L20.8982 26.8271ZM34.4289 47.4289L38.7289 51.7289C41.1037 49.3541 41.1037 45.5038 38.7289 43.129L34.4289 47.4289ZM20.4645 61.3934L16.1645 57.0934L20.4645 61.3934ZM20.4645 68.4645L16.1645 72.7644L16.1645 72.7644L20.4645 68.4645ZM24.8271 72.8271L29.1271 68.5272L29.1271 68.5272L24.8271 72.8271ZM31.8982 72.8271L36.1982 77.1271L36.1982 77.1271L31.8982 72.8271ZM45.8627 58.8627L50.1626 54.5627C47.7878 52.1879 43.9375 52.1879 41.5627 54.5627L45.8627 58.8627ZM59.1959 72.1959L63.4958 67.8959L63.4958 67.8959L59.1959 72.1959ZM70.6296 60.7621L66.3296 65.0621L66.3296 65.0621L70.6296 60.7621ZM57.2964 47.4289L52.9964 43.129C50.6216 45.5038 50.6216 49.3541 52.9964 51.7289L57.2964 47.4289ZM70.1959 34.5295L74.4958 38.8294L74.4958 38.8294L70.1959 34.5295ZM70.1959 27.4584L74.4958 23.1584L74.4958 23.1584L70.1959 27.4584ZM65.8332 23.0957L61.5332 27.3957L61.5332 27.3957L65.8332 23.0957ZM58.7621 23.0957L63.0621 27.3957L63.0621 27.3957L58.7621 23.0957ZM45.8627 35.9952L41.5627 40.2952C42.7031 41.4356 44.2499 42.0763 45.8627 42.0763C47.4755 42.0763 49.0222 41.4356 50.1626 40.2952L45.8627 35.9952ZM32.3319 22.4645L36.6319 18.1645L36.6319 18.1645L32.3319 22.4645ZM25.2609 22.4645L20.9609 18.1645L20.9609 18.1645L25.2609 22.4645ZM25.1982 29.5982C25.6203 30.0204 25.6203 30.7049 25.1982 31.1271L16.5982 22.5272C12.2708 26.8546 12.2708 33.8707 16.5982 38.1982L25.1982 29.5982ZM38.7289 43.129L25.1982 29.5982L16.5982 38.1982L30.129 51.7289L38.7289 43.129ZM24.7644 65.6934L38.7289 51.7289L30.129 43.129L16.1645 57.0934L24.7644 65.6934ZM24.7644 64.1645C25.1866 64.5867 25.1866 65.2712 24.7644 65.6934L16.1645 57.0934C11.8371 61.4209 11.8371 68.437 16.1645 72.7644L24.7644 64.1645ZM29.1271 68.5272L24.7644 64.1645L16.1645 72.7644L20.5272 77.1271L29.1271 68.5272ZM27.5982 68.5272C28.0204 68.105 28.7049 68.105 29.1271 68.5272L20.5272 77.1271C24.8546 81.4545 31.8707 81.4545 36.1982 77.1271L27.5982 68.5272ZM41.5627 54.5627L27.5982 68.5272L36.1982 77.1271L50.1626 63.1626L41.5627 54.5627ZM63.4958 67.8959L50.1626 54.5627L41.5627 63.1626L54.8959 76.4958L63.4958 67.8959ZM61.967 67.8959C62.3892 67.4737 63.0737 67.4737 63.4958 67.8959L54.8959 76.4958C59.2233 80.8233 66.2395 80.8233 70.5669 76.4958L61.967 67.8959ZM66.3296 63.5332L61.967 67.8959L70.5669 76.4958L74.9296 72.1332L66.3296 63.5332ZM66.3296 65.0621C65.9075 64.6399 65.9075 63.9554 66.3296 63.5332L74.9296 72.1332C79.257 67.8057 79.257 60.7896 74.9296 56.4622L66.3296 65.0621ZM52.9964 51.7289L66.3296 65.0621L74.9296 56.4622L61.5964 43.129L52.9964 51.7289ZM65.8959 30.2295L52.9964 43.129L61.5964 51.7289L74.4958 38.8294L65.8959 30.2295ZM65.8959 31.7584C65.4737 31.3362 65.4737 30.6517 65.8959 30.2295L74.4958 38.8294C78.8233 34.502 78.8233 27.4858 74.4958 23.1584L65.8959 31.7584ZM61.5332 27.3957L65.8959 31.7584L74.4958 23.1584L70.1332 18.7958L61.5332 27.3957ZM63.0621 27.3957C62.6399 27.8179 61.9554 27.8179 61.5332 27.3957L70.1332 18.7958C65.8057 14.4683 58.7896 14.4683 54.4622 18.7958L63.0621 27.3957ZM50.1626 40.2952L63.0621 27.3957L54.4622 18.7958L41.5627 31.6952L50.1626 40.2952ZM28.032 26.7644L41.5627 40.2952L50.1626 31.6952L36.6319 18.1645L28.032 26.7644ZM29.5608 26.7644C29.1386 27.1866 28.4542 27.1866 28.032 26.7644L36.6319 18.1645C32.3045 13.8371 25.2883 13.8371 20.9609 18.1645L29.5608 26.7644ZM25.1982 31.1271L29.5608 26.7644L20.9609 18.1645L16.5982 22.5272L25.1982 31.1271Z" fill="#424242" mask="url(#path-3-outside-2_131_123)"/>
</svg>
