<svg width="621" height="540" viewBox="0 0 621 540" fill="none" xmlns="http://www.w3.org/2000/svg">
<g clip-path="url(#clip0_140_147)">
<path d="M134.359 -290.948L318.323 -405.92L626.392 -292.85L360.245 323.955L134.359 -290.948Z" fill="#FE8A34"/>
<path d="M-353.952 507.614L-401.06 221.06L-168.089 -188.994L359.758 328.485L-353.952 507.614Z" fill="#0064EF"/>
<path d="M-42.8352 -292.291L360.544 324.09L134.659 -290.813L-42.8352 -292.291Z" fill="#FF96FB"/>
<path d="M-260.774 665.497L360.781 324.255L-205.811 466.371L-260.774 665.497Z" fill="#50DC64"/>
<path d="M360.154 323.863L787.134 -272.101L498.144 -274.508L360.154 323.863Z" fill="#FEDC00"/>
<path d="M333.211 287.962L-103.907 -438.89L-214.623 -37.9561L333.211 287.962Z" fill="#9F65FF"/>
<mask id="path-7-outside-1_140_147" maskUnits="userSpaceOnUse" x="220.994" y="183.504" width="260.867" height="215.555" fill="black">
<rect fill="white" x="220.994" y="183.504" width="260.867" height="215.555"/>
<path fill-rule="evenodd" clip-rule="evenodd" d="M336.907 212.158C339.082 206.182 347.178 205.319 350.562 210.704L366.347 235.817C372.026 236.852 377.493 238.577 382.647 240.909L389.122 232.892C389.105 232.83 389.089 232.769 389.074 232.707C387.653 227.018 391.112 221.255 396.801 219.834C402.489 218.413 408.253 221.873 409.674 227.561C411.095 233.25 407.635 239.013 401.946 240.434C400.953 240.682 399.958 240.781 398.983 240.746L393.762 247.212C406.854 256.292 416.818 269.755 421.354 285.744C422.483 283.003 424.177 280.302 426.413 277.853C434.196 269.327 445.604 267.069 451.892 272.809C456.483 277 457.077 284.294 454.035 291.245C464.063 300.651 466.961 313.883 460.477 320.986C453.914 328.175 440.224 326.363 429.9 316.939C427.488 314.737 425.473 312.315 423.885 309.803C421.646 343.265 395.645 371.289 361.151 374.962C325.614 378.747 293.445 355.368 285.323 321.525C284.367 325.334 282.583 329.245 279.977 332.906C271.869 344.294 258.869 348.948 250.939 343.302C243.104 337.724 243.15 324.178 250.972 312.872C246.535 306.718 245.579 299.462 249.184 294.398C254.122 287.462 265.749 287.267 275.154 293.963C278.841 296.588 281.639 299.882 283.381 303.336C283.79 285.347 291.071 268.737 302.918 256.361L295.54 250.404C295.479 250.42 295.417 250.436 295.355 250.452C289.667 251.873 283.903 248.413 282.482 242.724C281.062 237.036 284.521 231.272 290.21 229.852C295.898 228.431 301.662 231.89 303.082 237.579C303.33 238.572 303.43 239.568 303.394 240.542L312.573 247.954C316.938 244.802 321.693 242.133 326.766 240.032L336.907 212.158Z"/>
</mask>
<path fill-rule="evenodd" clip-rule="evenodd" d="M336.907 212.158C339.082 206.182 347.178 205.319 350.562 210.704L366.347 235.817C372.026 236.852 377.493 238.577 382.647 240.909L389.122 232.892C389.105 232.83 389.089 232.769 389.074 232.707C387.653 227.018 391.112 221.255 396.801 219.834C402.489 218.413 408.253 221.873 409.674 227.561C411.095 233.25 407.635 239.013 401.946 240.434C400.953 240.682 399.958 240.781 398.983 240.746L393.762 247.212C406.854 256.292 416.818 269.755 421.354 285.744C422.483 283.003 424.177 280.302 426.413 277.853C434.196 269.327 445.604 267.069 451.892 272.809C456.483 277 457.077 284.294 454.035 291.245C464.063 300.651 466.961 313.883 460.477 320.986C453.914 328.175 440.224 326.363 429.9 316.939C427.488 314.737 425.473 312.315 423.885 309.803C421.646 343.265 395.645 371.289 361.151 374.962C325.614 378.747 293.445 355.368 285.323 321.525C284.367 325.334 282.583 329.245 279.977 332.906C271.869 344.294 258.869 348.948 250.939 343.302C243.104 337.724 243.15 324.178 250.972 312.872C246.535 306.718 245.579 299.462 249.184 294.398C254.122 287.462 265.749 287.267 275.154 293.963C278.841 296.588 281.639 299.882 283.381 303.336C283.79 285.347 291.071 268.737 302.918 256.361L295.54 250.404C295.479 250.42 295.417 250.436 295.355 250.452C289.667 251.873 283.903 248.413 282.482 242.724C281.062 237.036 284.521 231.272 290.21 229.852C295.898 228.431 301.662 231.89 303.082 237.579C303.33 238.572 303.43 239.568 303.394 240.542L312.573 247.954C316.938 244.802 321.693 242.133 326.766 240.032L336.907 212.158Z" fill="#8F37FF"/>
<path d="M350.562 210.704L359.551 205.054L359.55 205.054L350.562 210.704ZM336.907 212.158L326.931 208.528L326.931 208.528L336.907 212.158ZM366.347 235.817L357.358 241.467C358.943 243.988 361.513 245.727 364.443 246.261L366.347 235.817ZM382.647 240.909L378.27 250.581C382.674 252.575 387.87 251.341 390.907 247.579L382.647 240.909ZM389.122 232.892L397.381 239.561C399.515 236.919 400.256 233.416 399.374 230.137L389.122 232.892ZM389.074 232.707L399.374 230.134L399.374 230.134L389.074 232.707ZM396.801 219.834L399.374 230.134L399.374 230.134L396.801 219.834ZM409.674 227.561L419.974 224.989L419.974 224.989L409.674 227.561ZM401.946 240.434L399.374 230.134L399.374 230.134L401.946 240.434ZM398.983 240.746L399.369 230.137C396.027 230.015 392.824 231.475 390.724 234.076L398.983 240.746ZM393.762 247.212L385.503 240.542C383.649 242.837 382.834 245.8 383.253 248.72C383.673 251.64 385.288 254.254 387.712 255.935L393.762 247.212ZM421.354 285.744L411.141 288.641C412.375 292.993 416.231 296.084 420.747 296.343C425.263 296.601 429.447 293.97 431.17 289.788L421.354 285.744ZM426.413 277.853L418.572 270.695L418.572 270.695L426.413 277.853ZM451.892 272.809L459.05 264.969L459.05 264.969L451.892 272.809ZM454.035 291.245L444.309 286.989C442.507 291.106 443.494 295.913 446.772 298.988L454.035 291.245ZM460.477 320.986L468.318 328.144L468.318 328.144L460.477 320.986ZM429.9 316.939L437.058 309.098L437.058 309.098L429.9 316.939ZM423.885 309.803L432.859 304.129C430.403 300.246 425.728 298.382 421.274 299.513C416.821 300.643 413.599 304.51 413.293 309.094L423.885 309.803ZM285.323 321.525L295.647 319.047C294.506 314.294 290.267 310.934 285.379 310.908C280.491 310.883 276.217 314.198 275.027 318.939L285.323 321.525ZM279.977 332.906L271.328 326.749L271.328 326.749L279.977 332.906ZM250.939 343.302L257.096 334.654L257.096 334.654L250.939 343.302ZM250.972 312.872L259.703 318.911C262.26 315.215 262.212 310.308 259.583 306.662L250.972 312.872ZM249.184 294.398L257.832 300.556L257.832 300.556L249.184 294.398ZM275.154 293.963L281.311 285.314L281.311 285.314L275.154 293.963ZM283.381 303.336L273.902 308.116C276.096 312.466 280.968 314.765 285.72 313.691C290.472 312.618 293.884 308.448 293.995 303.577L283.381 303.336ZM302.918 256.361L310.587 263.703C312.642 261.556 313.703 258.648 313.513 255.683C313.323 252.718 311.899 249.968 309.588 248.102L302.918 256.361ZM295.54 250.404L302.21 242.144C299.568 240.011 296.065 239.27 292.786 240.151L295.54 250.404ZM295.355 250.452L297.928 260.752L297.928 260.752L295.355 250.452ZM282.482 242.724L292.782 240.152L292.782 240.152L282.482 242.724ZM290.21 229.852L287.637 219.552L287.637 219.552L290.21 229.852ZM303.082 237.579L313.382 235.006L313.382 235.006L303.082 237.579ZM303.394 240.542L292.785 240.157C292.664 243.498 294.123 246.701 296.725 248.802L303.394 240.542ZM312.573 247.954L305.904 256.214C309.629 259.222 314.907 259.364 318.788 256.561L312.573 247.954ZM326.766 240.032L330.827 249.842C333.578 248.703 335.725 246.46 336.743 243.662L326.766 240.032ZM359.55 205.054C351.466 192.192 332.125 194.251 326.931 208.528L346.884 215.788C346.038 218.112 342.89 218.447 341.574 216.353L359.55 205.054ZM375.335 230.167L359.551 205.054L341.574 216.353L357.358 241.467L375.335 230.167ZM387.025 231.237C381.092 228.552 374.795 226.565 368.25 225.373L364.443 246.261C369.258 247.139 373.895 248.601 378.27 250.581L387.025 231.237ZM380.862 226.222L374.387 234.24L390.907 247.579L397.381 239.561L380.862 226.222ZM399.374 230.137C399.374 230.137 399.374 230.136 399.374 230.134L378.774 235.279C378.804 235.401 378.836 235.523 378.869 235.647L399.374 230.137ZM399.374 230.134L399.374 230.134L394.228 209.534C382.851 212.376 375.932 223.902 378.774 235.279L399.374 230.134ZM399.374 230.134L399.374 230.134L419.974 224.989C417.132 213.611 405.605 206.692 394.228 209.534L399.374 230.134ZM399.374 230.134L399.374 230.134L404.519 250.734C415.896 247.892 422.815 236.366 419.974 224.989L399.374 230.134ZM399.374 230.134C399.364 230.136 399.36 230.137 399.361 230.137C399.361 230.137 399.364 230.136 399.369 230.137L398.598 251.355C400.558 251.427 402.55 251.226 404.519 250.734L399.374 230.134ZM402.022 253.881L407.243 247.416L390.724 234.076L385.503 240.542L402.022 253.881ZM431.567 282.846C426.339 264.418 414.862 248.926 399.813 238.488L387.712 255.935C398.847 263.659 407.297 275.091 411.141 288.641L431.567 282.846ZM418.572 270.695C415.523 274.035 413.151 277.784 411.538 281.699L431.17 289.788C431.815 288.222 432.831 286.569 434.254 285.011L418.572 270.695ZM459.05 264.969C452.828 259.288 444.702 258.171 437.652 259.567C430.597 260.963 423.835 264.93 418.572 270.695L434.254 285.011C436.774 282.25 439.608 280.824 441.775 280.396C443.946 279.966 444.669 280.59 444.735 280.65L459.05 264.969ZM463.761 295.501C467.855 286.147 468.229 273.348 459.05 264.969L444.735 280.65C444.828 280.735 445.157 281.064 445.269 282.115C445.388 283.231 445.205 284.941 444.309 286.989L463.761 295.501ZM468.318 328.144C474.515 321.354 475.494 312.417 473.822 304.724C472.142 296.995 467.68 289.488 461.298 283.502L446.772 298.988C450.418 302.408 452.418 306.219 453.074 309.234C453.737 312.284 452.923 313.514 452.636 313.828L468.318 328.144ZM422.743 324.78C429.307 330.772 437.269 334.667 445.206 335.717C453.098 336.762 462.042 335.018 468.318 328.144L452.636 313.828C452.348 314.144 451.167 315.088 447.992 314.668C444.862 314.254 440.817 312.53 437.058 309.098L422.743 324.78ZM414.912 315.476C417.016 318.804 419.646 321.953 422.743 324.78L437.058 309.098C435.331 307.522 433.931 305.825 432.859 304.129L414.912 315.476ZM362.275 385.519C401.986 381.29 431.901 349.032 434.478 310.512L413.293 309.094C411.392 337.498 389.303 361.287 360.027 364.405L362.275 385.519ZM275 324.002C284.35 362.964 321.366 389.876 362.275 385.519L360.027 364.405C329.862 367.618 302.54 347.772 295.647 319.047L275 324.002ZM288.625 339.063C291.966 334.371 294.328 329.257 295.62 324.11L275.027 318.939C274.406 321.412 273.201 324.119 271.328 326.749L288.625 339.063ZM244.781 351.951C252.363 357.349 261.475 357.17 268.97 354.487C276.507 351.788 283.47 346.304 288.625 339.063L271.328 326.749C268.376 330.895 264.785 333.432 261.813 334.497C258.798 335.576 257.444 334.902 257.096 334.654L244.781 351.951ZM242.241 306.832C237.263 314.028 234.482 322.307 234.468 330.216C234.453 338.089 237.293 346.619 244.781 351.951L257.096 334.654C256.75 334.407 255.695 333.376 255.701 330.254C255.706 327.169 256.859 323.022 259.703 318.911L242.241 306.832ZM240.535 288.241C233.327 298.366 236.389 310.799 242.36 319.081L259.583 306.662C258.276 304.849 257.737 303.216 257.618 302.1C257.506 301.05 257.759 300.658 257.832 300.556L240.535 288.241ZM281.311 285.314C274.952 280.787 267.507 278.333 260.316 278.453C253.13 278.574 245.422 281.378 240.535 288.241L257.832 300.556C257.884 300.483 258.459 299.721 260.672 299.683C262.881 299.646 265.951 300.443 268.997 302.611L281.311 285.314ZM292.86 298.555C290.299 293.477 286.324 288.883 281.311 285.314L268.997 302.611C271.358 304.292 272.979 306.287 273.902 308.116L292.86 298.555ZM295.249 249.02C281.632 263.246 273.239 282.365 272.767 303.094L293.995 303.577C294.341 288.33 300.511 274.229 310.587 263.703L295.249 249.02ZM288.87 258.663L296.248 264.621L309.588 248.102L302.21 242.144L288.87 258.663ZM297.928 260.752C298.05 260.721 298.172 260.689 298.294 260.657L292.786 240.151C292.785 240.151 292.784 240.151 292.782 240.152L297.928 260.752ZM272.182 245.297C275.024 256.674 286.551 263.593 297.928 260.752L292.782 240.152L292.782 240.152L272.182 245.297ZM287.637 219.552C276.26 222.393 269.341 233.92 272.182 245.297L292.782 240.152L292.782 240.152L287.637 219.552ZM313.382 235.006C310.541 223.629 299.014 216.71 287.637 219.552L292.782 240.152L292.782 240.152L313.382 235.006ZM314.004 240.927C314.075 238.967 313.874 236.976 313.382 235.006L292.782 240.152C292.785 240.162 292.785 240.166 292.785 240.165C292.785 240.164 292.785 240.161 292.785 240.157L314.004 240.927ZM319.243 239.694L310.064 232.282L296.725 248.802L305.904 256.214L319.243 239.694ZM322.705 230.223C316.859 232.643 311.383 235.718 306.358 239.347L318.788 256.561C322.493 253.886 326.526 251.622 330.827 249.842L322.705 230.223ZM326.931 208.528L316.789 236.403L336.743 243.662L346.884 215.788L326.931 208.528Z" fill="white" mask="url(#path-7-outside-1_140_147)"/>
<mask id="path-9-outside-2_140_147" maskUnits="userSpaceOnUse" x="226.495" y="189.005" width="249.864" height="204.552" fill="black">
<rect fill="white" x="226.495" y="189.005" width="249.864" height="204.552"/>
<path fill-rule="evenodd" clip-rule="evenodd" d="M336.907 212.158C339.082 206.182 347.178 205.319 350.562 210.704L366.347 235.817C372.026 236.852 377.493 238.577 382.647 240.909L389.122 232.892C389.105 232.83 389.089 232.769 389.074 232.707C387.653 227.018 391.112 221.255 396.801 219.834C402.489 218.413 408.253 221.873 409.674 227.561C411.095 233.25 407.635 239.013 401.946 240.434C400.953 240.682 399.958 240.781 398.983 240.746L393.762 247.212C406.854 256.292 416.818 269.755 421.354 285.744C422.483 283.003 424.177 280.302 426.413 277.853C434.196 269.327 445.604 267.069 451.892 272.809C456.483 277 457.077 284.294 454.035 291.245C464.063 300.651 466.961 313.883 460.477 320.986C453.914 328.175 440.224 326.363 429.9 316.939C427.488 314.737 425.473 312.315 423.885 309.803C421.646 343.265 395.645 371.289 361.151 374.962C325.614 378.747 293.445 355.368 285.323 321.525C284.367 325.334 282.583 329.245 279.977 332.906C271.869 344.294 258.869 348.948 250.939 343.302C243.104 337.724 243.15 324.178 250.972 312.872C246.535 306.718 245.579 299.462 249.184 294.398C254.122 287.462 265.749 287.267 275.154 293.963C278.841 296.588 281.639 299.882 283.381 303.336C283.79 285.347 291.071 268.737 302.918 256.361L295.54 250.404C295.479 250.42 295.417 250.436 295.355 250.452C289.667 251.873 283.903 248.413 282.482 242.724C281.062 237.036 284.521 231.272 290.21 229.852C295.898 228.431 301.662 231.89 303.082 237.579C303.33 238.572 303.43 239.568 303.394 240.542L312.573 247.954C316.938 244.802 321.693 242.133 326.766 240.032L336.907 212.158Z"/>
</mask>
<path fill-rule="evenodd" clip-rule="evenodd" d="M336.907 212.158C339.082 206.182 347.178 205.319 350.562 210.704L366.347 235.817C372.026 236.852 377.493 238.577 382.647 240.909L389.122 232.892C389.105 232.83 389.089 232.769 389.074 232.707C387.653 227.018 391.112 221.255 396.801 219.834C402.489 218.413 408.253 221.873 409.674 227.561C411.095 233.25 407.635 239.013 401.946 240.434C400.953 240.682 399.958 240.781 398.983 240.746L393.762 247.212C406.854 256.292 416.818 269.755 421.354 285.744C422.483 283.003 424.177 280.302 426.413 277.853C434.196 269.327 445.604 267.069 451.892 272.809C456.483 277 457.077 284.294 454.035 291.245C464.063 300.651 466.961 313.883 460.477 320.986C453.914 328.175 440.224 326.363 429.9 316.939C427.488 314.737 425.473 312.315 423.885 309.803C421.646 343.265 395.645 371.289 361.151 374.962C325.614 378.747 293.445 355.368 285.323 321.525C284.367 325.334 282.583 329.245 279.977 332.906C271.869 344.294 258.869 348.948 250.939 343.302C243.104 337.724 243.15 324.178 250.972 312.872C246.535 306.718 245.579 299.462 249.184 294.398C254.122 287.462 265.749 287.267 275.154 293.963C278.841 296.588 281.639 299.882 283.381 303.336C283.79 285.347 291.071 268.737 302.918 256.361L295.54 250.404C295.479 250.42 295.417 250.436 295.355 250.452C289.667 251.873 283.903 248.413 282.482 242.724C281.062 237.036 284.521 231.272 290.21 229.852C295.898 228.431 301.662 231.89 303.082 237.579C303.33 238.572 303.43 239.568 303.394 240.542L312.573 247.954C316.938 244.802 321.693 242.133 326.766 240.032L336.907 212.158Z" fill="#8F37FF"/>
<path d="M350.562 210.704L355.056 207.879L355.056 207.879L350.562 210.704ZM336.907 212.158L331.919 210.343L331.919 210.343L336.907 212.158ZM366.347 235.817L361.852 238.642C362.645 239.902 363.93 240.772 365.395 241.039L366.347 235.817ZM382.647 240.909L380.459 245.745C382.661 246.742 385.258 246.125 386.777 244.244L382.647 240.909ZM389.122 232.892L393.251 236.227C394.318 234.905 394.689 233.154 394.248 231.514L389.122 232.892ZM389.074 232.707L394.224 231.421L394.224 231.42L389.074 232.707ZM396.801 219.834L398.087 224.984L398.087 224.984L396.801 219.834ZM409.674 227.561L414.824 226.275L414.824 226.275L409.674 227.561ZM401.946 240.434L400.66 235.284L400.66 235.284L401.946 240.434ZM398.983 240.746L399.176 235.441C397.505 235.381 395.904 236.11 394.853 237.411L398.983 240.746ZM393.762 247.212L389.632 243.877C388.706 245.024 388.298 246.506 388.508 247.966C388.717 249.426 389.525 250.733 390.737 251.573L393.762 247.212ZM421.354 285.744L416.247 287.192C416.865 289.368 418.793 290.914 421.051 291.043C423.309 291.172 425.4 289.857 426.262 287.766L421.354 285.744ZM426.413 277.853L422.493 274.274L422.493 274.274L426.413 277.853ZM451.892 272.809L455.471 268.889L455.471 268.889L451.892 272.809ZM454.035 291.245L449.172 289.117C448.271 291.176 448.764 293.579 450.404 295.116L454.035 291.245ZM460.477 320.986L464.397 324.565L464.397 324.565L460.477 320.986ZM429.9 316.939L433.479 313.019L433.479 313.019L429.9 316.939ZM423.885 309.803L428.372 306.966C427.144 305.024 424.807 304.093 422.58 304.658C420.353 305.223 418.742 307.156 418.589 309.449L423.885 309.803ZM285.323 321.525L290.485 320.286C289.915 317.909 287.795 316.229 285.351 316.216C282.907 316.204 280.77 317.861 280.175 320.232L285.323 321.525ZM279.977 332.906L275.653 329.827L275.653 329.827L279.977 332.906ZM250.939 343.302L254.017 338.978L254.017 338.978L250.939 343.302ZM250.972 312.872L255.337 315.891C256.616 314.043 256.592 311.59 255.277 309.767L250.972 312.872ZM249.184 294.398L253.508 297.477L253.508 297.477L249.184 294.398ZM275.154 293.963L278.233 289.638L278.233 289.638L275.154 293.963ZM283.381 303.336L278.641 305.726C279.738 307.901 282.175 309.05 284.551 308.513C286.927 307.977 288.632 305.892 288.688 303.456L283.381 303.336ZM302.918 256.361L306.753 260.032C307.78 258.959 308.31 257.504 308.215 256.022C308.12 254.54 307.409 253.165 306.253 252.231L302.918 256.361ZM295.54 250.404L298.875 246.274C297.554 245.207 295.803 244.837 294.163 245.277L295.54 250.404ZM295.355 250.452L296.641 255.602L296.642 255.602L295.355 250.452ZM282.482 242.724L287.632 241.438L287.632 241.438L282.482 242.724ZM290.21 229.852L288.923 224.702L288.923 224.702L290.21 229.852ZM303.082 237.579L308.232 236.293L308.232 236.293L303.082 237.579ZM303.394 240.542L298.09 240.349C298.029 242.02 298.759 243.622 300.06 244.672L303.394 240.542ZM312.573 247.954L309.239 252.084C311.101 253.588 313.74 253.659 315.681 252.257L312.573 247.954ZM326.766 240.032L328.796 244.937C330.172 244.367 331.245 243.246 331.754 241.847L326.766 240.032ZM355.056 207.879C349.322 198.755 335.603 200.216 331.919 210.343L341.896 213.973C342.56 212.147 345.034 211.883 346.068 213.529L355.056 207.879ZM370.841 232.992L355.056 207.879L346.068 213.529L361.852 238.642L370.841 232.992ZM384.836 236.073C379.293 233.565 373.41 231.709 367.298 230.595L365.395 241.039C370.642 241.996 375.694 243.589 380.459 245.745L384.836 236.073ZM384.992 229.557L378.517 237.575L386.777 244.244L393.251 236.227L384.992 229.557ZM394.248 231.514C394.24 231.484 394.232 231.452 394.224 231.421L383.924 233.993C383.947 234.085 383.97 234.177 383.995 234.269L394.248 231.514ZM394.224 231.42C393.513 228.576 395.243 225.694 398.087 224.984L395.515 214.684C386.982 216.815 381.792 225.46 383.924 233.993L394.224 231.42ZM398.087 224.984C400.932 224.274 403.813 226.003 404.524 228.848L414.824 226.275C412.692 217.742 404.047 212.553 395.515 214.684L398.087 224.984ZM404.524 228.848C405.234 231.692 403.504 234.574 400.66 235.284L403.233 245.584C411.765 243.453 416.955 234.808 414.824 226.275L404.524 228.848ZM400.66 235.284C400.155 235.41 399.657 235.459 399.176 235.441L398.791 246.051C400.258 246.104 401.751 245.954 403.233 245.584L400.66 235.284ZM397.892 250.547L403.113 244.081L394.853 237.411L389.632 243.877L397.892 250.547ZM426.461 284.295C421.579 267.087 410.858 252.609 396.788 242.85L390.737 251.573C402.851 259.975 412.057 272.423 416.247 287.192L426.461 284.295ZM422.493 274.274C419.85 277.169 417.817 280.393 416.446 283.721L426.262 287.766C427.149 285.612 428.504 283.436 430.333 281.432L422.493 274.274ZM455.471 268.889C450.788 264.614 444.513 263.62 438.683 264.774C432.85 265.929 427.07 269.26 422.493 274.274L430.333 281.432C433.539 277.92 437.355 275.859 440.744 275.188C444.135 274.517 446.708 275.264 448.314 276.73L455.471 268.889ZM458.898 293.373C462.466 285.221 462.356 275.174 455.471 268.889L448.314 276.73C450.61 278.826 451.688 283.368 449.172 289.117L458.898 293.373ZM464.397 324.565C469.117 319.394 470.055 312.384 468.635 305.852C467.211 299.301 463.364 292.718 457.667 287.373L450.404 295.116C454.733 299.178 457.349 303.913 458.261 308.106C459.176 312.317 458.321 315.474 456.556 317.407L464.397 324.565ZM426.322 320.859C432.185 326.212 439.167 329.563 445.902 330.455C452.615 331.343 459.619 329.799 464.397 324.565L456.556 317.407C454.772 319.362 451.649 320.507 447.295 319.93C442.964 319.357 437.94 317.09 433.479 313.019L426.322 320.859ZM419.399 312.64C421.245 315.559 423.567 318.345 426.322 320.859L433.479 313.019C431.41 311.129 429.702 309.07 428.372 306.966L419.399 312.64ZM361.713 380.241C398.816 376.289 426.774 346.149 429.182 310.157L418.589 309.449C416.519 340.381 392.474 366.288 360.589 369.684L361.713 380.241ZM280.162 322.763C288.898 359.166 323.49 384.311 361.713 380.241L360.589 369.684C327.738 373.182 297.993 351.57 290.485 320.286L280.162 322.763ZM284.301 335.985C287.275 331.808 289.347 327.295 290.472 322.817L280.175 320.232C279.386 323.373 277.892 326.682 275.653 329.827L284.301 335.985ZM247.86 347.627C253.634 351.737 260.806 351.772 267.18 349.489C273.577 347.199 279.697 342.452 284.301 335.985L275.653 329.827C272.15 334.748 267.716 338.021 263.602 339.494C259.467 340.974 256.174 340.513 254.017 338.978L247.86 347.627ZM246.606 309.852C242.162 316.276 239.788 323.522 239.776 330.226C239.764 336.911 242.157 343.566 247.86 347.627L254.017 338.978C251.886 337.46 250.385 334.554 250.392 330.245C250.4 325.954 251.96 320.774 255.337 315.891L246.606 309.852ZM244.859 291.32C239.453 298.914 241.462 308.758 246.666 315.976L255.277 309.767C251.607 304.677 251.705 300.01 253.508 297.477L244.859 291.32ZM278.233 289.638C272.702 285.701 266.35 283.661 260.405 283.761C254.462 283.861 248.537 286.154 244.859 291.32L253.508 297.477C254.768 295.707 257.127 294.434 260.583 294.376C264.037 294.318 268.201 295.529 272.075 298.287L278.233 289.638ZM288.12 300.945C285.969 296.68 282.583 292.735 278.233 289.638L272.075 298.287C275.099 300.44 277.309 303.085 278.641 305.726L288.12 300.945ZM299.083 252.691C286.351 265.991 278.514 283.856 278.074 303.215L288.688 303.456C289.066 286.839 295.791 271.483 306.753 260.032L299.083 252.691ZM292.205 254.534L299.583 260.491L306.253 252.231L298.875 246.274L292.205 254.534ZM296.642 255.602C296.734 255.579 296.825 255.555 296.917 255.53L294.163 245.277C294.132 245.286 294.1 245.294 294.069 245.302L296.642 255.602ZM277.332 244.011C279.464 252.543 288.109 257.733 296.641 255.602L294.069 245.302C291.224 246.012 288.343 244.282 287.632 241.438L277.332 244.011ZM288.923 224.702C280.391 226.833 275.201 235.478 277.332 244.011L287.632 241.438C286.922 238.594 288.652 235.712 291.496 235.002L288.923 224.702ZM308.232 236.293C306.101 227.76 297.456 222.57 288.923 224.702L291.496 235.002C294.34 234.291 297.222 236.021 297.932 238.865L308.232 236.293ZM308.699 240.735C308.752 239.268 308.602 237.774 308.232 236.293L297.932 238.865C298.059 239.37 298.107 239.868 298.09 240.349L308.699 240.735ZM315.908 243.824L306.729 236.412L300.06 244.672L309.239 252.084L315.908 243.824ZM324.736 235.128C319.276 237.388 314.161 240.26 309.466 243.65L315.681 252.257C319.716 249.344 324.109 246.877 328.796 244.937L324.736 235.128ZM331.919 210.343L321.778 238.218L331.754 241.847L341.896 213.973L331.919 210.343Z" fill="#424242" mask="url(#path-9-outside-2_140_147)"/>
<ellipse cx="266.214" cy="306.522" rx="15.4174" ry="20.9033" transform="rotate(-54.5507 266.214 306.522)" fill="white"/>
<ellipse cx="265.62" cy="322.683" rx="17.6257" ry="25.3107" transform="rotate(-144.551 265.62 322.683)" fill="white"/>
<ellipse cx="15.4174" cy="20.9033" rx="15.4174" ry="20.9033" transform="matrix(-0.738547 -0.674202 -0.674202 0.738547 463.281 283.204)" fill="white"/>
<ellipse cx="17.6257" cy="25.3107" rx="17.6257" ry="25.3107" transform="matrix(0.674202 -0.738547 -0.738547 -0.674202 448.596 334.003)" fill="white"/>
<ellipse cx="266.214" cy="306.522" rx="15.4174" ry="20.9033" transform="rotate(-54.5507 266.214 306.522)" fill="url(#paint0_linear_140_147)" fill-opacity="0.5"/>
<ellipse cx="265.62" cy="322.683" rx="17.6257" ry="25.3107" transform="rotate(-144.551 265.62 322.683)" fill="url(#paint1_linear_140_147)" fill-opacity="0.5"/>
<ellipse cx="15.4174" cy="20.9033" rx="15.4174" ry="20.9033" transform="matrix(-0.738547 -0.674202 -0.674202 0.738547 463.281 283.204)" fill="url(#paint2_linear_140_147)" fill-opacity="0.5"/>
<ellipse cx="17.6257" cy="25.3107" rx="17.6257" ry="25.3107" transform="matrix(0.674202 -0.738547 -0.738547 -0.674202 448.596 334.003)" fill="url(#paint3_linear_140_147)" fill-opacity="0.5"/>
<path fill-rule="evenodd" clip-rule="evenodd" d="M350.564 210.704C347.18 205.319 339.083 206.182 336.909 212.158L326.768 240.032C298.689 251.656 280.384 280.72 283.766 312.472C287.88 351.098 322.527 379.076 361.153 374.962C399.779 370.848 427.756 336.201 423.643 297.575C420.261 265.823 396.246 241.266 366.348 235.817L350.564 210.704Z" fill="url(#paint4_linear_140_147)"/>
<g filter="url(#filter0_i_140_147)">
<g filter="url(#filter1_d_140_147)">
<rect x="367.697" y="273.506" width="11.28" height="37.1576" rx="5.63999" transform="rotate(-6.07923 367.697 273.506)" fill="url(#paint5_linear_140_147)"/>
</g>
<g filter="url(#filter2_d_140_147)">
<rect x="322.171" y="278.354" width="11.28" height="37.1576" rx="5.63999" transform="rotate(-6.07923 322.171 278.354)" fill="url(#paint6_linear_140_147)"/>
</g>
</g>
<g filter="url(#filter3_i_140_147)">
<path fill-rule="evenodd" clip-rule="evenodd" d="M332.531 328.707C333.16 328.668 333.795 328.615 334.435 328.547C346.224 327.291 355.272 321.495 354.644 315.6L354.645 315.6C355.272 321.495 365.338 325.255 377.128 324C378.102 323.896 379.057 323.761 379.99 323.598C380.617 336.169 371.316 347.188 358.643 348.538C345.989 349.886 334.591 341.1 332.531 328.707Z" fill="#EF71EA"/>
</g>
<g filter="url(#filter4_d_140_147)">
<ellipse cx="317.433" cy="319.377" rx="11.9435" ry="6.30351" transform="rotate(21.3367 317.433 319.377)" fill="#FF96FB"/>
</g>
<g filter="url(#filter5_d_140_147)">
<ellipse cx="390.697" cy="311.912" rx="11.9435" ry="6.30351" transform="rotate(-36.0792 390.697 311.912)" fill="#FF96FB"/>
</g>
<path fill-rule="evenodd" clip-rule="evenodd" d="M295.022 233.779L287.101 243.588L322.205 271.934L322.211 271.927C322.293 272.001 322.377 272.073 322.464 272.143C325.172 274.33 329.141 273.907 331.328 271.198C333.515 268.49 333.092 264.521 330.384 262.334C330.297 262.264 330.209 262.197 330.12 262.132L330.126 262.126L295.022 233.779Z" fill="url(#paint7_linear_140_147)"/>
<path fill-rule="evenodd" clip-rule="evenodd" d="M405.748 232.371L395.939 224.451L367.593 259.555L367.6 259.56C367.526 259.642 367.455 259.726 367.385 259.813C365.198 262.521 365.62 266.49 368.329 268.677C371.037 270.864 375.006 270.442 377.193 267.733C377.263 267.647 377.33 267.559 377.395 267.47L377.402 267.475L405.748 232.371Z" fill="url(#paint8_linear_140_147)"/>
<path fill-rule="evenodd" clip-rule="evenodd" d="M295.022 233.779L287.101 243.588L322.205 271.934L322.211 271.927C322.293 272.001 322.377 272.073 322.464 272.143C325.172 274.33 329.141 273.907 331.328 271.198C333.515 268.49 333.092 264.521 330.384 262.334C330.297 262.264 330.209 262.197 330.12 262.132L330.126 262.126L295.022 233.779Z" fill="url(#paint9_linear_140_147)"/>
<path fill-rule="evenodd" clip-rule="evenodd" d="M405.748 232.371L395.939 224.451L367.593 259.555L367.6 259.56C367.526 259.642 367.455 259.726 367.385 259.813C365.198 262.521 365.62 266.49 368.329 268.677C371.037 270.864 375.006 270.442 377.193 267.733C377.263 267.647 377.33 267.559 377.395 267.47L377.402 267.475L405.748 232.371Z" fill="url(#paint10_linear_140_147)"/>
<circle cx="292.784" cy="240.152" r="10.6164" transform="rotate(-14.0242 292.784 240.152)" fill="#8F37FF"/>
<circle cx="399.376" cy="230.134" r="10.6164" transform="rotate(75.9758 399.376 230.134)" fill="#8F37FF"/>
<path fill-rule="evenodd" clip-rule="evenodd" d="M376.39 337.19C372.68 343.491 366.138 348.015 358.309 348.849C350.293 349.703 342.781 346.49 337.827 340.87C340.715 335.92 347.664 331.966 356.11 331.067C364.813 330.14 372.645 332.717 376.39 337.19Z" fill="#FEB3FB"/>
<ellipse cx="323.836" cy="290.855" rx="2.32235" ry="5.30822" transform="rotate(-6.07923 323.836 290.855)" fill="white"/>
<ellipse cx="369.362" cy="286.007" rx="2.32235" ry="5.30822" transform="rotate(-6.07923 369.362 286.007)" fill="white"/>
</g>
<defs>
<filter id="filter0_i_140_147" x="322.736" y="272.876" width="59.5474" height="47.1699" filterUnits="userSpaceOnUse" color-interpolation-filters="sRGB">
<feFlood flood-opacity="0" result="BackgroundImageFix"/>
<feBlend mode="normal" in="SourceGraphic" in2="BackgroundImageFix" result="shape"/>
<feColorMatrix in="SourceAlpha" type="matrix" values="0 0 0 0 0 0 0 0 0 0 0 0 0 0 0 0 0 0 127 0" result="hardAlpha"/>
<feOffset dy="5.30822"/>
<feGaussianBlur stdDeviation="2.65411"/>
<feComposite in2="hardAlpha" operator="arithmetic" k2="-1" k3="1"/>
<feColorMatrix type="matrix" values="0 0 0 0 0 0 0 0 0 0 0 0 0 0 0 0 0 0 0.25 0"/>
<feBlend mode="normal" in2="shape" result="effect1_innerShadow_140_147"/>
</filter>
<filter id="filter1_d_140_147" x="365.608" y="272.876" width="19.3295" height="42.3213" filterUnits="userSpaceOnUse" color-interpolation-filters="sRGB">
<feFlood flood-opacity="0" result="BackgroundImageFix"/>
<feColorMatrix in="SourceAlpha" type="matrix" values="0 0 0 0 0 0 0 0 0 0 0 0 0 0 0 0 0 0 127 0" result="hardAlpha"/>
<feOffset dy="2.65411"/>
<feGaussianBlur stdDeviation="1.32706"/>
<feComposite in2="hardAlpha" operator="out"/>
<feColorMatrix type="matrix" values="0 0 0 0 0 0 0 0 0 0 0 0 0 0 0 0 0 0 0.25 0"/>
<feBlend mode="normal" in2="BackgroundImageFix" result="effect1_dropShadow_140_147"/>
<feBlend mode="normal" in="SourceGraphic" in2="effect1_dropShadow_140_147" result="shape"/>
</filter>
<filter id="filter2_d_140_147" x="320.082" y="277.725" width="19.3295" height="42.3213" filterUnits="userSpaceOnUse" color-interpolation-filters="sRGB">
<feFlood flood-opacity="0" result="BackgroundImageFix"/>
<feColorMatrix in="SourceAlpha" type="matrix" values="0 0 0 0 0 0 0 0 0 0 0 0 0 0 0 0 0 0 127 0" result="hardAlpha"/>
<feOffset dy="2.65411"/>
<feGaussianBlur stdDeviation="1.32706"/>
<feComposite in2="hardAlpha" operator="out"/>
<feColorMatrix type="matrix" values="0 0 0 0 0 0 0 0 0 0 0 0 0 0 0 0 0 0 0.25 0"/>
<feBlend mode="normal" in2="BackgroundImageFix" result="effect1_dropShadow_140_147"/>
<feBlend mode="normal" in="SourceGraphic" in2="effect1_dropShadow_140_147" result="shape"/>
</filter>
<filter id="filter3_i_140_147" x="332.531" y="315.6" width="47.4885" height="35.7287" filterUnits="userSpaceOnUse" color-interpolation-filters="sRGB">
<feFlood flood-opacity="0" result="BackgroundImageFix"/>
<feBlend mode="normal" in="SourceGraphic" in2="BackgroundImageFix" result="shape"/>
<feColorMatrix in="SourceAlpha" type="matrix" values="0 0 0 0 0 0 0 0 0 0 0 0 0 0 0 0 0 0 127 0" result="hardAlpha"/>
<feOffset dy="2.65411"/>
<feGaussianBlur stdDeviation="1.32706"/>
<feComposite in2="hardAlpha" operator="arithmetic" k2="-1" k3="1"/>
<feColorMatrix type="matrix" values="0 0 0 0 0.8375 0 0 0 0 0.0907292 0 0 0 0 0.493985 0 0 0 0.25 0"/>
<feBlend mode="normal" in2="shape" result="effect1_innerShadow_140_147"/>
</filter>
<filter id="filter4_d_140_147" x="303.418" y="312.072" width="28.0304" height="19.9185" filterUnits="userSpaceOnUse" color-interpolation-filters="sRGB">
<feFlood flood-opacity="0" result="BackgroundImageFix"/>
<feColorMatrix in="SourceAlpha" type="matrix" values="0 0 0 0 0 0 0 0 0 0 0 0 0 0 0 0 0 0 127 0" result="hardAlpha"/>
<feOffset dy="2.65411"/>
<feGaussianBlur stdDeviation="1.32706"/>
<feComposite in2="hardAlpha" operator="out"/>
<feColorMatrix type="matrix" values="0 0 0 0 0.561333 0 0 0 0 0.216667 0 0 0 0 1 0 0 0 0.5 0"/>
<feBlend mode="normal" in2="BackgroundImageFix" result="effect1_dropShadow_140_147"/>
<feBlend mode="normal" in="SourceGraphic" in2="effect1_dropShadow_140_147" result="shape"/>
</filter>
<filter id="filter5_d_140_147" x="377.698" y="303.227" width="25.9977" height="22.679" filterUnits="userSpaceOnUse" color-interpolation-filters="sRGB">
<feFlood flood-opacity="0" result="BackgroundImageFix"/>
<feColorMatrix in="SourceAlpha" type="matrix" values="0 0 0 0 0 0 0 0 0 0 0 0 0 0 0 0 0 0 127 0" result="hardAlpha"/>
<feOffset dy="2.65411"/>
<feGaussianBlur stdDeviation="1.32706"/>
<feComposite in2="hardAlpha" operator="out"/>
<feColorMatrix type="matrix" values="0 0 0 0 0.561333 0 0 0 0 0.216667 0 0 0 0 1 0 0 0 0.5 0"/>
<feBlend mode="normal" in2="BackgroundImageFix" result="effect1_dropShadow_140_147"/>
<feBlend mode="normal" in="SourceGraphic" in2="effect1_dropShadow_140_147" result="shape"/>
</filter>
<linearGradient id="paint0_linear_140_147" x1="266.214" y1="285.618" x2="266.214" y2="327.425" gradientUnits="userSpaceOnUse">
<stop stop-color="#8F37FF"/>
<stop offset="1" stop-color="white"/>
</linearGradient>
<linearGradient id="paint1_linear_140_147" x1="265.62" y1="297.373" x2="265.62" y2="347.994" gradientUnits="userSpaceOnUse">
<stop stop-color="#8F37FF"/>
<stop offset="1" stop-color="white"/>
</linearGradient>
<linearGradient id="paint2_linear_140_147" x1="15.4174" y1="0" x2="15.4174" y2="41.8066" gradientUnits="userSpaceOnUse">
<stop stop-color="#8F37FF"/>
<stop offset="1" stop-color="white"/>
</linearGradient>
<linearGradient id="paint3_linear_140_147" x1="17.6257" y1="0" x2="17.6257" y2="50.6214" gradientUnits="userSpaceOnUse">
<stop stop-color="#8F37FF"/>
<stop offset="1" stop-color="white"/>
</linearGradient>
<linearGradient id="paint4_linear_140_147" x1="343.283" y1="207.171" x2="362.839" y2="390.797" gradientUnits="userSpaceOnUse">
<stop offset="0.322917" stop-color="#F7FFE1"/>
<stop offset="1" stop-color="#8BFFA5"/>
</linearGradient>
<linearGradient id="paint5_linear_140_147" x1="373.337" y1="273.506" x2="373.337" y2="310.663" gradientUnits="userSpaceOnUse">
<stop offset="0.489583" stop-color="#A97575"/>
<stop offset="1" stop-color="#FEB3FB"/>
</linearGradient>
<linearGradient id="paint6_linear_140_147" x1="327.811" y1="278.354" x2="327.811" y2="315.512" gradientUnits="userSpaceOnUse">
<stop offset="0.489583" stop-color="#A97575"/>
<stop offset="1" stop-color="#FEB3FB"/>
</linearGradient>
<linearGradient id="paint7_linear_140_147" x1="291.061" y1="238.684" x2="335.128" y2="274.267" gradientUnits="userSpaceOnUse">
<stop offset="0.322917" stop-color="#F7FFE1"/>
<stop offset="1" stop-color="#8BFFA5"/>
</linearGradient>
<linearGradient id="paint8_linear_140_147" x1="400.844" y1="228.411" x2="365.26" y2="272.477" gradientUnits="userSpaceOnUse">
<stop offset="0.322917" stop-color="#F7FFE1"/>
<stop offset="1" stop-color="#8BFFA5"/>
</linearGradient>
<linearGradient id="paint9_linear_140_147" x1="291.061" y1="238.684" x2="331.328" y2="271.198" gradientUnits="userSpaceOnUse">
<stop offset="0.161458" stop-color="#8F37FF"/>
<stop offset="0.963542" stop-color="#CA96FF"/>
</linearGradient>
<linearGradient id="paint10_linear_140_147" x1="400.844" y1="228.411" x2="368.329" y2="268.677" gradientUnits="userSpaceOnUse">
<stop offset="0.161458" stop-color="#8F37FF"/>
<stop offset="0.963542" stop-color="#CA96FF"/>
</linearGradient>
<clipPath id="clip0_140_147">
<rect width="621" height="540" fill="white"/>
</clipPath>
</defs>
</svg>
