<svg width="93" height="95" viewBox="0 0 93 95" fill="none" xmlns="http://www.w3.org/2000/svg">
<mask id="path-1-outside-1_131_75" maskUnits="userSpaceOnUse" x="1.87579" y="0.873852" width="86.9028" height="93.8342" fill="black">
<rect fill="white" x="1.87579" y="0.873852" width="86.9028" height="93.8342"/>
<path fill-rule="evenodd" clip-rule="evenodd" d="M49.3824 14.6985C46.2344 13.3975 42.8767 15.5124 42.3538 18.8782C42.2395 19.6137 42.139 20.3538 42.0526 21.0981C27.1104 22.8419 15.4459 35.4708 15.2954 50.9075C15.1321 67.6467 28.5696 81.3488 45.3088 81.5121C62.048 81.6753 75.7501 68.2378 75.9134 51.4986C75.9314 49.6464 75.783 47.8314 75.482 46.0678C75.0487 43.5293 72.159 42.4917 69.9607 43.8331L61.9523 48.7198C61.0501 49.2703 60.5671 50.292 60.5568 51.3489C60.4763 59.6069 53.7166 66.236 45.4586 66.1555C37.2006 66.075 30.5714 59.3153 30.6519 51.0573C30.721 43.979 35.697 38.0975 42.3177 36.6121C42.3751 36.9917 42.4362 37.37 42.5009 37.7471C43.0727 41.0791 46.4204 43.1433 49.5414 41.8439C54.8453 39.6358 59.3978 35.9822 62.7055 31.3735C63.9987 29.5718 64.0058 27.1555 62.7232 25.3461C59.3935 20.6486 54.7755 16.9274 49.3824 14.6985Z"/>
</mask>
<path fill-rule="evenodd" clip-rule="evenodd" d="M49.3824 14.6985C46.2344 13.3975 42.8767 15.5124 42.3538 18.8782C42.2395 19.6137 42.139 20.3538 42.0526 21.0981C27.1104 22.8419 15.4459 35.4708 15.2954 50.9075C15.1321 67.6467 28.5696 81.3488 45.3088 81.5121C62.048 81.6753 75.7501 68.2378 75.9134 51.4986C75.9314 49.6464 75.783 47.8314 75.482 46.0678C75.0487 43.5293 72.159 42.4917 69.9607 43.8331L61.9523 48.7198C61.0501 49.2703 60.5671 50.292 60.5568 51.3489C60.4763 59.6069 53.7166 66.236 45.4586 66.1555C37.2006 66.075 30.5714 59.3153 30.6519 51.0573C30.721 43.979 35.697 38.0975 42.3177 36.6121C42.3751 36.9917 42.4362 37.37 42.5009 37.7471C43.0727 41.0791 46.4204 43.1433 49.5414 41.8439C54.8453 39.6358 59.3978 35.9822 62.7055 31.3735C63.9987 29.5718 64.0058 27.1555 62.7232 25.3461C59.3935 20.6486 54.7755 16.9274 49.3824 14.6985Z" fill="white"/>
<path d="M42.3538 18.8782L30.3358 17.011L30.3358 17.011L42.3538 18.8782ZM49.3824 14.6985L44.7371 25.9385L49.3824 14.6985ZM42.0526 21.0981L43.4624 33.1783C49.0654 32.5244 53.4833 28.1036 54.1337 22.5002L42.0526 21.0981ZM75.482 46.0678L63.4932 48.1141L63.4932 48.1141L75.482 46.0678ZM69.9607 43.8331L76.2957 54.2151L76.2957 54.2151L69.9607 43.8331ZM61.9523 48.7198L55.6173 38.3378L55.6173 38.3378L61.9523 48.7198ZM42.3177 36.6121L54.3431 34.7935C53.8385 31.4568 51.9702 28.4798 49.185 26.5743C46.3998 24.6688 42.9481 24.0062 39.6553 24.745L42.3177 36.6121ZM42.5009 37.7471L30.514 39.8042L30.514 39.8042L42.5009 37.7471ZM49.5414 41.8439L54.2159 53.0719L54.2159 53.0719L49.5414 41.8439ZM62.7055 31.3735L52.8248 24.282L52.8248 24.282L62.7055 31.3735ZM62.7232 25.3461L72.6455 18.313L72.6455 18.313L62.7232 25.3461ZM54.3717 20.7455C53.8179 24.31 49.6453 27.967 44.7371 25.9385L54.0277 3.45844C42.8236 -1.17198 31.9355 6.71481 30.3358 17.011L54.3717 20.7455ZM54.1337 22.5002C54.202 21.9115 54.2814 21.3265 54.3717 20.7455L30.3358 17.011C30.1976 17.9009 30.076 18.796 29.9716 19.696L54.1337 22.5002ZM40.6428 9.01798C19.6926 11.4629 3.34483 29.1488 3.13381 50.7889L27.4569 51.0261C27.547 41.7927 34.5282 34.2209 43.4624 33.1783L40.6428 9.01798ZM3.13381 50.7889C2.90507 74.2447 21.7344 93.4449 45.1902 93.6736L45.4274 69.3505C35.4048 69.2528 27.3592 61.0486 27.4569 51.0261L3.13381 50.7889ZM45.1902 93.6736C68.6461 93.9024 87.8462 75.0731 88.0749 51.6172L63.7518 51.38C63.6541 61.4026 55.45 69.4482 45.4274 69.3505L45.1902 93.6736ZM88.0749 51.6172C88.1001 49.0363 87.8932 46.4968 87.4707 44.0214L63.4932 48.1141C63.6728 49.166 63.7628 50.2565 63.7518 51.38L88.0749 51.6172ZM87.4707 44.0215C85.3247 31.449 71.7574 28.4893 63.6258 33.4511L76.2957 54.2151C74.1492 55.5249 71.4472 55.7924 68.9736 54.8301C66.3462 53.8079 64.0488 51.3694 63.4932 48.1141L87.4707 44.0215ZM63.6258 33.4511L55.6173 38.3378L68.2873 59.1018L76.2957 54.2151L63.6258 33.4511ZM55.6173 38.3378C50.505 41.4573 48.4388 46.7669 48.3953 51.2303L72.7184 51.4675C72.6955 53.8171 71.5951 57.0834 68.2873 59.1018L55.6173 38.3378ZM48.3953 51.2303C48.3802 52.7716 47.1185 54.009 45.5772 53.9939L45.34 78.3171C60.3146 78.4631 72.5723 66.4421 72.7184 51.4675L48.3953 51.2303ZM45.5772 53.9939C44.0358 53.9789 42.7985 52.7172 42.8135 51.1758L18.4904 50.9387C18.3443 65.9133 30.3653 78.171 45.34 78.3171L45.5772 53.9939ZM42.8135 51.1758C42.8262 49.8704 43.7451 48.7563 44.9801 48.4793L39.6553 24.745C27.649 27.4386 18.6157 38.0876 18.4904 50.9387L42.8135 51.1758ZM54.4878 35.6901C54.4367 35.3922 54.3884 35.0934 54.3431 34.7935L30.2923 38.4307C30.3617 38.89 30.4357 39.3478 30.514 39.8042L54.4878 35.6901ZM44.867 30.616C49.7178 28.5965 53.8818 32.1587 54.4878 35.69L30.514 39.8042C32.2636 49.9994 43.1231 57.69 54.2159 53.0719L44.867 30.616ZM52.8248 24.282C50.8182 27.0778 48.0591 29.287 44.867 30.616L54.2159 53.0719C61.6314 49.9847 67.9773 44.8866 72.5861 38.4651L52.8248 24.282ZM52.801 32.3793C51.0818 29.954 51.0914 26.6972 52.8248 24.282L72.5861 38.4651C76.9059 32.4464 76.9297 24.3571 72.6455 18.313L52.801 32.3793ZM44.7371 25.9385C47.9822 27.2797 50.7809 29.5294 52.801 32.3793L72.6455 18.313C68.0062 11.7678 61.5689 6.5751 54.0277 3.45844L44.7371 25.9385Z" fill="white" mask="url(#path-1-outside-1_131_75)"/>
<mask id="path-3-outside-2_131_75" maskUnits="userSpaceOnUse" x="7.93401" y="6.93207" width="74.7863" height="81.7177" fill="black">
<rect fill="white" x="7.93401" y="6.93207" width="74.7863" height="81.7177"/>
<path fill-rule="evenodd" clip-rule="evenodd" d="M49.3824 14.6985C46.2344 13.3975 42.8767 15.5124 42.3538 18.8782C42.2395 19.6137 42.139 20.3538 42.0526 21.0981C27.1104 22.8419 15.4459 35.4708 15.2954 50.9075C15.1321 67.6467 28.5696 81.3488 45.3088 81.5121C62.048 81.6753 75.7501 68.2378 75.9134 51.4986C75.9314 49.6464 75.783 47.8314 75.482 46.0678C75.0487 43.5293 72.159 42.4917 69.9607 43.8331L61.9523 48.7198C61.0501 49.2703 60.5671 50.292 60.5568 51.3489C60.4763 59.6069 53.7166 66.236 45.4586 66.1555C37.2006 66.075 30.5714 59.3153 30.6519 51.0573C30.721 43.979 35.697 38.0975 42.3177 36.6121C42.3751 36.9917 42.4362 37.37 42.5009 37.7471C43.0727 41.0791 46.4204 43.1433 49.5414 41.8439C54.8453 39.6358 59.3978 35.9822 62.7055 31.3735C63.9987 29.5718 64.0058 27.1555 62.7232 25.3461C59.3935 20.6486 54.7755 16.9274 49.3824 14.6985Z"/>
</mask>
<path fill-rule="evenodd" clip-rule="evenodd" d="M49.3824 14.6985C46.2344 13.3975 42.8767 15.5124 42.3538 18.8782C42.2395 19.6137 42.139 20.3538 42.0526 21.0981C27.1104 22.8419 15.4459 35.4708 15.2954 50.9075C15.1321 67.6467 28.5696 81.3488 45.3088 81.5121C62.048 81.6753 75.7501 68.2378 75.9134 51.4986C75.9314 49.6464 75.783 47.8314 75.482 46.0678C75.0487 43.5293 72.159 42.4917 69.9607 43.8331L61.9523 48.7198C61.0501 49.2703 60.5671 50.292 60.5568 51.3489C60.4763 59.6069 53.7166 66.236 45.4586 66.1555C37.2006 66.075 30.5714 59.3153 30.6519 51.0573C30.721 43.979 35.697 38.0975 42.3177 36.6121C42.3751 36.9917 42.4362 37.37 42.5009 37.7471C43.0727 41.0791 46.4204 43.1433 49.5414 41.8439C54.8453 39.6358 59.3978 35.9822 62.7055 31.3735C63.9987 29.5718 64.0058 27.1555 62.7232 25.3461C59.3935 20.6486 54.7755 16.9274 49.3824 14.6985Z" fill="white"/>
<path d="M42.3538 18.8782L36.3448 17.9446L36.3448 17.9446L42.3538 18.8782ZM49.3824 14.6985L47.0597 20.3185L49.3824 14.6985ZM42.0526 21.0981L42.7575 27.1382C45.559 26.8113 47.768 24.6009 48.0931 21.7992L42.0526 21.0981ZM75.482 46.0678L69.4876 47.091L69.4876 47.091L75.482 46.0678ZM69.9607 43.8331L73.1282 49.0241L73.1282 49.0241L69.9607 43.8331ZM61.9523 48.7198L58.7848 43.5288L58.7848 43.5288L61.9523 48.7198ZM42.3177 36.6121L48.3304 35.7028C48.0781 34.0345 47.1439 32.546 45.7513 31.5932C44.3587 30.6405 42.6329 30.3092 40.9865 30.6786L42.3177 36.6121ZM42.5009 37.7471L36.5074 38.7756L36.5074 38.7757L42.5009 37.7471ZM49.5414 41.8439L51.8787 47.4579L51.8787 47.4579L49.5414 41.8439ZM62.7055 31.3735L57.7652 27.8278L57.7652 27.8278L62.7055 31.3735ZM62.7232 25.3461L67.6844 21.8296L67.6844 21.8296L62.7232 25.3461ZM48.3627 19.8118C48.3464 19.9166 48.2613 20.102 48.0355 20.2389C47.9208 20.3083 47.762 20.3694 47.567 20.3867C47.3611 20.405 47.1799 20.3682 47.0597 20.3185L51.705 9.07847C44.529 6.11276 37.4061 11.1136 36.3448 17.9446L48.3627 19.8118ZM48.0931 21.7992C48.1705 21.1326 48.2605 20.4701 48.3627 19.8118L36.3448 17.9446C36.2185 18.7573 36.1075 19.5749 36.0121 20.3971L48.0931 21.7992ZM41.3477 15.0581C23.4015 17.1524 9.39537 32.3098 9.21458 50.8482L21.3761 50.9668C21.4964 38.6317 30.8193 28.5314 42.7575 27.1382L41.3477 15.0581ZM9.21458 50.8482C9.0186 70.9457 25.152 87.3969 45.2495 87.5928L45.3681 75.4313C31.9872 75.3008 21.2457 64.3477 21.3761 50.9668L9.21458 50.8482ZM45.2495 87.5928C65.347 87.7888 81.7982 71.6554 81.9942 51.5579L69.8326 51.4393C69.7021 64.8202 58.749 75.5618 45.3681 75.4313L45.2495 87.5928ZM81.9942 51.5579C82.0158 49.3414 81.8381 47.1641 81.4763 45.0446L69.4876 47.091C69.7279 48.4987 69.8471 49.9515 69.8326 51.4393L81.9942 51.5579ZM81.4763 45.0446C80.1867 37.4891 71.9582 35.4905 66.7932 38.6421L73.1282 49.0241C72.6046 49.3437 71.8895 49.4394 71.1784 49.1628C70.3904 48.8562 69.6571 48.084 69.4876 47.091L81.4763 45.0446ZM66.7932 38.6421L58.7848 43.5288L65.1198 53.9108L73.1282 49.0241L66.7932 38.6421ZM58.7848 43.5288C55.7775 45.3638 54.503 48.5294 54.476 51.2896L66.6376 51.4082C66.6313 52.0546 66.3226 53.1768 65.1198 53.9108L58.7848 43.5288ZM54.476 51.2896C54.4283 56.1893 50.4175 60.1225 45.5179 60.0747L45.3993 72.2363C57.0156 72.3496 66.5243 63.0245 66.6376 51.4082L54.476 51.2896ZM45.5179 60.0747C40.6182 60.0269 36.6849 56.0162 36.7327 51.1165L24.5711 50.998C24.4579 62.6143 33.7829 72.123 45.3993 72.2363L45.5179 60.0747ZM36.7327 51.1165C36.7736 46.9247 39.7211 43.4269 43.6489 42.5457L40.9865 30.6786C31.673 32.768 24.6683 41.0333 24.5711 50.998L36.7327 51.1165ZM48.4943 36.7186C48.4364 36.3811 48.3818 36.0425 48.3304 35.7028L36.305 37.5214C36.3684 37.9408 36.4359 38.3589 36.5074 38.7756L48.4943 36.7186ZM47.2042 36.2299C47.324 36.1801 47.5028 36.1433 47.7052 36.16C47.8972 36.1759 48.0538 36.2346 48.1672 36.3019C48.3903 36.4342 48.4765 36.6149 48.4943 36.7186L36.5074 38.7757C37.6681 45.5393 44.7718 50.4166 51.8787 47.4579L47.2042 36.2299ZM57.7652 27.8278C55.108 31.53 51.4522 34.4614 47.2042 36.2299L51.8787 47.4579C58.2383 44.8102 63.6875 40.4344 67.6458 34.9193L57.7652 27.8278ZM57.7621 28.8627C57.5438 28.5547 57.545 28.1345 57.7652 27.8278L67.6458 34.9193C70.4523 31.0091 70.4678 25.7563 67.6844 21.8296L57.7621 28.8627ZM47.0597 20.3185C51.3788 22.1035 55.0872 25.089 57.7621 28.8627L67.6844 21.8296C63.6998 16.2082 58.1722 11.7512 51.705 9.07847L47.0597 20.3185Z" fill="#424242" mask="url(#path-3-outside-2_131_75)"/>
</svg>
