<svg width="734" height="241" viewBox="0 0 734 241" fill="none" xmlns="http://www.w3.org/2000/svg">
<path d="M75.44 135.44C70.8533 135.44 67.44 133.947 65.2 130.96C62.96 127.973 62.2667 123.76 63.12 118.32L74.64 45.2H51.92C47.8667 45.2 44.72 44.3467 42.48 42.64C40.24 40.8267 39.12 38.4267 39.12 35.44C39.12 30.96 40.4 27.4933 42.96 25.04C45.52 22.48 49.04 21.2 53.52 21.2H130.8C134.853 21.2 137.947 22.0533 140.08 23.76C142.32 25.4667 143.44 27.8133 143.44 30.8C143.44 35.28 142.16 38.8 139.6 41.36C137.147 43.92 133.68 45.2 129.2 45.2H104.08L92.08 120.88C91.3333 125.68 89.5733 129.307 86.8 131.76C84.1333 134.213 80.3467 135.44 75.44 135.44ZM151.689 135.44C146.995 135.44 143.582 133.947 141.449 130.96C139.315 127.973 138.675 123.707 139.529 118.16L152.649 35.76C153.395 30.8533 155.209 27.2267 158.089 24.88C160.969 22.4267 164.862 21.2 169.769 21.2H203.369C216.275 21.2 226.142 24.08 232.969 29.84C239.902 35.4933 243.369 43.3333 243.369 53.36C243.369 62.2133 241.449 69.4667 237.609 75.12C233.769 80.7733 228.489 84.9333 221.769 87.6C215.049 90.2667 207.369 91.6 198.729 91.6V88.72H204.649C210.195 88.72 214.675 90.2133 218.089 93.2C221.502 96.1867 224.222 100.293 226.249 105.52L230.569 116.88C232.169 120.72 232.755 124.027 232.329 126.8C231.902 129.573 230.515 131.707 228.169 133.2C225.822 134.693 222.569 135.44 218.409 135.44C214.462 135.44 211.262 134.427 208.809 132.4C206.462 130.373 204.489 127.173 202.889 122.8L194.249 100.08C193.182 97.0933 191.742 95.0133 189.929 93.84C188.222 92.56 185.822 91.92 182.729 91.92H173.129L168.649 120.88C167.902 125.787 166.089 129.467 163.209 131.92C160.329 134.267 156.489 135.44 151.689 135.44ZM176.329 71.12H197.609C203.369 71.12 207.742 69.8933 210.729 67.44C213.822 64.88 215.369 61.0933 215.369 56.08C215.369 51.92 213.982 48.8267 211.209 46.8C208.542 44.7733 204.275 43.76 198.409 43.76H180.649L176.329 71.12ZM264.978 135.44C259.964 135.44 256.391 133.947 254.258 130.96C252.231 127.973 251.644 123.707 252.498 118.16L265.778 34.32C266.524 29.4133 268.284 25.7867 271.058 23.44C273.831 20.9867 277.671 19.76 282.578 19.76C287.484 19.76 290.951 21.2533 292.977 24.24C295.111 27.2267 295.698 31.4933 294.738 37.04L281.458 120.72C280.711 125.733 279.004 129.467 276.338 131.92C273.671 134.267 269.884 135.44 264.978 135.44ZM349.701 135.44C345.541 135.44 342.181 134.427 339.621 132.4C337.061 130.373 335.195 127.28 334.021 123.12L309.061 39.28C308.101 35.6533 307.995 32.5067 308.741 29.84C309.595 27.1733 311.141 25.0933 313.381 23.6C315.728 22 318.501 21.2 321.701 21.2C325.328 21.2 328.368 22.1067 330.821 23.92C333.275 25.7333 335.141 29.0933 336.421 34L356.101 106.64H347.301L391.621 31.44C393.755 27.8133 395.995 25.2 398.341 23.6C400.795 22 403.888 21.2 407.621 21.2C411.568 21.2 414.608 22.16 416.741 24.08C418.981 25.8933 420.261 28.24 420.581 31.12C420.901 34 420.101 36.9867 418.181 40.08L365.861 125.52C363.728 129.04 361.435 131.6 358.981 133.2C356.528 134.693 353.435 135.44 349.701 135.44ZM433.571 135.44C428.558 135.44 424.985 133.947 422.851 130.96C420.825 127.973 420.238 123.707 421.091 118.16L434.371 34.32C435.118 29.4133 436.878 25.7867 439.651 23.44C442.425 20.9867 446.265 19.76 451.171 19.76C456.078 19.76 459.545 21.2533 461.571 24.24C463.705 27.2267 464.291 31.4933 463.331 37.04L450.051 120.72C449.305 125.733 447.598 129.467 444.931 131.92C442.265 134.267 438.478 135.44 433.571 135.44ZM475.095 135.44C471.575 135.44 468.642 134.693 466.295 133.2C464.055 131.707 462.722 129.68 462.295 127.12C461.868 124.56 462.615 121.733 464.535 118.64L520.215 29.52C522.348 26 524.642 23.4933 527.095 22C529.655 20.5067 532.908 19.76 536.855 19.76C540.802 19.76 544.055 20.7733 546.615 22.8C549.175 24.72 551.042 27.7067 552.215 31.76L578.615 118.16C579.788 121.893 580.002 125.093 579.255 127.76C578.508 130.32 577.068 132.24 574.935 133.52C572.802 134.8 570.242 135.44 567.255 135.44C562.988 135.44 559.735 134.48 557.495 132.56C555.362 130.533 553.655 127.28 552.375 122.8L547.895 105.2L556.055 111.12H492.055L501.975 105.84L489.335 127.28C487.842 129.947 485.922 131.973 483.575 133.36C481.228 134.747 478.402 135.44 475.095 135.44ZM533.655 51.92L508.855 93.84L505.335 88.56H550.135L545.175 94.48L533.975 51.92H533.655ZM42.4003 219.87C39.2095 219.87 36.9615 219 35.6563 217.26C34.4235 215.519 33.9884 213.126 34.351 210.081L43.9231 149.711C44.4307 146.883 45.4822 144.78 47.0775 143.402C48.7454 142.024 50.9572 141.335 53.7128 141.335C56.1783 141.335 58.1363 141.879 59.5866 142.967C61.0369 143.982 62.2697 145.795 63.2849 148.406L79.3835 189.631H76.1203L106.468 146.991C107.919 144.961 109.441 143.511 111.037 142.641C112.705 141.77 114.771 141.335 117.237 141.335C120.283 141.335 122.531 142.205 123.981 143.946C125.504 145.614 126.011 148.007 125.504 151.125L115.932 211.495C115.497 214.25 114.445 216.353 112.777 217.803C111.109 219.181 108.861 219.87 106.033 219.87C103.06 219.87 100.885 219 99.5067 217.26C98.1289 215.519 97.6575 213.126 98.0926 210.081L103.966 172.771H106.468L83.7345 204.424C82.6467 205.947 81.5227 207.035 80.3625 207.687C79.2022 208.34 77.7519 208.666 76.0115 208.666C74.1261 208.666 72.6395 208.231 71.5517 207.361C70.464 206.491 69.485 205.149 68.6148 203.337L55.8883 173.424H58.2813L52.1899 211.495C51.7548 214.25 50.7034 216.353 49.0355 217.803C47.4401 219.181 45.2284 219.87 42.4003 219.87ZM169.208 220.197C161.884 220.197 155.502 218.855 150.064 216.172C144.625 213.416 140.383 209.5 137.337 204.424C134.364 199.276 132.877 193.075 132.877 185.824C132.877 179.225 133.856 173.206 135.814 167.767C137.845 162.256 140.673 157.506 144.299 153.518C147.997 149.53 152.384 146.484 157.46 144.381C162.609 142.205 168.302 141.118 174.538 141.118C181.935 141.118 188.352 142.495 193.791 145.251C199.23 147.934 203.436 151.85 206.409 156.999C209.382 162.075 210.869 168.202 210.869 175.382C210.869 182.053 209.89 188.144 207.932 193.656C205.974 199.094 203.146 203.808 199.447 207.796C195.749 211.785 191.325 214.867 186.177 217.042C181.101 219.145 175.444 220.197 169.208 220.197ZM169.426 203.445C173.849 203.445 177.584 202.285 180.629 199.965C183.675 197.644 186.032 194.417 187.7 190.284C189.368 186.078 190.201 181.255 190.201 175.817C190.201 169.725 188.751 165.229 185.85 162.329C183.022 159.355 179.143 157.869 174.212 157.869C169.933 157.869 166.235 159.029 163.117 161.35C160.071 163.67 157.714 166.897 156.046 171.031C154.451 175.164 153.653 179.986 153.653 185.498C153.653 191.516 155.067 196.012 157.896 198.986C160.724 201.959 164.567 203.445 169.426 203.445ZM226.602 219.979C223.411 219.979 221.09 218.964 219.64 216.933C218.19 214.903 217.755 212.002 218.335 208.231L227.254 152.213C227.762 148.877 228.995 146.411 230.953 144.816C232.911 143.148 235.557 142.314 238.893 142.314H261.736C270.51 142.314 277.218 144.272 281.859 148.188C286.573 152.031 288.929 157.361 288.929 164.178C288.929 170.197 287.624 175.128 285.013 178.971C282.403 182.814 278.813 185.643 274.245 187.455C269.676 189.268 264.455 190.175 258.581 190.175V188.217H262.606C266.377 188.217 269.422 189.232 271.743 191.263C274.064 193.293 275.913 196.085 277.29 199.638L280.227 207.361C281.315 209.972 281.714 212.22 281.424 214.105C281.134 215.991 280.191 217.441 278.596 218.456C277 219.471 274.789 219.979 271.961 219.979C269.277 219.979 267.102 219.29 265.434 217.912C263.839 216.534 262.497 214.359 261.409 211.386L255.536 195.94C254.81 193.909 253.832 192.495 252.599 191.698C251.438 190.827 249.807 190.392 247.704 190.392H241.177L238.132 210.081C237.624 213.416 236.391 215.918 234.433 217.586C232.476 219.181 229.865 219.979 226.602 219.979ZM243.353 176.252H257.82C261.736 176.252 264.709 175.418 266.739 173.75C268.842 172.01 269.894 169.435 269.894 166.027C269.894 163.199 268.951 161.096 267.066 159.718C265.253 158.34 262.352 157.651 258.364 157.651H246.29L243.353 176.252ZM303.402 219.979C300.212 219.979 297.891 218.964 296.441 216.933C294.99 214.903 294.555 212.038 295.135 208.34L304.055 152.213C304.562 148.877 305.795 146.411 307.753 144.816C309.711 143.148 312.322 142.314 315.585 142.314H337.992C347.275 142.314 354.2 144.308 358.768 148.297C363.409 152.213 365.73 157.615 365.73 164.504C365.73 173.496 363.011 180.421 357.572 185.28C352.133 190.139 344.193 192.568 333.75 192.568H317.652L314.824 210.081C314.316 213.416 313.083 215.918 311.125 217.586C309.24 219.181 306.665 219.979 303.402 219.979ZM320.045 177.231H334.512C338.5 177.231 341.509 176.288 343.54 174.403C345.643 172.517 346.694 169.798 346.694 166.245C346.694 163.271 345.752 161.096 343.866 159.718C342.053 158.34 339.189 157.651 335.273 157.651H323.09L320.045 177.231ZM377.019 219.979C373.683 219.979 371.29 218.964 369.839 216.933C368.389 214.903 367.99 212.002 368.643 208.231L377.671 151.234C378.179 147.898 379.375 145.432 381.261 143.837C383.146 142.169 385.721 141.335 388.984 141.335C392.392 141.335 394.785 142.387 396.163 144.49C397.613 146.52 398.012 149.385 397.359 153.083L394.422 171.901H425.967L429.339 151.234C429.847 147.898 431.007 145.432 432.82 143.837C434.705 142.169 437.279 141.335 440.543 141.335C443.951 141.335 446.344 142.35 447.722 144.381C449.172 146.411 449.571 149.312 448.918 153.083L439.89 209.972C439.382 213.38 438.186 215.918 436.301 217.586C434.488 219.181 431.95 219.979 428.686 219.979C425.278 219.979 422.885 218.964 421.507 216.933C420.129 214.83 419.731 211.93 420.311 208.231L423.356 188.326H391.812L388.331 209.972C387.823 213.38 386.627 215.918 384.742 217.586C382.929 219.181 380.354 219.979 377.019 219.979ZM492.769 220.197C485.445 220.197 479.063 218.855 473.625 216.172C468.186 213.416 463.944 209.5 460.898 204.424C457.925 199.276 456.438 193.075 456.438 185.824C456.438 179.225 457.417 173.206 459.375 167.767C461.406 162.256 464.234 157.506 467.859 153.518C471.558 149.53 475.945 146.484 481.021 144.381C486.17 142.205 491.862 141.118 498.099 141.118C505.495 141.118 511.913 142.495 517.352 145.251C522.79 147.934 526.996 151.85 529.97 156.999C532.943 162.075 534.429 168.202 534.429 175.382C534.429 182.053 533.45 188.144 531.492 193.656C529.534 199.094 526.706 203.808 523.008 207.796C519.31 211.785 514.886 214.867 509.738 217.042C504.661 219.145 499.005 220.197 492.769 220.197ZM492.986 203.445C497.41 203.445 501.144 202.285 504.19 199.965C507.236 197.644 509.593 194.417 511.26 190.284C512.928 186.078 513.762 181.255 513.762 175.817C513.762 169.725 512.312 165.229 509.411 162.329C506.583 159.355 502.703 157.869 497.772 157.869C493.494 157.869 489.796 159.029 486.677 161.35C483.632 163.67 481.275 166.897 479.607 171.031C478.012 175.164 477.214 179.986 477.214 185.498C477.214 191.516 478.628 196.012 481.456 198.986C484.284 201.959 488.128 203.445 492.986 203.445ZM570.394 220.197C567.639 220.197 564.774 220.015 561.801 219.653C558.901 219.29 556.036 218.674 553.208 217.803C550.38 216.933 547.733 215.918 545.268 214.758C543.31 213.743 541.932 212.437 541.134 210.842C540.409 209.174 540.155 207.47 540.373 205.73C540.663 203.989 541.315 202.466 542.331 201.161C543.418 199.856 544.796 198.986 546.464 198.55C548.204 198.115 550.162 198.405 552.338 199.421C555.601 201.016 559.009 202.14 562.563 202.793C566.188 203.445 569.452 203.772 572.352 203.772C576.486 203.772 579.64 203.119 581.816 201.814C584.064 200.436 585.188 198.732 585.188 196.701C585.188 195.033 584.499 193.656 583.121 192.568C581.816 191.408 579.713 190.501 576.812 189.849L564.303 186.803C558.792 185.57 554.405 183.213 551.141 179.733C547.951 176.252 546.355 171.937 546.355 166.788C546.355 162.655 547.226 159.029 548.966 155.911C550.706 152.72 553.099 150.037 556.145 147.862C559.191 145.614 562.671 143.946 566.587 142.858C570.503 141.698 574.6 141.118 578.879 141.118C582.36 141.118 586.13 141.517 590.191 142.314C594.252 143.112 598.132 144.526 601.83 146.556C603.571 147.427 604.803 148.623 605.529 150.146C606.326 151.669 606.653 153.264 606.507 154.932C606.362 156.527 605.746 157.941 604.658 159.174C603.643 160.407 602.193 161.241 600.307 161.676C598.494 162.039 596.319 161.712 593.781 160.697C591.533 159.682 589.067 158.92 586.384 158.413C583.701 157.833 581.163 157.543 578.77 157.543C576.087 157.543 573.766 157.869 571.808 158.522C569.923 159.102 568.473 159.936 567.458 161.023C566.442 162.111 565.935 163.344 565.935 164.722C565.935 166.39 566.551 167.767 567.784 168.855C569.017 169.943 570.938 170.813 573.549 171.466L586.058 174.403C592.004 175.78 596.609 178.246 599.872 181.799C603.135 185.28 604.767 189.486 604.767 194.417C604.767 198.768 603.824 202.575 601.939 205.838C600.126 209.029 597.588 211.712 594.325 213.888C591.134 215.991 587.472 217.586 583.339 218.674C579.205 219.689 574.89 220.197 570.394 220.197ZM621.232 219.979C617.824 219.979 615.394 218.964 613.944 216.933C612.566 214.903 612.167 212.002 612.748 208.231L621.776 151.234C622.283 147.898 623.48 145.432 625.365 143.837C627.251 142.169 629.861 141.335 633.197 141.335C636.533 141.335 638.89 142.35 640.267 144.381C641.718 146.411 642.117 149.312 641.464 153.083L632.436 209.972C631.928 213.38 630.768 215.918 628.955 217.586C627.142 219.181 624.568 219.979 621.232 219.979ZM675.132 220.197C672.376 220.197 669.512 220.015 666.539 219.653C663.638 219.29 660.774 218.674 657.946 217.803C655.118 216.933 652.471 215.918 650.005 214.758C648.047 213.743 646.67 212.437 645.872 210.842C645.147 209.174 644.893 207.47 645.11 205.73C645.4 203.989 646.053 202.466 647.068 201.161C648.156 199.856 649.534 198.986 651.202 198.55C652.942 198.115 654.9 198.405 657.076 199.421C660.339 201.016 663.747 202.14 667.3 202.793C670.926 203.445 674.189 203.772 677.09 203.772C681.223 203.772 684.378 203.119 686.553 201.814C688.801 200.436 689.925 198.732 689.925 196.701C689.925 195.033 689.236 193.656 687.859 192.568C686.553 191.408 684.45 190.501 681.55 189.849L669.041 186.803C663.53 185.57 659.142 183.213 655.879 179.733C652.688 176.252 651.093 171.937 651.093 166.788C651.093 162.655 651.963 159.029 653.704 155.911C655.444 152.72 657.837 150.037 660.883 147.862C663.928 145.614 667.409 143.946 671.325 142.858C675.241 141.698 679.338 141.118 683.616 141.118C687.097 141.118 690.868 141.517 694.929 142.314C698.99 143.112 702.87 144.526 706.568 146.556C708.308 147.427 709.541 148.623 710.266 150.146C711.064 151.669 711.39 153.264 711.245 154.932C711.1 156.527 710.484 157.941 709.396 159.174C708.381 160.407 706.93 161.241 705.045 161.676C703.232 162.039 701.057 161.712 698.519 160.697C696.271 159.682 693.805 158.92 691.122 158.413C688.439 157.833 685.901 157.543 683.508 157.543C680.825 157.543 678.504 157.869 676.546 158.522C674.661 159.102 673.21 159.936 672.195 161.023C671.18 162.111 670.672 163.344 670.672 164.722C670.672 166.39 671.289 167.767 672.522 168.855C673.754 169.943 675.676 170.813 678.287 171.466L690.796 174.403C696.742 175.78 701.347 178.246 704.61 181.799C707.873 185.28 709.505 189.486 709.505 194.417C709.505 198.768 708.562 202.575 706.677 205.838C704.864 209.029 702.326 211.712 699.062 213.888C695.872 215.991 692.21 217.586 688.076 218.674C683.943 219.689 679.628 220.197 675.132 220.197Z" fill="#8F37FF"/>
<path d="M66.44 135.44C61.8533 135.44 58.44 133.947 56.2 130.96C53.96 127.973 53.2667 123.76 54.12 118.32L65.64 45.2H42.92C38.8667 45.2 35.72 44.3467 33.48 42.64C31.24 40.8267 30.12 38.4267 30.12 35.44C30.12 30.96 31.4 27.4933 33.96 25.04C36.52 22.48 40.04 21.2 44.52 21.2H121.8C125.853 21.2 128.947 22.0533 131.08 23.76C133.32 25.4667 134.44 27.8133 134.44 30.8C134.44 35.28 133.16 38.8 130.6 41.36C128.147 43.92 124.68 45.2 120.2 45.2H95.08L83.08 120.88C82.3333 125.68 80.5733 129.307 77.8 131.76C75.1333 134.213 71.3467 135.44 66.44 135.44ZM142.689 135.44C137.995 135.44 134.582 133.947 132.449 130.96C130.315 127.973 129.675 123.707 130.529 118.16L143.649 35.76C144.395 30.8533 146.209 27.2267 149.089 24.88C151.969 22.4267 155.862 21.2 160.769 21.2H194.369C207.275 21.2 217.142 24.08 223.969 29.84C230.902 35.4933 234.369 43.3333 234.369 53.36C234.369 62.2133 232.449 69.4667 228.609 75.12C224.769 80.7733 219.489 84.9333 212.769 87.6C206.049 90.2667 198.369 91.6 189.729 91.6V88.72H195.649C201.195 88.72 205.675 90.2133 209.089 93.2C212.502 96.1867 215.222 100.293 217.249 105.52L221.569 116.88C223.169 120.72 223.755 124.027 223.329 126.8C222.902 129.573 221.515 131.707 219.169 133.2C216.822 134.693 213.569 135.44 209.409 135.44C205.462 135.44 202.262 134.427 199.809 132.4C197.462 130.373 195.489 127.173 193.889 122.8L185.249 100.08C184.182 97.0933 182.742 95.0133 180.929 93.84C179.222 92.56 176.822 91.92 173.729 91.92H164.129L159.649 120.88C158.902 125.787 157.089 129.467 154.209 131.92C151.329 134.267 147.489 135.44 142.689 135.44ZM167.329 71.12H188.609C194.369 71.12 198.742 69.8933 201.729 67.44C204.822 64.88 206.369 61.0933 206.369 56.08C206.369 51.92 204.982 48.8267 202.209 46.8C199.542 44.7733 195.275 43.76 189.409 43.76H171.649L167.329 71.12ZM255.978 135.44C250.964 135.44 247.391 133.947 245.258 130.96C243.231 127.973 242.644 123.707 243.498 118.16L256.778 34.32C257.524 29.4133 259.284 25.7867 262.058 23.44C264.831 20.9867 268.671 19.76 273.578 19.76C278.484 19.76 281.951 21.2533 283.977 24.24C286.111 27.2267 286.698 31.4933 285.738 37.04L272.458 120.72C271.711 125.733 270.004 129.467 267.338 131.92C264.671 134.267 260.884 135.44 255.978 135.44ZM340.701 135.44C336.541 135.44 333.181 134.427 330.621 132.4C328.061 130.373 326.195 127.28 325.021 123.12L300.061 39.28C299.101 35.6533 298.995 32.5067 299.741 29.84C300.595 27.1733 302.141 25.0933 304.381 23.6C306.728 22 309.501 21.2 312.701 21.2C316.328 21.2 319.368 22.1067 321.821 23.92C324.275 25.7333 326.141 29.0933 327.421 34L347.101 106.64H338.301L382.621 31.44C384.755 27.8133 386.995 25.2 389.341 23.6C391.795 22 394.888 21.2 398.621 21.2C402.568 21.2 405.608 22.16 407.741 24.08C409.981 25.8933 411.261 28.24 411.581 31.12C411.901 34 411.101 36.9867 409.181 40.08L356.861 125.52C354.728 129.04 352.435 131.6 349.981 133.2C347.528 134.693 344.435 135.44 340.701 135.44ZM424.571 135.44C419.558 135.44 415.985 133.947 413.851 130.96C411.825 127.973 411.238 123.707 412.091 118.16L425.371 34.32C426.118 29.4133 427.878 25.7867 430.651 23.44C433.425 20.9867 437.265 19.76 442.171 19.76C447.078 19.76 450.545 21.2533 452.571 24.24C454.705 27.2267 455.291 31.4933 454.331 37.04L441.051 120.72C440.305 125.733 438.598 129.467 435.931 131.92C433.265 134.267 429.478 135.44 424.571 135.44ZM466.095 135.44C462.575 135.44 459.642 134.693 457.295 133.2C455.055 131.707 453.722 129.68 453.295 127.12C452.868 124.56 453.615 121.733 455.535 118.64L511.215 29.52C513.348 26 515.642 23.4933 518.095 22C520.655 20.5067 523.908 19.76 527.855 19.76C531.802 19.76 535.055 20.7733 537.615 22.8C540.175 24.72 542.042 27.7067 543.215 31.76L569.615 118.16C570.788 121.893 571.002 125.093 570.255 127.76C569.508 130.32 568.068 132.24 565.935 133.52C563.802 134.8 561.242 135.44 558.255 135.44C553.988 135.44 550.735 134.48 548.495 132.56C546.362 130.533 544.655 127.28 543.375 122.8L538.895 105.2L547.055 111.12H483.055L492.975 105.84L480.335 127.28C478.842 129.947 476.922 131.973 474.575 133.36C472.228 134.747 469.402 135.44 466.095 135.44ZM524.655 51.92L499.855 93.84L496.335 88.56H541.135L536.175 94.48L524.975 51.92H524.655ZM33.4003 219.87C30.2095 219.87 27.9615 219 26.6563 217.26C25.4235 215.519 24.9884 213.126 25.351 210.081L34.9231 149.711C35.4307 146.883 36.4822 144.78 38.0775 143.402C39.7454 142.024 41.9572 141.335 44.7128 141.335C47.1783 141.335 49.1363 141.879 50.5866 142.967C52.0369 143.982 53.2697 145.795 54.2849 148.406L70.3835 189.631H67.1203L97.4683 146.991C98.9186 144.961 100.441 143.511 102.037 142.641C103.705 141.77 105.771 141.335 108.237 141.335C111.283 141.335 113.531 142.205 114.981 143.946C116.504 145.614 117.011 148.007 116.504 151.125L106.932 211.495C106.497 214.25 105.445 216.353 103.777 217.803C102.109 219.181 99.8613 219.87 97.0332 219.87C94.06 219.87 91.8845 219 90.5067 217.26C89.1289 215.519 88.6575 213.126 89.0926 210.081L94.9665 172.771H97.4683L74.7345 204.424C73.6467 205.947 72.5227 207.035 71.3625 207.687C70.2022 208.34 68.7519 208.666 67.0115 208.666C65.1261 208.666 63.6395 208.231 62.5517 207.361C61.464 206.491 60.485 205.149 59.6148 203.337L46.8883 173.424H49.2813L43.1899 211.495C42.7548 214.25 41.7034 216.353 40.0355 217.803C38.4401 219.181 36.2284 219.87 33.4003 219.87ZM160.208 220.197C152.884 220.197 146.502 218.855 141.064 216.172C135.625 213.416 131.383 209.5 128.337 204.424C125.364 199.276 123.877 193.075 123.877 185.824C123.877 179.225 124.856 173.206 126.814 167.767C128.845 162.256 131.673 157.506 135.299 153.518C138.997 149.53 143.384 146.484 148.46 144.381C153.609 142.205 159.302 141.118 165.538 141.118C172.935 141.118 179.352 142.495 184.791 145.251C190.23 147.934 194.436 151.85 197.409 156.999C200.382 162.075 201.869 168.202 201.869 175.382C201.869 182.053 200.89 188.144 198.932 193.656C196.974 199.094 194.146 203.808 190.447 207.796C186.749 211.785 182.325 214.867 177.177 217.042C172.101 219.145 166.444 220.197 160.208 220.197ZM160.426 203.445C164.849 203.445 168.584 202.285 171.629 199.965C174.675 197.644 177.032 194.417 178.7 190.284C180.368 186.078 181.201 181.255 181.201 175.817C181.201 169.725 179.751 165.229 176.85 162.329C174.022 159.355 170.143 157.869 165.212 157.869C160.933 157.869 157.235 159.029 154.117 161.35C151.071 163.67 148.714 166.897 147.046 171.031C145.451 175.164 144.653 179.986 144.653 185.498C144.653 191.516 146.067 196.012 148.896 198.986C151.724 201.959 155.567 203.445 160.426 203.445ZM217.602 219.979C214.411 219.979 212.09 218.964 210.64 216.933C209.19 214.903 208.755 212.002 209.335 208.231L218.254 152.213C218.762 148.877 219.995 146.411 221.953 144.816C223.911 143.148 226.557 142.314 229.893 142.314H252.736C261.51 142.314 268.218 144.272 272.859 148.188C277.573 152.031 279.929 157.361 279.929 164.178C279.929 170.197 278.624 175.128 276.013 178.971C273.403 182.814 269.813 185.643 265.245 187.455C260.676 189.268 255.455 190.175 249.581 190.175V188.217H253.606C257.377 188.217 260.422 189.232 262.743 191.263C265.064 193.293 266.913 196.085 268.29 199.638L271.227 207.361C272.315 209.972 272.714 212.22 272.424 214.105C272.134 215.991 271.191 217.441 269.596 218.456C268 219.471 265.789 219.979 262.961 219.979C260.277 219.979 258.102 219.29 256.434 217.912C254.839 216.534 253.497 214.359 252.409 211.386L246.536 195.94C245.81 193.909 244.832 192.495 243.599 191.698C242.438 190.827 240.807 190.392 238.704 190.392H232.177L229.132 210.081C228.624 213.416 227.391 215.918 225.433 217.586C223.476 219.181 220.865 219.979 217.602 219.979ZM234.353 176.252H248.82C252.736 176.252 255.709 175.418 257.739 173.75C259.842 172.01 260.894 169.435 260.894 166.027C260.894 163.199 259.951 161.096 258.066 159.718C256.253 158.34 253.352 157.651 249.364 157.651H237.29L234.353 176.252ZM294.402 219.979C291.212 219.979 288.891 218.964 287.441 216.933C285.99 214.903 285.555 212.038 286.135 208.34L295.055 152.213C295.562 148.877 296.795 146.411 298.753 144.816C300.711 143.148 303.322 142.314 306.585 142.314H328.992C338.275 142.314 345.2 144.308 349.768 148.297C354.409 152.213 356.73 157.615 356.73 164.504C356.73 173.496 354.011 180.421 348.572 185.28C343.133 190.139 335.193 192.568 324.75 192.568H308.652L305.824 210.081C305.316 213.416 304.083 215.918 302.125 217.586C300.24 219.181 297.665 219.979 294.402 219.979ZM311.045 177.231H325.512C329.5 177.231 332.509 176.288 334.54 174.403C336.643 172.517 337.694 169.798 337.694 166.245C337.694 163.271 336.752 161.096 334.866 159.718C333.053 158.34 330.189 157.651 326.273 157.651H314.09L311.045 177.231ZM368.019 219.979C364.683 219.979 362.29 218.964 360.839 216.933C359.389 214.903 358.99 212.002 359.643 208.231L368.671 151.234C369.179 147.898 370.375 145.432 372.261 143.837C374.146 142.169 376.721 141.335 379.984 141.335C383.392 141.335 385.785 142.387 387.163 144.49C388.613 146.52 389.012 149.385 388.359 153.083L385.422 171.901H416.967L420.339 151.234C420.847 147.898 422.007 145.432 423.82 143.837C425.705 142.169 428.279 141.335 431.543 141.335C434.951 141.335 437.344 142.35 438.722 144.381C440.172 146.411 440.571 149.312 439.918 153.083L430.89 209.972C430.382 213.38 429.186 215.918 427.301 217.586C425.488 219.181 422.95 219.979 419.686 219.979C416.278 219.979 413.885 218.964 412.507 216.933C411.129 214.83 410.731 211.93 411.311 208.231L414.356 188.326H382.812L379.331 209.972C378.823 213.38 377.627 215.918 375.742 217.586C373.929 219.181 371.354 219.979 368.019 219.979ZM483.769 220.197C476.445 220.197 470.063 218.855 464.625 216.172C459.186 213.416 454.944 209.5 451.898 204.424C448.925 199.276 447.438 193.075 447.438 185.824C447.438 179.225 448.417 173.206 450.375 167.767C452.406 162.256 455.234 157.506 458.859 153.518C462.558 149.53 466.945 146.484 472.021 144.381C477.17 142.205 482.862 141.118 489.099 141.118C496.495 141.118 502.913 142.495 508.352 145.251C513.79 147.934 517.996 151.85 520.97 156.999C523.943 162.075 525.429 168.202 525.429 175.382C525.429 182.053 524.45 188.144 522.492 193.656C520.534 199.094 517.706 203.808 514.008 207.796C510.31 211.785 505.886 214.867 500.738 217.042C495.661 219.145 490.005 220.197 483.769 220.197ZM483.986 203.445C488.41 203.445 492.144 202.285 495.19 199.965C498.236 197.644 500.593 194.417 502.26 190.284C503.928 186.078 504.762 181.255 504.762 175.817C504.762 169.725 503.312 165.229 500.411 162.329C497.583 159.355 493.703 157.869 488.772 157.869C484.494 157.869 480.796 159.029 477.677 161.35C474.632 163.67 472.275 166.897 470.607 171.031C469.012 175.164 468.214 179.986 468.214 185.498C468.214 191.516 469.628 196.012 472.456 198.986C475.284 201.959 479.128 203.445 483.986 203.445ZM561.394 220.197C558.639 220.197 555.774 220.015 552.801 219.653C549.901 219.29 547.036 218.674 544.208 217.803C541.38 216.933 538.733 215.918 536.268 214.758C534.31 213.743 532.932 212.437 532.134 210.842C531.409 209.174 531.155 207.47 531.373 205.73C531.663 203.989 532.315 202.466 533.331 201.161C534.418 199.856 535.796 198.986 537.464 198.55C539.204 198.115 541.162 198.405 543.338 199.421C546.601 201.016 550.009 202.14 553.563 202.793C557.188 203.445 560.452 203.772 563.352 203.772C567.486 203.772 570.64 203.119 572.816 201.814C575.064 200.436 576.188 198.732 576.188 196.701C576.188 195.033 575.499 193.656 574.121 192.568C572.816 191.408 570.713 190.501 567.812 189.849L555.303 186.803C549.792 185.57 545.405 183.213 542.141 179.733C538.951 176.252 537.355 171.937 537.355 166.788C537.355 162.655 538.226 159.029 539.966 155.911C541.706 152.72 544.099 150.037 547.145 147.862C550.191 145.614 553.671 143.946 557.587 142.858C561.503 141.698 565.6 141.118 569.879 141.118C573.36 141.118 577.13 141.517 581.191 142.314C585.252 143.112 589.132 144.526 592.83 146.556C594.571 147.427 595.803 148.623 596.529 150.146C597.326 151.669 597.653 153.264 597.507 154.932C597.362 156.527 596.746 157.941 595.658 159.174C594.643 160.407 593.193 161.241 591.307 161.676C589.494 162.039 587.319 161.712 584.781 160.697C582.533 159.682 580.067 158.92 577.384 158.413C574.701 157.833 572.163 157.543 569.77 157.543C567.087 157.543 564.766 157.869 562.808 158.522C560.923 159.102 559.473 159.936 558.458 161.023C557.442 162.111 556.935 163.344 556.935 164.722C556.935 166.39 557.551 167.767 558.784 168.855C560.017 169.943 561.938 170.813 564.549 171.466L577.058 174.403C583.004 175.78 587.609 178.246 590.872 181.799C594.135 185.28 595.767 189.486 595.767 194.417C595.767 198.768 594.824 202.575 592.939 205.838C591.126 209.029 588.588 211.712 585.325 213.888C582.134 215.991 578.472 217.586 574.339 218.674C570.205 219.689 565.89 220.197 561.394 220.197ZM612.232 219.979C608.824 219.979 606.394 218.964 604.944 216.933C603.566 214.903 603.167 212.002 603.748 208.231L612.776 151.234C613.283 147.898 614.48 145.432 616.365 143.837C618.251 142.169 620.861 141.335 624.197 141.335C627.533 141.335 629.89 142.35 631.267 144.381C632.718 146.411 633.117 149.312 632.464 153.083L623.436 209.972C622.928 213.38 621.768 215.918 619.955 217.586C618.142 219.181 615.568 219.979 612.232 219.979ZM666.132 220.197C663.376 220.197 660.512 220.015 657.539 219.653C654.638 219.29 651.774 218.674 648.946 217.803C646.118 216.933 643.471 215.918 641.005 214.758C639.047 213.743 637.67 212.437 636.872 210.842C636.147 209.174 635.893 207.47 636.11 205.73C636.4 203.989 637.053 202.466 638.068 201.161C639.156 199.856 640.534 198.986 642.202 198.55C643.942 198.115 645.9 198.405 648.076 199.421C651.339 201.016 654.747 202.14 658.3 202.793C661.926 203.445 665.189 203.772 668.09 203.772C672.223 203.772 675.378 203.119 677.553 201.814C679.801 200.436 680.925 198.732 680.925 196.701C680.925 195.033 680.236 193.656 678.859 192.568C677.553 191.408 675.45 190.501 672.55 189.849L660.041 186.803C654.53 185.57 650.142 183.213 646.879 179.733C643.688 176.252 642.093 171.937 642.093 166.788C642.093 162.655 642.963 159.029 644.704 155.911C646.444 152.72 648.837 150.037 651.883 147.862C654.928 145.614 658.409 143.946 662.325 142.858C666.241 141.698 670.338 141.118 674.616 141.118C678.097 141.118 681.868 141.517 685.929 142.314C689.99 143.112 693.87 144.526 697.568 146.556C699.308 147.427 700.541 148.623 701.266 150.146C702.064 151.669 702.39 153.264 702.245 154.932C702.1 156.527 701.484 157.941 700.396 159.174C699.381 160.407 697.93 161.241 696.045 161.676C694.232 162.039 692.057 161.712 689.519 160.697C687.271 159.682 684.805 158.92 682.122 158.413C679.439 157.833 676.901 157.543 674.508 157.543C671.825 157.543 669.504 157.869 667.546 158.522C665.661 159.102 664.21 159.936 663.195 161.023C662.18 162.111 661.672 163.344 661.672 164.722C661.672 166.39 662.289 167.767 663.522 168.855C664.754 169.943 666.676 170.813 669.287 171.466L681.796 174.403C687.742 175.78 692.347 178.246 695.61 181.799C698.873 185.28 700.505 189.486 700.505 194.417C700.505 198.768 699.562 202.575 697.677 205.838C695.864 209.029 693.326 211.712 690.062 213.888C686.872 215.991 683.21 217.586 679.076 218.674C674.943 219.689 670.628 220.197 666.132 220.197Z" fill="white"/>
</svg>
