<svg width="299" height="299" viewBox="0 0 299 299" fill="none" xmlns="http://www.w3.org/2000/svg">
<mask id="path-1-outside-1_60_392" maskUnits="userSpaceOnUse" x="9.88184" y="22" width="278" height="219" fill="black">
<rect fill="white" x="9.88184" y="22" width="278" height="219"/>
<path fill-rule="evenodd" clip-rule="evenodd" d="M141.956 39.9082C145.158 33.3639 154.486 33.3639 157.688 39.9082L172.622 70.4309C178.966 72.2991 184.985 74.9271 190.573 78.2096L198.921 69.8615C198.91 69.7896 198.899 69.7175 198.889 69.6451C197.96 62.9926 202.601 56.847 209.253 55.9186C215.906 54.9902 222.051 59.6304 222.98 66.2829C223.908 72.9354 219.268 79.081 212.615 80.0094C211.454 80.1715 210.307 80.1638 209.202 80.0053L202.47 86.7373C216.282 98.6697 225.999 115.215 229.226 133.978C230.845 130.993 233.102 128.123 235.946 125.604C245.847 116.835 259.116 115.647 265.583 122.95C270.304 128.28 270.096 136.662 265.788 144.21C276.069 156.141 277.766 171.567 269.517 178.871C261.169 186.265 245.794 182.54 235.177 170.552C232.697 167.751 230.695 164.747 229.191 161.693C222.581 199.54 189.561 228.308 149.822 228.308C108.881 228.308 75.0715 197.773 69.9257 158.235C68.3737 162.458 65.8677 166.697 62.4544 170.552C51.8372 182.54 36.4626 186.265 28.1142 178.871C19.8658 171.567 21.5622 156.141 31.8439 144.21C27.5359 136.662 27.3274 128.28 32.0482 122.95C38.5154 115.647 51.7843 116.835 61.6851 125.604C65.5668 129.041 68.3545 133.134 69.9197 137.279C72.5681 116.838 82.8777 98.7995 97.8745 86.1388L90.1926 78.457C90.1207 78.4683 90.0485 78.479 89.9761 78.4891C83.3236 79.4176 77.1781 74.7773 76.2497 68.1248C75.3212 61.4723 79.9615 55.3268 86.614 54.3983C93.2665 53.4699 99.412 58.1102 100.34 64.7627C100.503 65.9242 100.495 67.0703 100.336 68.1759L109.893 77.7329C115.248 74.672 120.988 72.2078 127.022 70.4309L141.956 39.9082Z"/>
</mask>
<path fill-rule="evenodd" clip-rule="evenodd" d="M141.956 39.9082C145.158 33.3639 154.486 33.3639 157.688 39.9082L172.622 70.4309C178.966 72.2991 184.985 74.9271 190.573 78.2096L198.921 69.8615C198.91 69.7896 198.899 69.7175 198.889 69.6451C197.96 62.9926 202.601 56.847 209.253 55.9186C215.906 54.9902 222.051 59.6304 222.98 66.2829C223.908 72.9354 219.268 79.081 212.615 80.0094C211.454 80.1715 210.307 80.1638 209.202 80.0053L202.47 86.7373C216.282 98.6697 225.999 115.215 229.226 133.978C230.845 130.993 233.102 128.123 235.946 125.604C245.847 116.835 259.116 115.647 265.583 122.95C270.304 128.28 270.096 136.662 265.788 144.21C276.069 156.141 277.766 171.567 269.517 178.871C261.169 186.265 245.794 182.54 235.177 170.552C232.697 167.751 230.695 164.747 229.191 161.693C222.581 199.54 189.561 228.308 149.822 228.308C108.881 228.308 75.0715 197.773 69.9257 158.235C68.3737 162.458 65.8677 166.697 62.4544 170.552C51.8372 182.54 36.4626 186.265 28.1142 178.871C19.8658 171.567 21.5622 156.141 31.8439 144.21C27.5359 136.662 27.3274 128.28 32.0482 122.95C38.5154 115.647 51.7843 116.835 61.6851 125.604C65.5668 129.041 68.3545 133.134 69.9197 137.279C72.5681 116.838 82.8777 98.7995 97.8745 86.1388L90.1926 78.457C90.1207 78.4683 90.0485 78.479 89.9761 78.4891C83.3236 79.4176 77.1781 74.7773 76.2497 68.1248C75.3212 61.4723 79.9615 55.3268 86.614 54.3983C93.2665 53.4699 99.412 58.1102 100.34 64.7627C100.503 65.9242 100.495 67.0703 100.336 68.1759L109.893 77.7329C115.248 74.672 120.988 72.2078 127.022 70.4309L141.956 39.9082Z" fill="#8F37FF"/>
<path d="M157.688 39.9082L168.612 34.563L168.612 34.563L157.688 39.9082ZM141.956 39.9082L152.881 45.2534V45.2534L141.956 39.9082ZM172.622 70.4309L161.697 75.7761C163.196 78.8403 165.914 81.134 169.186 82.0977L172.622 70.4309ZM190.573 78.2096L184.413 88.6963C189.188 91.5016 195.256 90.7259 199.173 86.8095L190.573 78.2096ZM198.921 69.8615L207.521 78.4614C210.272 75.7106 211.541 71.8099 210.935 67.9671L198.921 69.8615ZM198.889 69.6451L210.934 67.964V67.964L198.889 69.6451ZM209.253 55.9186L207.572 43.8732L209.253 55.9186ZM212.615 80.0094L210.934 67.964L212.615 80.0094ZM209.202 80.0053L210.928 67.9663C207.136 67.4227 203.31 68.697 200.602 71.4054L209.202 80.0053ZM202.47 86.7373L193.87 78.1374C191.48 80.527 190.193 83.8032 190.316 87.1805C190.439 90.5577 191.962 93.7314 194.519 95.9407L202.47 86.7373ZM229.226 133.978L217.24 136.04C218.119 141.147 222.136 145.136 227.249 145.979C232.362 146.821 237.447 144.331 239.917 139.776L229.226 133.978ZM235.946 125.604L227.883 116.499L235.946 125.604ZM265.583 122.95L274.688 114.886V114.886L265.583 122.95ZM265.788 144.21L255.225 138.182C252.672 142.654 253.213 148.249 256.574 152.15L265.788 144.21ZM269.517 178.871L277.581 187.976L269.517 178.871ZM235.177 170.552L244.282 162.488L244.282 162.488L235.177 170.552ZM229.191 161.693L240.101 156.319C237.775 151.597 232.676 148.907 227.465 149.654C222.255 150.401 218.116 154.415 217.21 159.6L229.191 161.693ZM69.9257 158.235L81.9861 156.665C81.2634 151.112 76.8423 146.77 71.2771 146.148C65.7119 145.525 60.4411 148.784 58.5098 154.04L69.9257 158.235ZM62.4544 170.552L53.3495 162.488L53.3495 162.488L62.4544 170.552ZM28.1142 178.871L20.0507 187.976L20.0508 187.976L28.1142 178.871ZM31.8439 144.21L41.0571 152.15C44.4185 148.249 44.9592 142.654 42.4068 138.182L31.8439 144.21ZM32.0482 122.95L41.1531 131.013L41.1531 131.013L32.0482 122.95ZM61.6851 125.604L53.6217 134.709H53.6217L61.6851 125.604ZM69.9197 137.279L58.5415 141.575C60.5129 146.797 65.7849 150.006 71.3284 149.36C76.8718 148.713 81.2639 144.377 81.981 138.842L69.9197 137.279ZM97.8745 86.1388L105.72 95.432C108.321 93.2364 109.882 90.0516 110.026 86.6511C110.169 83.2505 108.881 79.9455 106.474 77.5389L97.8745 86.1388ZM90.1926 78.457L98.7926 69.857C96.042 67.1065 92.1417 65.8375 88.2993 66.4431L90.1926 78.457ZM89.9761 78.4891L88.2953 66.4437L88.295 66.4437L89.9761 78.4891ZM76.2497 68.1248L64.2043 69.8059L64.2043 69.8059L76.2497 68.1248ZM86.614 54.3983L84.9329 42.3529L84.9329 42.3529L86.614 54.3983ZM100.34 64.7627L88.295 66.4437L88.2951 66.4438L100.34 64.7627ZM100.336 68.1759L88.2973 66.4499C87.7538 70.2414 89.0281 74.0674 91.7365 76.7758L100.336 68.1759ZM109.893 77.7329L101.293 86.3328C105.172 90.2114 111.167 91.0138 115.929 88.2917L109.893 77.7329ZM127.022 70.4309L130.458 82.0977C133.73 81.134 136.447 78.8403 137.947 75.7761L127.022 70.4309ZM168.612 34.563C160.963 18.9295 138.681 18.9294 131.032 34.563L152.881 45.2534C151.635 47.7984 148.008 47.7983 146.763 45.2534L168.612 34.563ZM183.546 65.0857L168.612 34.563L146.763 45.2534L161.697 75.7761L183.546 65.0857ZM196.733 67.7228C190.3 63.9443 183.368 60.9169 176.057 58.7641L169.186 82.0977C174.564 83.6814 179.669 85.9099 184.413 88.6963L196.733 67.7228ZM190.321 61.2616L181.973 69.6096L199.173 86.8095L207.521 78.4614L190.321 61.2616ZM210.935 67.9671C210.935 67.9674 210.934 67.9663 210.934 67.964L186.843 71.3261C186.863 71.4686 186.884 71.6118 186.907 71.7558L210.935 67.9671ZM210.934 67.964V67.964L207.572 43.8732C194.267 45.7301 184.986 58.0212 186.843 71.3262L210.934 67.964ZM210.934 67.964V67.964L235.025 64.6018C233.168 51.2969 220.877 42.0164 207.572 43.8732L210.934 67.964ZM210.934 67.964V67.964L214.296 92.0548C227.601 90.1979 236.882 77.9068 235.025 64.6018L210.934 67.964ZM210.934 67.964C210.922 67.9656 210.918 67.9655 210.919 67.9655C210.92 67.9655 210.923 67.9656 210.928 67.9663L207.476 92.0443C209.7 92.3632 211.993 92.3763 214.296 92.0548L210.934 67.964ZM211.07 95.3372L217.802 88.6053L200.602 71.4054L193.87 78.1374L211.07 95.3372ZM241.212 131.916C237.493 110.291 226.297 91.2498 210.421 77.5339L194.519 95.9407C206.267 106.09 214.505 120.138 217.24 136.04L241.212 131.916ZM227.883 116.499C224.005 119.934 220.848 123.915 218.535 128.18L239.917 139.776C240.843 138.071 242.2 136.312 244.01 134.709L227.883 116.499ZM274.688 114.886C268.289 107.66 259.168 105.402 250.968 106.136C242.762 106.871 234.578 110.57 227.883 116.499L244.01 134.709C247.216 131.869 250.617 130.589 253.137 130.364C255.663 130.138 256.41 130.936 256.478 131.013L274.688 114.886ZM276.351 150.239C282.148 140.08 284.128 125.545 274.688 114.886L256.478 131.013C256.574 131.121 256.909 131.536 256.909 132.746C256.909 134.032 256.494 135.958 255.225 138.182L276.351 150.239ZM277.581 187.976C285.465 180.994 287.664 170.932 286.693 161.966C285.717 152.958 281.544 143.864 275.001 136.271L256.574 152.15C260.313 156.488 262.129 161.072 262.51 164.586C262.895 168.14 261.818 169.444 261.454 169.767L277.581 187.976ZM226.072 178.615C232.823 186.238 241.42 191.64 250.334 193.8C259.198 195.947 269.599 195.045 277.581 187.976L261.454 169.767C261.088 170.091 259.627 171.023 256.062 170.16C252.547 169.308 248.148 166.853 244.282 162.488L226.072 178.615ZM218.281 167.067C220.274 171.113 222.887 175.019 226.072 178.615L244.282 162.488C242.506 160.483 241.117 158.38 240.101 156.319L218.281 167.067ZM149.822 240.47C195.572 240.47 233.562 207.353 241.172 163.785L217.21 159.6C211.599 191.726 183.55 216.146 149.822 216.146V240.47ZM57.8653 159.804C63.7894 205.323 102.691 240.47 149.822 240.47V216.146C115.07 216.146 86.3536 190.223 81.9861 156.665L57.8653 159.804ZM71.5592 178.615C75.9341 173.675 79.2451 168.135 81.3416 162.429L58.5098 154.04C57.5024 156.782 55.8012 159.72 53.3495 162.488L71.5592 178.615ZM20.0508 187.976C28.033 195.045 38.4339 195.947 47.2973 193.8C56.2111 191.64 64.8081 186.238 71.5592 178.615L53.3495 162.488C49.4835 166.853 45.0846 169.308 41.5698 170.16C38.0044 171.023 36.5438 170.091 36.1776 169.767L20.0508 187.976ZM22.6307 136.271C16.0873 143.864 11.9148 152.958 10.9389 161.966C9.96747 170.932 12.1669 180.994 20.0507 187.976L36.1776 169.767C35.8131 169.444 34.7365 168.14 35.1217 164.586C35.5023 161.072 37.3188 156.488 41.0571 152.15L22.6307 136.271ZM22.9433 114.886C13.5037 125.545 15.4831 140.08 21.281 150.239L42.4068 138.182C41.1375 135.958 40.7225 134.032 40.7224 132.746C40.7222 131.536 41.0574 131.121 41.1531 131.013L22.9433 114.886ZM69.7485 116.499C63.0538 110.57 54.8699 106.871 46.6639 106.136C38.4631 105.402 29.3425 107.66 22.9433 114.886L41.1531 131.013C41.221 130.936 41.9685 130.138 44.4941 130.364C47.0146 130.589 50.4156 131.869 53.6217 134.709L69.7485 116.499ZM81.2978 132.983C78.9965 126.888 75.0261 121.173 69.7485 116.499L53.6217 134.709C56.1076 136.91 57.7126 139.38 58.5415 141.575L81.2978 132.983ZM90.0289 76.8456C72.7908 91.3984 60.9105 112.16 57.8584 135.717L81.981 138.842C84.2258 121.516 92.9646 106.201 105.72 95.432L90.0289 76.8456ZM81.5927 87.0569L89.2746 94.7387L106.474 77.5389L98.7926 69.857L81.5927 87.0569ZM91.6569 90.5346C91.8007 90.5145 91.9437 90.4932 92.086 90.4708L88.2993 66.4431C88.2977 66.4433 88.2964 66.4435 88.2953 66.4437L91.6569 90.5346ZM64.2043 69.8059C66.0611 83.1109 78.3522 92.3914 91.6572 90.5345L88.295 66.4437V66.4437L64.2043 69.8059ZM84.9329 42.3529C71.6279 44.2098 62.3474 56.5009 64.2043 69.8059L88.295 66.4437L88.2951 66.4437L84.9329 42.3529ZM112.386 63.0816C110.529 49.7766 98.2379 40.4961 84.9329 42.3529L88.2951 66.4437L88.295 66.4437L112.386 63.0816ZM112.375 69.9019C112.694 67.678 112.707 65.3849 112.386 63.0816L88.2951 66.4438C88.2967 66.4555 88.2965 66.4602 88.2965 66.459C88.2966 66.458 88.2967 66.4547 88.2973 66.4499L112.375 69.9019ZM118.493 69.1329L108.936 59.5759L91.7365 76.7758L101.293 86.3328L118.493 69.1329ZM123.586 58.7641C116.633 60.8116 110.022 63.6504 103.858 67.1741L115.929 88.2917C120.474 85.6936 125.342 83.604 130.458 82.0977L123.586 58.7641ZM131.032 34.563L116.097 65.0857L137.947 75.7761L152.881 45.2534L131.032 34.563Z" fill="white" mask="url(#path-1-outside-1_60_392)"/>
<mask id="path-3-outside-2_60_392" maskUnits="userSpaceOnUse" x="15.8818" y="28" width="265" height="207" fill="black">
<rect fill="white" x="15.8818" y="28" width="265" height="207"/>
<path fill-rule="evenodd" clip-rule="evenodd" d="M141.956 39.9082C145.158 33.3639 154.486 33.3639 157.688 39.9082L172.622 70.4309C178.966 72.2991 184.985 74.9271 190.573 78.2096L198.921 69.8615C198.91 69.7896 198.899 69.7175 198.889 69.6451C197.96 62.9926 202.601 56.847 209.253 55.9186C215.906 54.9902 222.051 59.6304 222.98 66.2829C223.908 72.9354 219.268 79.081 212.615 80.0094C211.454 80.1715 210.307 80.1638 209.202 80.0053L202.47 86.7373C216.282 98.6697 225.999 115.215 229.226 133.978C230.845 130.993 233.102 128.123 235.946 125.604C245.847 116.835 259.116 115.647 265.583 122.95C270.304 128.28 270.096 136.662 265.788 144.21C276.069 156.141 277.766 171.567 269.517 178.871C261.169 186.265 245.794 182.54 235.177 170.552C232.697 167.751 230.695 164.747 229.191 161.693C222.581 199.54 189.561 228.308 149.822 228.308C108.881 228.308 75.0715 197.773 69.9257 158.235C68.3737 162.458 65.8677 166.697 62.4544 170.552C51.8372 182.54 36.4626 186.265 28.1142 178.871C19.8658 171.567 21.5622 156.141 31.8439 144.21C27.5359 136.662 27.3274 128.28 32.0482 122.95C38.5154 115.647 51.7843 116.835 61.6851 125.604C65.5668 129.041 68.3545 133.134 69.9197 137.279C72.5681 116.838 82.8777 98.7995 97.8745 86.1388L90.1926 78.457C90.1207 78.4683 90.0485 78.479 89.9761 78.4891C83.3236 79.4176 77.1781 74.7773 76.2497 68.1248C75.3212 61.4723 79.9615 55.3268 86.614 54.3983C93.2665 53.4699 99.412 58.1102 100.34 64.7627C100.503 65.9242 100.495 67.0703 100.336 68.1759L109.893 77.7329C115.248 74.672 120.988 72.2078 127.022 70.4309L141.956 39.9082Z"/>
</mask>
<path fill-rule="evenodd" clip-rule="evenodd" d="M141.956 39.9082C145.158 33.3639 154.486 33.3639 157.688 39.9082L172.622 70.4309C178.966 72.2991 184.985 74.9271 190.573 78.2096L198.921 69.8615C198.91 69.7896 198.899 69.7175 198.889 69.6451C197.96 62.9926 202.601 56.847 209.253 55.9186C215.906 54.9902 222.051 59.6304 222.98 66.2829C223.908 72.9354 219.268 79.081 212.615 80.0094C211.454 80.1715 210.307 80.1638 209.202 80.0053L202.47 86.7373C216.282 98.6697 225.999 115.215 229.226 133.978C230.845 130.993 233.102 128.123 235.946 125.604C245.847 116.835 259.116 115.647 265.583 122.95C270.304 128.28 270.096 136.662 265.788 144.21C276.069 156.141 277.766 171.567 269.517 178.871C261.169 186.265 245.794 182.54 235.177 170.552C232.697 167.751 230.695 164.747 229.191 161.693C222.581 199.54 189.561 228.308 149.822 228.308C108.881 228.308 75.0715 197.773 69.9257 158.235C68.3737 162.458 65.8677 166.697 62.4544 170.552C51.8372 182.54 36.4626 186.265 28.1142 178.871C19.8658 171.567 21.5622 156.141 31.8439 144.21C27.5359 136.662 27.3274 128.28 32.0482 122.95C38.5154 115.647 51.7843 116.835 61.6851 125.604C65.5668 129.041 68.3545 133.134 69.9197 137.279C72.5681 116.838 82.8777 98.7995 97.8745 86.1388L90.1926 78.457C90.1207 78.4683 90.0485 78.479 89.9761 78.4891C83.3236 79.4176 77.1781 74.7773 76.2497 68.1248C75.3212 61.4723 79.9615 55.3268 86.614 54.3983C93.2665 53.4699 99.412 58.1102 100.34 64.7627C100.503 65.9242 100.495 67.0703 100.336 68.1759L109.893 77.7329C115.248 74.672 120.988 72.2078 127.022 70.4309L141.956 39.9082Z" fill="#8F37FF"/>
<path d="M157.688 39.9082L163.15 37.2356V37.2356L157.688 39.9082ZM141.956 39.9082L147.418 42.5808V42.5808L141.956 39.9082ZM172.622 70.4309L167.159 73.1035C167.909 74.6356 169.268 75.7825 170.904 76.2643L172.622 70.4309ZM190.573 78.2096L187.493 83.453C189.881 84.8556 192.915 84.4677 194.873 82.5095L190.573 78.2096ZM198.921 69.8615L203.221 74.1615C204.596 72.7861 205.231 70.8357 204.928 68.9143L198.921 69.8615ZM198.889 69.6451L204.911 68.8046L204.911 68.8045L198.889 69.6451ZM209.253 55.9186L208.413 49.8959L209.253 55.9186ZM212.615 80.0094L211.775 73.9867L212.615 80.0094ZM209.202 80.0053L210.065 73.9858C208.169 73.714 206.256 74.3512 204.902 75.7054L209.202 80.0053ZM202.47 86.7373L198.17 82.4373C196.975 83.6322 196.331 85.2703 196.393 86.9589C196.454 88.6475 197.216 90.2344 198.495 91.339L202.47 86.7373ZM229.226 133.978L223.233 135.009C223.673 137.562 225.681 139.557 228.238 139.978C230.794 140.4 233.337 139.155 234.572 136.877L229.226 133.978ZM235.946 125.604L231.915 121.051L235.946 125.604ZM265.583 122.95L270.136 118.918V118.918L265.583 122.95ZM265.788 144.21L260.506 141.196C259.23 143.432 259.5 146.229 261.181 148.18L265.788 144.21ZM269.517 178.871L273.549 183.424L269.517 178.871ZM235.177 170.552L239.73 166.52L239.73 166.52L235.177 170.552ZM229.191 161.693L234.646 159.006C233.483 156.645 230.933 155.3 228.328 155.673C225.723 156.047 223.654 158.054 223.201 160.647L229.191 161.693ZM69.9257 158.235L75.9559 157.45C75.5945 154.673 73.384 152.502 70.6014 152.191C67.8188 151.88 65.1834 153.509 64.2177 156.137L69.9257 158.235ZM62.4544 170.552L57.9019 166.52H57.9019L62.4544 170.552ZM28.1142 178.871L24.0825 183.424H24.0825L28.1142 178.871ZM31.8439 144.21L36.4505 148.18C38.1312 146.229 38.4015 143.432 37.1254 141.196L31.8439 144.21ZM32.0482 122.95L36.6007 126.981H36.6007L32.0482 122.95ZM61.6851 125.604L57.6534 130.156H57.6534L61.6851 125.604ZM69.9197 137.279L64.2306 139.427C65.2163 142.038 67.8523 143.643 70.624 143.319C73.3958 142.996 75.5918 140.828 75.9504 138.061L69.9197 137.279ZM97.8745 86.1388L101.797 90.7854C103.098 89.6876 103.878 88.0952 103.95 86.3949C104.022 84.6947 103.378 83.0422 102.174 81.8388L97.8745 86.1388ZM90.1926 78.457L94.4926 74.157C93.1173 72.7817 91.1672 72.1472 89.246 72.45L90.1926 78.457ZM89.9761 78.4891L89.1357 72.4664L89.1356 72.4664L89.9761 78.4891ZM76.2497 68.1248L70.227 68.9653V68.9653L76.2497 68.1248ZM86.614 54.3983L85.7734 48.3756H85.7734L86.614 54.3983ZM100.34 64.7627L94.3177 65.6032V65.6032L100.34 64.7627ZM100.336 68.1759L94.3169 67.3129C94.0451 69.2086 94.6822 71.1216 96.0364 72.4758L100.336 68.1759ZM109.893 77.7329L105.593 82.0328C107.533 83.9721 110.53 84.3733 112.911 83.0123L109.893 77.7329ZM127.022 70.4309L128.74 76.2643C130.376 75.7825 131.735 74.6356 132.484 73.1035L127.022 70.4309ZM163.15 37.2356C157.724 26.1467 141.919 26.1467 136.494 37.2356L147.418 42.5808C148.397 40.5812 151.247 40.5811 152.225 42.5808L163.15 37.2356ZM178.084 67.7583L163.15 37.2356L152.225 42.5808L167.159 73.1035L178.084 67.7583ZM193.653 72.9662C187.643 69.4357 181.167 66.608 174.339 64.5975L170.904 76.2643C176.765 77.9902 182.327 80.4185 187.493 83.453L193.653 72.9662ZM194.621 65.5615L186.273 73.9096L194.873 82.5095L203.221 74.1615L194.621 65.5615ZM204.928 68.9143C204.922 68.8785 204.917 68.8419 204.911 68.8046L192.866 70.4856C192.881 70.593 192.897 70.7007 192.914 70.8087L204.928 68.9143ZM204.911 68.8045C204.447 65.4783 206.767 62.4055 210.094 61.9413L208.413 49.8959C198.434 51.2886 191.473 60.5069 192.866 70.4856L204.911 68.8045ZM210.094 61.9413C213.42 61.4771 216.493 63.7972 216.957 67.1235L229.002 65.4424C227.61 55.4637 218.391 48.5033 208.413 49.8959L210.094 61.9413ZM216.957 67.1235C217.421 70.4497 215.101 73.5225 211.775 73.9867L213.456 86.0321C223.434 84.6395 230.395 75.4211 229.002 65.4424L216.957 67.1235ZM211.775 73.9867C211.184 74.0691 210.611 74.0642 210.065 73.9858L208.339 86.0248C210.004 86.2635 211.723 86.2739 213.456 86.0321L211.775 73.9867ZM206.77 91.0373L213.502 84.3053L204.902 75.7054L198.17 82.4373L206.77 91.0373ZM235.219 132.947C231.746 112.753 221.29 94.9598 206.445 82.1356L198.495 91.339C211.275 102.38 220.252 117.676 223.233 135.009L235.219 132.947ZM231.915 121.051C228.553 124.028 225.847 127.454 223.881 131.079L234.572 136.877C235.844 134.532 237.651 132.217 239.978 130.156L231.915 121.051ZM270.136 118.918C265.319 113.479 258.292 111.586 251.51 112.193C244.725 112.801 237.737 115.895 231.915 121.051L239.978 130.156C244.056 126.544 248.653 124.66 252.595 124.307C256.539 123.954 259.38 125.117 261.031 126.981L270.136 118.918ZM271.069 147.224C276.122 138.371 277.216 126.913 270.136 118.918L261.031 126.981C263.392 129.648 264.069 134.953 260.506 141.196L271.069 147.224ZM273.549 183.424C279.553 178.107 281.472 170.234 280.647 162.621C279.82 154.986 276.236 147.02 270.394 140.24L261.181 148.18C265.621 153.332 268.026 159.043 268.556 163.931C269.087 168.838 267.73 172.331 265.486 174.319L273.549 183.424ZM230.625 174.583C236.655 181.392 244.202 186.057 251.766 187.89C259.305 189.716 267.471 188.807 273.549 183.424L265.486 174.319C263.215 176.329 259.52 177.254 254.63 176.07C249.765 174.891 244.317 171.7 239.73 166.52L230.625 174.583ZM223.736 164.38C225.485 167.93 227.792 171.385 230.625 174.583L239.73 166.52C237.601 164.117 235.906 161.563 234.646 159.006L223.736 164.38ZM149.822 234.389C192.566 234.389 228.072 203.446 235.182 162.739L223.201 160.647C217.09 195.633 186.555 222.227 149.822 222.227V234.389ZM63.8955 159.019C69.4305 201.548 105.786 234.389 149.822 234.389V222.227C111.975 222.227 80.7126 193.998 75.9559 157.45L63.8955 159.019ZM67.0068 174.583C70.9009 170.186 73.8094 165.297 75.6336 160.332L64.2177 156.137C62.938 159.62 60.8345 163.209 57.9019 166.52L67.0068 174.583ZM24.0825 183.424C30.1607 188.807 38.3265 189.716 45.8654 187.89C53.4295 186.057 60.977 181.392 67.0068 174.583L57.9019 166.52C53.3147 171.7 47.8662 174.891 43.0016 176.07C38.1118 177.254 34.4161 176.329 32.1459 174.319L24.0825 183.424ZM27.2373 140.24C21.3952 147.02 17.8116 154.986 16.9846 162.621C16.1597 170.234 18.0784 178.107 24.0825 183.424L32.1459 174.319C29.9015 172.331 28.5443 168.838 29.076 163.931C29.6054 159.043 32.0109 153.332 36.4505 148.18L27.2373 140.24ZM27.4958 118.918C20.4155 126.913 21.5095 138.371 26.5624 147.224L37.1254 141.196C33.5622 134.953 34.2392 129.648 36.6007 126.981L27.4958 118.918ZM65.7168 121.051C59.8942 115.895 52.9061 112.801 46.1215 112.193C39.3394 111.586 32.3122 113.479 27.4958 118.918L36.6007 126.981C38.2514 125.117 41.0922 123.954 45.0366 124.307C48.9784 124.66 53.5752 126.544 57.6534 130.156L65.7168 121.051ZM75.6088 135.131C73.6755 130.011 70.2964 125.107 65.7168 121.051L57.6534 130.156C60.8372 132.976 63.0335 136.257 64.2306 139.427L75.6088 135.131ZM93.9517 81.4922C77.8343 95.099 66.7393 114.499 63.889 136.498L75.9504 138.061C78.397 119.177 87.9212 102.5 101.797 90.7854L93.9517 81.4922ZM85.8927 82.7569L93.5745 90.4388L102.174 81.8388L94.4926 74.157L85.8927 82.7569ZM90.8165 84.5118C90.9246 84.4968 91.0322 84.4808 91.1393 84.4639L89.246 72.45C89.2092 72.4558 89.1725 72.4613 89.1357 72.4664L90.8165 84.5118ZM70.227 68.9653C71.6196 78.9441 80.8379 85.9045 90.8167 84.5118L89.1356 72.4664C85.8093 72.9306 82.7366 70.6105 82.2724 67.2843L70.227 68.9653ZM85.7734 48.3756C75.7947 49.7683 68.8343 58.9866 70.227 68.9653L82.2724 67.2843C81.8081 63.958 84.1283 60.8853 87.4545 60.421L85.7734 48.3756ZM106.363 63.9221C104.97 53.9434 95.7522 46.983 85.7734 48.3756L87.4545 60.421C90.7808 59.9568 93.8535 62.277 94.3177 65.6032L106.363 63.9221ZM106.356 69.0389C106.595 67.3741 106.605 65.6545 106.363 63.9221L94.3177 65.6032C94.4002 66.1939 94.3952 66.7665 94.3169 67.3129L106.356 69.0389ZM114.193 73.4329L104.636 63.8759L96.0364 72.4758L105.593 82.0328L114.193 73.4329ZM125.304 64.5975C118.811 66.5097 112.635 69.1612 106.876 72.4535L112.911 83.0123C117.861 80.1828 123.165 77.9059 128.74 76.2643L125.304 64.5975ZM136.494 37.2356L121.56 67.7583L132.484 73.1035L147.418 42.5808L136.494 37.2356Z" fill="#424242" mask="url(#path-3-outside-2_60_392)"/>
<ellipse cx="49.9772" cy="138.826" rx="17.662" ry="23.9467" transform="rotate(-48.4714 49.9772 138.826)" fill="white"/>
<ellipse cx="47.3402" cy="157.164" rx="20.1919" ry="28.9958" transform="rotate(-138.471 47.3402 157.164)" fill="white"/>
<ellipse cx="17.662" cy="23.9467" rx="17.662" ry="23.9467" transform="matrix(-0.662993 -0.748625 -0.748625 0.662993 277.295 136.171)" fill="white"/>
<ellipse cx="20.1919" cy="28.9958" rx="20.1919" ry="28.9958" transform="matrix(0.748625 -0.662993 -0.662993 -0.748625 254.404 192.258)" fill="white"/>
<ellipse cx="49.9772" cy="138.826" rx="17.662" ry="23.9467" transform="rotate(-48.4714 49.9772 138.826)" fill="url(#paint0_linear_60_392)" fill-opacity="0.5"/>
<ellipse cx="47.3402" cy="157.164" rx="20.1919" ry="28.9958" transform="rotate(-138.471 47.3402 157.164)" fill="url(#paint1_linear_60_392)" fill-opacity="0.5"/>
<ellipse cx="17.662" cy="23.9467" rx="17.662" ry="23.9467" transform="matrix(-0.662993 -0.748625 -0.748625 0.662993 277.295 136.171)" fill="url(#paint2_linear_60_392)" fill-opacity="0.5"/>
<ellipse cx="20.1919" cy="28.9958" rx="20.1919" ry="28.9958" transform="matrix(0.748625 -0.662993 -0.662993 -0.748625 254.404 192.258)" fill="url(#paint3_linear_60_392)" fill-opacity="0.5"/>
<path fill-rule="evenodd" clip-rule="evenodd" d="M157.69 39.9082C154.488 33.3639 145.16 33.3639 141.958 39.9082L127.024 70.4309C93.6279 80.2653 69.25 111.153 69.25 147.734C69.25 192.234 105.324 228.308 149.824 228.308C194.324 228.308 230.398 192.234 230.398 147.734C230.398 111.153 206.02 80.2653 172.624 70.4309L157.69 39.9082Z" fill="url(#paint4_linear_60_392)"/>
<g filter="url(#filter0_i_60_392)">
<g filter="url(#filter1_d_60_392)">
<rect x="169.587" y="113.528" width="12.9223" height="42.5675" rx="6.46113" fill="url(#paint5_linear_60_392)"/>
</g>
<g filter="url(#filter2_d_60_392)">
<rect x="117.138" y="113.528" width="12.9223" height="42.5675" rx="6.46113" fill="url(#paint6_linear_60_392)"/>
</g>
</g>
<g filter="url(#filter3_i_60_392)">
<path fill-rule="evenodd" clip-rule="evenodd" d="M122.832 172.144C123.552 172.176 124.282 172.192 125.019 172.192C138.602 172.192 149.612 166.687 149.612 159.896H149.612C149.612 166.687 160.623 172.192 174.205 172.192C175.327 172.192 176.432 172.155 177.514 172.082C176.702 186.479 164.771 197.903 150.171 197.903C135.592 197.903 123.674 186.512 122.832 172.144Z" fill="#EF71EA"/>
</g>
<g filter="url(#filter4_d_60_392)">
<ellipse cx="106.765" cy="159.684" rx="13.6824" ry="7.22127" transform="rotate(27.416 106.765 159.684)" fill="#FF96FB"/>
</g>
<g filter="url(#filter5_d_60_392)">
<ellipse cx="191.128" cy="160.069" rx="13.6824" ry="7.22127" transform="rotate(-30 191.128 160.069)" fill="#FF96FB"/>
</g>
<path fill-rule="evenodd" clip-rule="evenodd" d="M91.6187 59.456L81.4062 69.6685L117.956 106.218L117.963 106.211C118.047 106.305 118.135 106.397 118.225 106.487C121.045 109.307 125.617 109.307 128.437 106.487C131.257 103.667 131.257 99.0946 128.437 96.2745C128.347 96.1843 128.255 96.097 128.161 96.0126L128.168 96.0057L91.6187 59.456Z" fill="url(#paint7_linear_60_392)"/>
<path fill-rule="evenodd" clip-rule="evenodd" d="M217.924 71.2857L207.711 61.0732L171.162 97.6229L171.169 97.6299C171.075 97.7143 170.983 97.8015 170.893 97.8917C168.073 100.712 168.073 105.284 170.893 108.104C173.713 110.924 178.285 110.924 181.105 108.104C181.196 108.014 181.283 107.922 181.367 107.828L181.374 107.835L217.924 71.2857Z" fill="url(#paint8_linear_60_392)"/>
<path fill-rule="evenodd" clip-rule="evenodd" d="M91.6187 59.456L81.4062 69.6685L117.956 106.218L117.963 106.211C118.047 106.305 118.135 106.397 118.225 106.487C121.045 109.307 125.617 109.307 128.437 106.487C131.257 103.667 131.257 99.0946 128.437 96.2745C128.347 96.1843 128.255 96.097 128.161 96.0126L128.168 96.0057L91.6187 59.456Z" fill="url(#paint9_linear_60_392)"/>
<path fill-rule="evenodd" clip-rule="evenodd" d="M217.924 71.2857L207.711 61.0732L171.162 97.6229L171.169 97.6299C171.075 97.7143 170.983 97.8015 170.893 97.8917C168.073 100.712 168.073 105.284 170.893 108.104C173.713 110.924 178.285 110.924 181.105 108.104C181.196 108.014 181.283 107.922 181.367 107.828L181.374 107.835L217.924 71.2857Z" fill="url(#paint10_linear_60_392)"/>
<circle cx="88.2973" cy="66.4439" r="12.1621" transform="rotate(-7.94497 88.2973 66.4439)" fill="#8F37FF"/>
<circle cx="210.936" cy="67.9638" r="12.1621" transform="rotate(82.055 210.936 67.9638)" fill="#8F37FF"/>
<path fill-rule="evenodd" clip-rule="evenodd" d="M172.155 186.814C167.165 193.542 159.164 197.902 150.144 197.902C140.909 197.902 132.741 193.331 127.78 186.328C131.67 181.039 140.066 177.379 149.797 177.379C159.823 177.379 168.433 181.265 172.155 186.814Z" fill="#FEB3FB"/>
<ellipse cx="117.518" cy="127.971" rx="2.66047" ry="6.08107" fill="white"/>
<ellipse cx="169.968" cy="127.971" rx="2.66047" ry="6.08107" fill="white"/>
<defs>
<filter id="filter0_i_60_392" x="117.138" y="113.528" width="65.3716" height="48.6484" filterUnits="userSpaceOnUse" color-interpolation-filters="sRGB">
<feFlood flood-opacity="0" result="BackgroundImageFix"/>
<feBlend mode="normal" in="SourceGraphic" in2="BackgroundImageFix" result="shape"/>
<feColorMatrix in="SourceAlpha" type="matrix" values="0 0 0 0 0 0 0 0 0 0 0 0 0 0 0 0 0 0 127 0" result="hardAlpha"/>
<feOffset dy="6.08107"/>
<feGaussianBlur stdDeviation="3.04053"/>
<feComposite in2="hardAlpha" operator="arithmetic" k2="-1" k3="1"/>
<feColorMatrix type="matrix" values="0 0 0 0 0 0 0 0 0 0 0 0 0 0 0 0 0 0 0.25 0"/>
<feBlend mode="normal" in2="shape" result="effect1_innerShadow_60_392"/>
</filter>
<filter id="filter1_d_60_392" x="166.547" y="113.528" width="19.0034" height="48.6484" filterUnits="userSpaceOnUse" color-interpolation-filters="sRGB">
<feFlood flood-opacity="0" result="BackgroundImageFix"/>
<feColorMatrix in="SourceAlpha" type="matrix" values="0 0 0 0 0 0 0 0 0 0 0 0 0 0 0 0 0 0 127 0" result="hardAlpha"/>
<feOffset dy="3.04053"/>
<feGaussianBlur stdDeviation="1.52027"/>
<feComposite in2="hardAlpha" operator="out"/>
<feColorMatrix type="matrix" values="0 0 0 0 0 0 0 0 0 0 0 0 0 0 0 0 0 0 0.25 0"/>
<feBlend mode="normal" in2="BackgroundImageFix" result="effect1_dropShadow_60_392"/>
<feBlend mode="normal" in="SourceGraphic" in2="effect1_dropShadow_60_392" result="shape"/>
</filter>
<filter id="filter2_d_60_392" x="114.098" y="113.528" width="19.0034" height="48.6484" filterUnits="userSpaceOnUse" color-interpolation-filters="sRGB">
<feFlood flood-opacity="0" result="BackgroundImageFix"/>
<feColorMatrix in="SourceAlpha" type="matrix" values="0 0 0 0 0 0 0 0 0 0 0 0 0 0 0 0 0 0 127 0" result="hardAlpha"/>
<feOffset dy="3.04053"/>
<feGaussianBlur stdDeviation="1.52027"/>
<feComposite in2="hardAlpha" operator="out"/>
<feColorMatrix type="matrix" values="0 0 0 0 0 0 0 0 0 0 0 0 0 0 0 0 0 0 0.25 0"/>
<feBlend mode="normal" in2="BackgroundImageFix" result="effect1_dropShadow_60_392"/>
<feBlend mode="normal" in="SourceGraphic" in2="effect1_dropShadow_60_392" result="shape"/>
</filter>
<filter id="filter3_i_60_392" x="122.832" y="159.896" width="54.6826" height="41.0474" filterUnits="userSpaceOnUse" color-interpolation-filters="sRGB">
<feFlood flood-opacity="0" result="BackgroundImageFix"/>
<feBlend mode="normal" in="SourceGraphic" in2="BackgroundImageFix" result="shape"/>
<feColorMatrix in="SourceAlpha" type="matrix" values="0 0 0 0 0 0 0 0 0 0 0 0 0 0 0 0 0 0 127 0" result="hardAlpha"/>
<feOffset dy="3.04053"/>
<feGaussianBlur stdDeviation="1.52027"/>
<feComposite in2="hardAlpha" operator="arithmetic" k2="-1" k3="1"/>
<feColorMatrix type="matrix" values="0 0 0 0 0.8375 0 0 0 0 0.0907292 0 0 0 0 0.493985 0 0 0 0.25 0"/>
<feBlend mode="normal" in2="shape" result="effect1_innerShadow_60_392"/>
</filter>
<filter id="filter4_d_60_392" x="91.1284" y="150.696" width="31.2725" height="24.0571" filterUnits="userSpaceOnUse" color-interpolation-filters="sRGB">
<feFlood flood-opacity="0" result="BackgroundImageFix"/>
<feColorMatrix in="SourceAlpha" type="matrix" values="0 0 0 0 0 0 0 0 0 0 0 0 0 0 0 0 0 0 127 0" result="hardAlpha"/>
<feOffset dy="3.04053"/>
<feGaussianBlur stdDeviation="1.52027"/>
<feComposite in2="hardAlpha" operator="out"/>
<feColorMatrix type="matrix" values="0 0 0 0 0.561333 0 0 0 0 0.216667 0 0 0 0 1 0 0 0 0.5 0"/>
<feBlend mode="normal" in2="BackgroundImageFix" result="effect1_dropShadow_60_392"/>
<feBlend mode="normal" in="SourceGraphic" in2="effect1_dropShadow_60_392" result="shape"/>
</filter>
<filter id="filter5_d_60_392" x="175.697" y="150.8" width="30.8623" height="24.6192" filterUnits="userSpaceOnUse" color-interpolation-filters="sRGB">
<feFlood flood-opacity="0" result="BackgroundImageFix"/>
<feColorMatrix in="SourceAlpha" type="matrix" values="0 0 0 0 0 0 0 0 0 0 0 0 0 0 0 0 0 0 127 0" result="hardAlpha"/>
<feOffset dy="3.04053"/>
<feGaussianBlur stdDeviation="1.52027"/>
<feComposite in2="hardAlpha" operator="out"/>
<feColorMatrix type="matrix" values="0 0 0 0 0.561333 0 0 0 0 0.216667 0 0 0 0 1 0 0 0 0.5 0"/>
<feBlend mode="normal" in2="BackgroundImageFix" result="effect1_dropShadow_60_392"/>
<feBlend mode="normal" in="SourceGraphic" in2="effect1_dropShadow_60_392" result="shape"/>
</filter>
<linearGradient id="paint0_linear_60_392" x1="49.9772" y1="114.879" x2="49.9772" y2="162.772" gradientUnits="userSpaceOnUse">
<stop stop-color="#8F37FF"/>
<stop offset="1" stop-color="white"/>
</linearGradient>
<linearGradient id="paint1_linear_60_392" x1="47.3402" y1="128.168" x2="47.3402" y2="186.16" gradientUnits="userSpaceOnUse">
<stop stop-color="#8F37FF"/>
<stop offset="1" stop-color="white"/>
</linearGradient>
<linearGradient id="paint2_linear_60_392" x1="17.662" y1="0" x2="17.662" y2="47.8934" gradientUnits="userSpaceOnUse">
<stop stop-color="#8F37FF"/>
<stop offset="1" stop-color="white"/>
</linearGradient>
<linearGradient id="paint3_linear_60_392" x1="20.1919" y1="0" x2="20.1919" y2="57.9915" gradientUnits="userSpaceOnUse">
<stop stop-color="#8F37FF"/>
<stop offset="1" stop-color="white"/>
</linearGradient>
<linearGradient id="paint4_linear_60_392" x1="149.824" y1="35" x2="149.824" y2="246.551" gradientUnits="userSpaceOnUse">
<stop offset="0.322917" stop-color="#F7FFE1"/>
<stop offset="1" stop-color="#8BFFA5"/>
</linearGradient>
<linearGradient id="paint5_linear_60_392" x1="176.049" y1="113.528" x2="176.049" y2="156.095" gradientUnits="userSpaceOnUse">
<stop offset="0.489583" stop-color="#A97575"/>
<stop offset="1" stop-color="#FEB3FB"/>
</linearGradient>
<linearGradient id="paint6_linear_60_392" x1="123.599" y1="113.528" x2="123.599" y2="156.095" gradientUnits="userSpaceOnUse">
<stop offset="0.489583" stop-color="#A97575"/>
<stop offset="1" stop-color="#FEB3FB"/>
</linearGradient>
<linearGradient id="paint7_linear_60_392" x1="86.5125" y1="64.5623" x2="132.394" y2="110.443" gradientUnits="userSpaceOnUse">
<stop offset="0.322917" stop-color="#F7FFE1"/>
<stop offset="1" stop-color="#8BFFA5"/>
</linearGradient>
<linearGradient id="paint8_linear_60_392" x1="212.818" y1="66.1794" x2="166.936" y2="112.061" gradientUnits="userSpaceOnUse">
<stop offset="0.322917" stop-color="#F7FFE1"/>
<stop offset="1" stop-color="#8BFFA5"/>
</linearGradient>
<linearGradient id="paint9_linear_60_392" x1="86.5125" y1="64.5623" x2="128.437" y2="106.487" gradientUnits="userSpaceOnUse">
<stop offset="0.161458" stop-color="#8F37FF"/>
<stop offset="0.963542" stop-color="#CA96FF"/>
</linearGradient>
<linearGradient id="paint10_linear_60_392" x1="212.818" y1="66.1794" x2="170.893" y2="108.104" gradientUnits="userSpaceOnUse">
<stop offset="0.161458" stop-color="#8F37FF"/>
<stop offset="0.963542" stop-color="#CA96FF"/>
</linearGradient>
</defs>
</svg>
