<svg width="344" height="82" viewBox="0 0 344 82" fill="none" xmlns="http://www.w3.org/2000/svg">
<path d="M138.643 45.4516C137.204 45.4516 136.134 44.9833 135.431 44.0465C134.729 43.1098 134.511 41.7883 134.779 40.0821L138.392 17.1485H131.266C129.995 17.1485 129.008 16.8809 128.305 16.3456C127.603 15.7768 127.251 15.0241 127.251 14.0873C127.251 12.6822 127.653 11.5949 128.456 10.8255C129.259 10.0225 130.363 9.62106 131.768 9.62106H156.006C157.277 9.62106 158.248 9.8887 158.917 10.424C159.619 10.9593 159.971 11.6953 159.971 12.632C159.971 14.0372 159.569 15.1412 158.766 15.9441C157.997 16.747 156.909 17.1485 155.504 17.1485H147.626L143.862 40.885C143.628 42.3905 143.076 43.528 142.206 44.2974C141.369 45.0669 140.182 45.4516 138.643 45.4516ZM162.558 45.4516C161.086 45.4516 160.015 44.9833 159.346 44.0465C158.677 43.1098 158.476 41.7716 158.744 40.0319L162.859 14.1877C163.093 12.6488 163.662 11.5113 164.565 10.7753C165.468 10.0058 166.689 9.62106 168.228 9.62106H178.767C182.815 9.62106 185.909 10.5244 188.051 12.3309C190.225 14.1041 191.312 16.563 191.312 19.7078C191.312 22.4846 190.71 24.7596 189.506 26.5327C188.302 28.3058 186.645 29.6106 184.538 30.447C182.43 31.2833 180.021 31.7015 177.311 31.7015V30.7982H179.168C180.908 30.7982 182.313 31.2666 183.384 32.2034C184.454 33.1401 185.307 34.4281 185.943 36.0674L187.298 39.6304C187.8 40.8348 187.984 41.8719 187.85 42.7418C187.716 43.6116 187.281 44.2807 186.545 44.7491C185.809 45.2175 184.789 45.4516 183.484 45.4516C182.246 45.4516 181.242 45.1338 180.473 44.4982C179.737 43.8625 179.118 42.8589 178.616 41.4872L175.906 34.3612C175.572 33.4245 175.12 32.7721 174.551 32.4041C174.016 32.0026 173.263 31.8019 172.293 31.8019H169.282L167.877 40.885C167.643 42.4239 167.074 43.5782 166.171 44.3476C165.268 45.0836 164.063 45.4516 162.558 45.4516ZM170.286 25.2781H176.96C178.767 25.2781 180.138 24.8934 181.075 24.1239C182.045 23.321 182.53 22.1333 182.53 20.5609C182.53 19.2562 182.096 18.286 181.226 17.6503C180.389 17.0147 179.051 16.6969 177.211 16.6969H171.641L170.286 25.2781ZM198.09 45.4516C196.518 45.4516 195.397 44.9833 194.728 44.0465C194.092 43.1098 193.908 41.7716 194.176 40.0319L198.341 13.7361C198.575 12.1971 199.127 11.0596 199.997 10.3236C200.867 9.55415 202.071 9.16942 203.61 9.16942C205.149 9.16942 206.236 9.63779 206.872 10.5745C207.541 11.5113 207.725 12.8495 207.424 14.5892L203.259 40.8348C203.025 42.4072 202.489 43.5782 201.653 44.3476C200.817 45.0836 199.629 45.4516 198.09 45.4516ZM224.663 45.4516C223.358 45.4516 222.304 45.1338 221.501 44.4982C220.698 43.8625 220.113 42.8923 219.745 41.5876L211.916 15.2917C211.615 14.1542 211.582 13.1673 211.816 12.3309C212.084 11.4946 212.569 10.8422 213.271 10.3738C214.007 9.87198 214.877 9.62106 215.881 9.62106C217.018 9.62106 217.972 9.90543 218.741 10.4742C219.511 11.0429 220.096 12.0968 220.498 13.6357L226.67 36.4187H223.91L237.811 12.8328C238.48 11.6953 239.183 10.8756 239.919 10.3738C240.688 9.87198 241.658 9.62106 242.829 9.62106C244.067 9.62106 245.02 9.92216 245.69 10.5244C246.392 11.0931 246.794 11.8291 246.894 12.7324C246.994 13.6357 246.743 14.5724 246.141 15.5426L229.731 42.3403C229.062 43.4443 228.343 44.2473 227.574 44.7491C226.804 45.2175 225.834 45.4516 224.663 45.4516ZM250.968 45.4516C249.396 45.4516 248.275 44.9833 247.606 44.0465C246.97 43.1098 246.786 41.7716 247.054 40.0319L251.219 13.7361C251.453 12.1971 252.005 11.0596 252.875 10.3236C253.745 9.55415 254.949 9.16942 256.488 9.16942C258.027 9.16942 259.115 9.63779 259.75 10.5745C260.419 11.5113 260.603 12.8495 260.302 14.5892L256.137 40.8348C255.903 42.4072 255.368 43.5782 254.531 44.3476C253.695 45.0836 252.507 45.4516 250.968 45.4516ZM263.992 45.4516C262.888 45.4516 261.968 45.2175 261.232 44.7491C260.529 44.2807 260.111 43.6451 259.977 42.8421C259.843 42.0392 260.078 41.1526 260.68 40.1824L278.143 12.2306C278.812 11.1265 279.532 10.3403 280.301 9.87198C281.104 9.4036 282.125 9.16942 283.362 9.16942C284.6 9.16942 285.621 9.48724 286.424 10.1229C287.226 10.7251 287.812 11.6618 288.18 12.9331L296.46 40.0319C296.828 41.2028 296.895 42.2065 296.661 43.0429C296.427 43.8458 295.975 44.448 295.306 44.8495C294.637 45.2509 293.834 45.4516 292.897 45.4516C291.559 45.4516 290.539 45.1505 289.836 44.5484C289.167 43.9127 288.632 42.8923 288.23 41.4872L286.825 35.9671L289.384 37.8238H269.311L272.423 36.1678L268.458 42.8923C267.99 43.7287 267.388 44.3644 266.652 44.7993C265.915 45.2342 265.029 45.4516 263.992 45.4516ZM282.359 19.2562L274.58 32.4041L273.476 30.7481H287.528L285.972 32.6048L282.459 19.2562H282.359ZM128.28 72.2729C127.279 72.2729 126.574 72 126.165 71.4541C125.778 70.9083 125.642 70.1577 125.756 69.2025L128.758 50.2679C128.917 49.3809 129.247 48.7213 129.747 48.2892C130.27 47.8571 130.964 47.641 131.828 47.641C132.602 47.641 133.216 47.8116 133.67 48.1527C134.125 48.4711 134.512 49.0397 134.83 49.8585L139.88 62.7886H138.856L148.375 49.415C148.829 48.7782 149.307 48.3233 149.807 48.0504C150.331 47.7774 150.979 47.641 151.752 47.641C152.707 47.641 153.412 47.9139 153.867 48.4598C154.345 48.9829 154.504 49.7334 154.345 50.7114L151.343 69.646C151.206 70.5103 150.876 71.1698 150.353 71.6247C149.83 72.0569 149.125 72.2729 148.238 72.2729C147.306 72.2729 146.623 72 146.191 71.4541C145.759 70.9083 145.611 70.1577 145.748 69.2025L147.59 57.5006H148.375L141.244 67.4284C140.903 67.906 140.551 68.2472 140.187 68.4519C139.823 68.6566 139.368 68.759 138.822 68.759C138.231 68.759 137.764 68.6225 137.423 68.3496C137.082 68.0766 136.775 67.6559 136.502 67.0873L132.511 57.7053H133.261L131.351 69.646C131.214 70.5103 130.884 71.1698 130.361 71.6247C129.861 72.0569 129.167 72.2729 128.28 72.2729ZM168.052 72.3753C165.755 72.3753 163.754 71.9545 162.048 71.113C160.342 70.2487 159.012 69.0205 158.056 67.4284C157.124 65.8136 156.658 63.869 156.658 61.5945C156.658 59.5248 156.965 57.6371 157.579 55.9312C158.216 54.2027 159.103 52.7129 160.24 51.462C161.4 50.2111 162.776 49.2558 164.368 48.5962C165.983 47.9139 167.768 47.5728 169.724 47.5728C172.044 47.5728 174.057 48.0049 175.763 48.8692C177.469 49.7107 178.788 50.9389 179.72 52.5537C180.653 54.1458 181.119 56.0677 181.119 58.3194C181.119 60.4118 180.812 62.3224 180.198 64.0509C179.584 65.7567 178.697 67.2351 177.537 68.486C176.377 69.737 174.989 70.7036 173.375 71.3859C171.783 72.0455 170.008 72.3753 168.052 72.3753ZM168.121 67.1214C169.508 67.1214 170.679 66.7575 171.635 66.0297C172.59 65.3018 173.329 64.2897 173.852 62.9933C174.375 61.6741 174.637 60.1617 174.637 58.4558C174.637 56.5453 174.182 55.1352 173.272 54.2254C172.385 53.2929 171.168 52.8267 169.622 52.8267C168.28 52.8267 167.12 53.1906 166.142 53.9184C165.187 54.6462 164.448 55.6583 163.924 56.9547C163.424 58.2511 163.174 59.7636 163.174 61.4922C163.174 63.38 163.617 64.7901 164.504 65.7226C165.391 66.6551 166.597 67.1214 168.121 67.1214ZM186.054 72.307C185.053 72.307 184.325 71.9886 183.87 71.3518C183.415 70.715 183.279 69.8052 183.461 68.6225L186.258 51.0526C186.418 50.0064 186.804 49.2331 187.418 48.7327C188.032 48.2096 188.863 47.948 189.909 47.948H197.073C199.825 47.948 201.929 48.5621 203.385 49.7903C204.863 50.9957 205.602 52.6674 205.602 54.8054C205.602 56.6932 205.193 58.2398 204.374 59.4452C203.555 60.6507 202.429 61.5377 200.997 62.1063C199.564 62.6749 197.926 62.9592 196.084 62.9592V62.3451H197.346C198.529 62.3451 199.484 62.6635 200.212 63.3004C200.94 63.9372 201.52 64.8128 201.952 65.9273L202.873 68.3496C203.214 69.1683 203.339 69.8734 203.248 70.4648C203.157 71.0561 202.862 71.511 202.361 71.8294C201.861 72.1478 201.167 72.307 200.28 72.307C199.439 72.307 198.756 72.091 198.233 71.6588C197.733 71.2267 197.312 70.5444 196.971 69.6119L195.129 64.7674C194.901 64.1305 194.594 63.687 194.207 63.4368C193.844 63.1639 193.332 63.0274 192.672 63.0274H190.625L189.67 69.2025C189.511 70.2487 189.124 71.0334 188.51 71.5565C187.896 72.0569 187.077 72.307 186.054 72.307ZM191.308 58.5923H195.845C197.073 58.5923 198.006 58.3307 198.643 57.8076C199.302 57.2618 199.632 56.4544 199.632 55.3854C199.632 54.4984 199.336 53.8388 198.745 53.4066C198.176 52.9745 197.267 52.7584 196.016 52.7584H192.229L191.308 58.5923ZM210.142 72.307C209.141 72.307 208.413 71.9886 207.958 71.3518C207.503 70.715 207.367 69.8166 207.549 68.6566L210.346 51.0526C210.505 50.0064 210.892 49.2331 211.506 48.7327C212.12 48.2096 212.939 47.948 213.963 47.948H220.991C223.902 47.948 226.074 48.5735 227.507 49.8244C228.962 51.0526 229.69 52.7471 229.69 54.9077C229.69 57.728 228.837 59.9001 227.131 61.424C225.426 62.9478 222.935 63.7097 219.66 63.7097H214.611L213.724 69.2025C213.565 70.2487 213.178 71.0334 212.564 71.5565C211.972 72.0569 211.165 72.307 210.142 72.307ZM215.361 58.8994H219.899C221.15 58.8994 222.094 58.6037 222.73 58.0123C223.39 57.421 223.72 56.5681 223.72 55.4536C223.72 54.5211 223.424 53.8388 222.833 53.4066C222.264 52.9745 221.366 52.7584 220.138 52.7584H216.317L215.361 58.8994ZM233.231 72.307C232.185 72.307 231.434 71.9886 230.979 71.3518C230.524 70.715 230.399 69.8052 230.604 68.6225L233.436 50.7456C233.595 49.6993 233.97 48.926 234.561 48.4257C235.153 47.9025 235.96 47.641 236.984 47.641C238.053 47.641 238.803 47.9708 239.235 48.6304C239.69 49.2672 239.815 50.1656 239.611 51.3255L238.689 57.2277H248.583L249.641 50.7456C249.8 49.6993 250.164 48.926 250.732 48.4257C251.324 47.9025 252.131 47.641 253.155 47.641C254.224 47.641 254.974 47.9594 255.406 48.5962C255.861 49.2331 255.986 50.1428 255.782 51.3255L252.95 69.1683C252.791 70.2373 252.416 71.0334 251.824 71.5565C251.256 72.0569 250.46 72.307 249.436 72.307C248.367 72.307 247.617 71.9886 247.184 71.3518C246.752 70.6922 246.627 69.7824 246.809 68.6225L247.764 62.3792H237.871L236.779 69.1683C236.62 70.2373 236.244 71.0334 235.653 71.5565C235.084 72.0569 234.277 72.307 233.231 72.307ZM269.535 72.3753C267.238 72.3753 265.236 71.9545 263.531 71.113C261.825 70.2487 260.494 69.0205 259.539 67.4284C258.606 65.8136 258.14 63.869 258.14 61.5945C258.14 59.5248 258.447 57.6371 259.061 55.9312C259.698 54.2027 260.585 52.7129 261.722 51.462C262.882 50.2111 264.258 49.2558 265.851 48.5962C267.465 47.9139 269.251 47.5728 271.207 47.5728C273.527 47.5728 275.54 48.0049 277.245 48.8692C278.951 49.7107 280.27 50.9389 281.203 52.5537C282.135 54.1458 282.602 56.0677 282.602 58.3194C282.602 60.4118 282.295 62.3224 281.68 64.0509C281.066 65.7567 280.179 67.2351 279.019 68.486C277.859 69.737 276.472 70.7036 274.857 71.3859C273.265 72.0455 271.491 72.3753 269.535 72.3753ZM269.603 67.1214C270.991 67.1214 272.162 66.7575 273.117 66.0297C274.073 65.3018 274.812 64.2897 275.335 62.9933C275.858 61.6741 276.12 60.1617 276.12 58.4558C276.12 56.5453 275.665 55.1352 274.755 54.2254C273.868 53.2929 272.651 52.8267 271.104 52.8267C269.763 52.8267 268.603 53.1906 267.625 53.9184C266.669 54.6462 265.93 55.6583 265.407 56.9547C264.907 58.2511 264.656 59.7636 264.656 61.4922C264.656 63.38 265.1 64.7901 265.987 65.7226C266.874 66.6551 268.079 67.1214 269.603 67.1214ZM293.882 72.3753C293.018 72.3753 292.119 72.3184 291.187 72.2047C290.277 72.091 289.378 71.8977 288.491 71.6247C287.604 71.3518 286.774 71.0334 286.001 70.6695C285.387 70.351 284.955 69.9417 284.705 69.4413C284.477 68.9182 284.397 68.3837 284.466 67.8378C284.557 67.292 284.761 66.8143 285.08 66.4049C285.421 65.9955 285.853 65.7226 286.376 65.5861C286.922 65.4497 287.536 65.5407 288.219 65.8591C289.242 66.3594 290.311 66.712 291.425 66.9167C292.563 67.1214 293.586 67.2237 294.496 67.2237C295.792 67.2237 296.782 67.019 297.464 66.6096C298.169 66.1775 298.522 65.643 298.522 65.0062C298.522 64.483 298.306 64.0509 297.873 63.7097C297.464 63.3458 296.804 63.0615 295.895 62.8568L291.971 61.9016C290.243 61.5149 288.867 60.7757 287.843 59.684C286.842 58.5923 286.342 57.239 286.342 55.6242C286.342 54.3278 286.615 53.1906 287.161 52.2126C287.707 51.2118 288.457 50.3703 289.413 49.688C290.368 48.9829 291.46 48.4598 292.688 48.1186C293.916 47.7547 295.201 47.5728 296.543 47.5728C297.635 47.5728 298.817 47.6978 300.091 47.948C301.365 48.1982 302.581 48.6417 303.741 49.2786C304.287 49.5515 304.674 49.9268 304.901 50.4044C305.152 50.882 305.254 51.3824 305.208 51.9055C305.163 52.4059 304.97 52.8494 304.628 53.2361C304.31 53.6227 303.855 53.8843 303.264 54.0207C302.695 54.1344 302.013 54.0321 301.217 53.7137C300.512 53.3953 299.738 53.1564 298.897 52.9972C298.055 52.8153 297.259 52.7243 296.509 52.7243C295.667 52.7243 294.939 52.8267 294.325 53.0314C293.734 53.2133 293.279 53.4749 292.961 53.816C292.642 54.1572 292.483 54.5438 292.483 54.976C292.483 55.4991 292.676 55.9312 293.063 56.2724C293.45 56.6136 294.052 56.8865 294.871 57.0912L298.795 58.0123C300.66 58.4445 302.104 59.2178 303.127 60.3322C304.151 61.424 304.663 62.7431 304.663 64.2897C304.663 65.6544 304.367 66.8484 303.776 67.8719C303.207 68.8727 302.411 69.7142 301.387 70.3965C300.387 71.0561 299.238 71.5565 297.942 71.8977C296.645 72.2161 295.292 72.3753 293.882 72.3753ZM309.827 72.307C308.758 72.307 307.996 71.9886 307.541 71.3518C307.109 70.715 306.984 69.8052 307.166 68.6225L309.997 50.7456C310.156 49.6993 310.532 48.926 311.123 48.4257C311.714 47.9025 312.533 47.641 313.579 47.641C314.626 47.641 315.365 47.9594 315.797 48.5962C316.252 49.2331 316.377 50.1428 316.172 51.3255L313.341 69.1683C313.181 70.2373 312.818 71.0334 312.249 71.5565C311.68 72.0569 310.873 72.307 309.827 72.307ZM326.732 72.3753C325.868 72.3753 324.969 72.3184 324.037 72.2047C323.127 72.091 322.229 71.8977 321.342 71.6247C320.455 71.3518 319.624 71.0334 318.851 70.6695C318.237 70.351 317.805 69.9417 317.555 69.4413C317.327 68.9182 317.248 68.3837 317.316 67.8378C317.407 67.292 317.612 66.8143 317.93 66.4049C318.271 65.9955 318.703 65.7226 319.226 65.5861C319.772 65.4497 320.386 65.5407 321.069 65.8591C322.092 66.3594 323.161 66.712 324.276 66.9167C325.413 67.1214 326.436 67.2237 327.346 67.2237C328.643 67.2237 329.632 67.019 330.314 66.6096C331.019 66.1775 331.372 65.643 331.372 65.0062C331.372 64.483 331.156 64.0509 330.724 63.7097C330.314 63.3458 329.655 63.0615 328.745 62.8568L324.822 61.9016C323.093 61.5149 321.717 60.7757 320.693 59.684C319.693 58.5923 319.192 57.239 319.192 55.6242C319.192 54.3278 319.465 53.1906 320.011 52.2126C320.557 51.2118 321.308 50.3703 322.263 49.688C323.218 48.9829 324.31 48.4598 325.538 48.1186C326.766 47.7547 328.051 47.5728 329.393 47.5728C330.485 47.5728 331.668 47.6978 332.941 47.948C334.215 48.1982 335.432 48.6417 336.592 49.2786C337.138 49.5515 337.524 49.9268 337.752 50.4044C338.002 50.882 338.104 51.3824 338.059 51.9055C338.013 52.4059 337.82 52.8494 337.479 53.2361C337.16 53.6227 336.705 53.8843 336.114 54.0207C335.545 54.1344 334.863 54.0321 334.067 53.7137C333.362 53.3953 332.589 53.1564 331.747 52.9972C330.906 52.8153 330.11 52.7243 329.359 52.7243C328.517 52.7243 327.79 52.8267 327.176 53.0314C326.584 53.2133 326.129 53.4749 325.811 53.816C325.492 54.1572 325.333 54.5438 325.333 54.976C325.333 55.4991 325.527 55.9312 325.913 56.2724C326.3 56.6136 326.903 56.8865 327.721 57.0912L331.645 58.0123C333.51 58.4445 334.954 59.2178 335.978 60.3322C337.001 61.424 337.513 62.7431 337.513 64.2897C337.513 65.6544 337.217 66.8484 336.626 67.8719C336.057 68.8727 335.261 69.7142 334.238 70.3965C333.237 71.0561 332.088 71.5565 330.792 71.8977C329.495 72.2161 328.142 72.3753 326.732 72.3753Z" fill="#FF96FB" fill-opacity="0.2"/>
<path d="M134.252 45.4516C132.813 45.4516 131.743 44.9833 131.04 44.0465C130.338 43.1098 130.12 41.7883 130.388 40.0821L134.001 17.1485H126.875C125.604 17.1485 124.617 16.8809 123.914 16.3456C123.212 15.7768 122.86 15.0241 122.86 14.0873C122.86 12.6822 123.262 11.5949 124.065 10.8255C124.868 10.0225 125.972 9.62106 127.377 9.62106H151.615C152.887 9.62106 153.857 9.8887 154.526 10.424C155.228 10.9593 155.58 11.6953 155.58 12.632C155.58 14.0372 155.178 15.1412 154.375 15.9441C153.606 16.747 152.519 17.1485 151.113 17.1485H143.235L139.471 40.885C139.237 42.3905 138.685 43.528 137.815 44.2974C136.979 45.0669 135.791 45.4516 134.252 45.4516ZM158.167 45.4516C156.695 45.4516 155.624 44.9833 154.955 44.0465C154.286 43.1098 154.085 41.7716 154.353 40.0319L158.468 14.1877C158.702 12.6488 159.271 11.5113 160.174 10.7753C161.077 10.0058 162.299 9.62106 163.837 9.62106H174.376C178.424 9.62106 181.519 10.5244 183.66 12.3309C185.834 14.1041 186.922 16.563 186.922 19.7078C186.922 22.4846 186.319 24.7596 185.115 26.5327C183.911 28.3058 182.255 29.6106 180.147 30.447C178.039 31.2833 175.63 31.7015 172.921 31.7015V30.7982H174.777C176.517 30.7982 177.922 31.2666 178.993 32.2034C180.063 33.1401 180.916 34.4281 181.552 36.0674L182.907 39.6304C183.409 40.8348 183.593 41.8719 183.459 42.7418C183.325 43.6116 182.89 44.2807 182.154 44.7491C181.418 45.2175 180.398 45.4516 179.093 45.4516C177.855 45.4516 176.852 45.1338 176.082 44.4982C175.346 43.8625 174.727 42.8589 174.225 41.4872L171.515 34.3612C171.181 33.4245 170.729 32.7721 170.161 32.4041C169.625 32.0026 168.873 31.8019 167.902 31.8019H164.891L163.486 40.885C163.252 42.4239 162.683 43.5782 161.78 44.3476C160.877 45.0836 159.672 45.4516 158.167 45.4516ZM165.895 25.2781H172.569C174.376 25.2781 175.748 24.8934 176.684 24.1239C177.655 23.321 178.14 22.1333 178.14 20.5609C178.14 19.2562 177.705 18.286 176.835 17.6503C175.998 17.0147 174.66 16.6969 172.82 16.6969H167.25L165.895 25.2781ZM193.699 45.4516C192.127 45.4516 191.006 44.9833 190.337 44.0465C189.701 43.1098 189.517 41.7716 189.785 40.0319L193.95 13.7361C194.184 12.1971 194.736 11.0596 195.606 10.3236C196.476 9.55415 197.68 9.16942 199.219 9.16942C200.758 9.16942 201.845 9.63779 202.481 10.5745C203.15 11.5113 203.334 12.8495 203.033 14.5892L198.868 40.8348C198.634 42.4072 198.098 43.5782 197.262 44.3476C196.426 45.0836 195.238 45.4516 193.699 45.4516ZM220.272 45.4516C218.967 45.4516 217.913 45.1338 217.111 44.4982C216.308 43.8625 215.722 42.8923 215.354 41.5876L207.526 15.2917C207.225 14.1542 207.191 13.1673 207.425 12.3309C207.693 11.4946 208.178 10.8422 208.881 10.3738C209.617 9.87198 210.486 9.62106 211.49 9.62106C212.628 9.62106 213.581 9.90543 214.35 10.4742C215.12 11.0429 215.705 12.0968 216.107 13.6357L222.279 36.4187H219.519L233.42 12.8328C234.089 11.6953 234.792 10.8756 235.528 10.3738C236.297 9.87198 237.267 9.62106 238.438 9.62106C239.676 9.62106 240.63 9.92216 241.299 10.5244C242.001 11.0931 242.403 11.8291 242.503 12.7324C242.603 13.6357 242.353 14.5724 241.75 15.5426L225.341 42.3403C224.671 43.4443 223.952 44.2473 223.183 44.7491C222.413 45.2175 221.443 45.4516 220.272 45.4516ZM246.577 45.4516C245.005 45.4516 243.884 44.9833 243.215 44.0465C242.579 43.1098 242.395 41.7716 242.663 40.0319L246.828 13.7361C247.062 12.1971 247.614 11.0596 248.484 10.3236C249.354 9.55415 250.558 9.16942 252.097 9.16942C253.636 9.16942 254.724 9.63779 255.359 10.5745C256.028 11.5113 256.212 12.8495 255.911 14.5892L251.746 40.8348C251.512 42.4072 250.977 43.5782 250.14 44.3476C249.304 45.0836 248.116 45.4516 246.577 45.4516ZM259.601 45.4516C258.497 45.4516 257.577 45.2175 256.841 44.7491C256.138 44.2807 255.72 43.6451 255.586 42.8421C255.452 42.0392 255.687 41.1526 256.289 40.1824L273.753 12.2306C274.422 11.1265 275.141 10.3403 275.91 9.87198C276.713 9.4036 277.734 9.16942 278.972 9.16942C280.209 9.16942 281.23 9.48724 282.033 10.1229C282.836 10.7251 283.421 11.6618 283.789 12.9331L292.069 40.0319C292.437 41.2028 292.504 42.2065 292.27 43.0429C292.036 43.8458 291.584 44.448 290.915 44.8495C290.246 45.2509 289.443 45.4516 288.506 45.4516C287.168 45.4516 286.148 45.1505 285.445 44.5484C284.776 43.9127 284.241 42.8923 283.839 41.4872L282.434 35.9671L284.993 37.8238H264.92L268.032 36.1678L264.067 42.8923C263.599 43.7287 262.997 44.3644 262.261 44.7993C261.525 45.2342 260.638 45.4516 259.601 45.4516ZM277.968 19.2562L270.19 32.4041L269.086 30.7481H283.137L281.581 32.6048L278.068 19.2562H277.968ZM123.889 72.2729C122.889 72.2729 122.183 72 121.774 71.4541C121.387 70.9083 121.251 70.1577 121.365 69.2025L124.367 50.2679C124.526 49.3809 124.856 48.7213 125.356 48.2892C125.879 47.8571 126.573 47.641 127.437 47.641C128.211 47.641 128.825 47.8116 129.28 48.1527C129.735 48.4711 130.121 49.0397 130.44 49.8585L135.489 62.7886H134.465L143.984 49.415C144.439 48.7782 144.916 48.3233 145.417 48.0504C145.94 47.7774 146.588 47.641 147.361 47.641C148.317 47.641 149.022 47.9139 149.476 48.4598C149.954 48.9829 150.113 49.7334 149.954 50.7114L146.952 69.646C146.815 70.5103 146.486 71.1698 145.962 71.6247C145.439 72.0569 144.734 72.2729 143.847 72.2729C142.915 72.2729 142.232 72 141.8 71.4541C141.368 70.9083 141.22 70.1577 141.357 69.2025L143.199 57.5006H143.984L136.853 67.4284C136.512 67.906 136.16 68.2472 135.796 68.4519C135.432 68.6566 134.977 68.759 134.431 68.759C133.84 68.759 133.374 68.6225 133.032 68.3496C132.691 68.0766 132.384 67.6559 132.111 67.0873L128.12 57.7053H128.87L126.96 69.646C126.823 70.5103 126.493 71.1698 125.97 71.6247C125.47 72.0569 124.776 72.2729 123.889 72.2729ZM163.662 72.3753C161.364 72.3753 159.363 71.9545 157.657 71.113C155.951 70.2487 154.621 69.0205 153.666 67.4284C152.733 65.8136 152.267 63.869 152.267 61.5945C152.267 59.5248 152.574 57.6371 153.188 55.9312C153.825 54.2027 154.712 52.7129 155.849 51.462C157.009 50.2111 158.385 49.2558 159.977 48.5962C161.592 47.9139 163.377 47.5728 165.333 47.5728C167.653 47.5728 169.666 48.0049 171.372 48.8692C173.078 49.7107 174.397 50.9389 175.329 52.5537C176.262 54.1458 176.728 56.0677 176.728 58.3194C176.728 60.4118 176.421 62.3224 175.807 64.0509C175.193 65.7567 174.306 67.2351 173.146 68.486C171.986 69.737 170.599 70.7036 168.984 71.3859C167.392 72.0455 165.618 72.3753 163.662 72.3753ZM163.73 67.1214C165.117 67.1214 166.289 66.7575 167.244 66.0297C168.199 65.3018 168.938 64.2897 169.461 62.9933C169.985 61.6741 170.246 60.1617 170.246 58.4558C170.246 56.5453 169.791 55.1352 168.881 54.2254C167.994 53.2929 166.778 52.8267 165.231 52.8267C163.889 52.8267 162.729 53.1906 161.751 53.9184C160.796 54.6462 160.057 55.6583 159.534 56.9547C159.033 58.2511 158.783 59.7636 158.783 61.4922C158.783 63.38 159.227 64.7901 160.114 65.7226C161.001 66.6551 162.206 67.1214 163.73 67.1214ZM181.663 72.307C180.662 72.307 179.934 71.9886 179.479 71.3518C179.024 70.715 178.888 69.8052 179.07 68.6225L181.867 51.0526C182.027 50.0064 182.413 49.2331 183.027 48.7327C183.641 48.2096 184.472 47.948 185.518 47.948H192.682C195.434 47.948 197.538 48.5621 198.994 49.7903C200.472 50.9957 201.211 52.6674 201.211 54.8054C201.211 56.6932 200.802 58.2398 199.983 59.4452C199.164 60.6507 198.039 61.5377 196.606 62.1063C195.173 62.6749 193.535 62.9592 191.693 62.9592V62.3451H192.955C194.138 62.3451 195.093 62.6635 195.821 63.3004C196.549 63.9372 197.129 64.8128 197.561 65.9273L198.482 68.3496C198.823 69.1683 198.948 69.8734 198.857 70.4648C198.766 71.0561 198.471 71.511 197.97 71.8294C197.47 72.1478 196.776 72.307 195.889 72.307C195.048 72.307 194.365 72.091 193.842 71.6588C193.342 71.2267 192.921 70.5444 192.58 69.6119L190.738 64.7674C190.51 64.1305 190.203 63.687 189.817 63.4368C189.453 63.1639 188.941 63.0274 188.281 63.0274H186.234L185.279 69.2025C185.12 70.2487 184.733 71.0334 184.119 71.5565C183.505 72.0569 182.686 72.307 181.663 72.307ZM186.917 58.5923H191.454C192.682 58.5923 193.615 58.3307 194.252 57.8076C194.911 57.2618 195.241 56.4544 195.241 55.3854C195.241 54.4984 194.945 53.8388 194.354 53.4066C193.785 52.9745 192.876 52.7584 191.625 52.7584H187.838L186.917 58.5923ZM205.751 72.307C204.75 72.307 204.022 71.9886 203.567 71.3518C203.112 70.715 202.976 69.8166 203.158 68.6566L205.955 51.0526C206.115 50.0064 206.501 49.2331 207.115 48.7327C207.729 48.2096 208.548 47.948 209.572 47.948H216.6C219.511 47.948 221.683 48.5735 223.116 49.8244C224.572 51.0526 225.299 52.7471 225.299 54.9077C225.299 57.728 224.446 59.9001 222.741 61.424C221.035 62.9478 218.544 63.7097 215.269 63.7097H210.22L209.333 69.2025C209.174 70.2487 208.787 71.0334 208.173 71.5565C207.582 72.0569 206.774 72.307 205.751 72.307ZM210.97 58.8994H215.508C216.759 58.8994 217.703 58.6037 218.34 58.0123C218.999 57.421 219.329 56.5681 219.329 55.4536C219.329 54.5211 219.033 53.8388 218.442 53.4066C217.873 52.9745 216.975 52.7584 215.747 52.7584H211.926L210.97 58.8994ZM228.84 72.307C227.794 72.307 227.043 71.9886 226.588 71.3518C226.133 70.715 226.008 69.8052 226.213 68.6225L229.045 50.7456C229.204 49.6993 229.579 48.926 230.17 48.4257C230.762 47.9025 231.569 47.641 232.593 47.641C233.662 47.641 234.412 47.9708 234.844 48.6304C235.299 49.2672 235.424 50.1656 235.22 51.3255L234.299 57.2277H244.192L245.25 50.7456C245.409 49.6993 245.773 48.926 246.342 48.4257C246.933 47.9025 247.74 47.641 248.764 47.641C249.833 47.641 250.583 47.9594 251.016 48.5962C251.47 49.2331 251.596 50.1428 251.391 51.3255L248.559 69.1683C248.4 70.2373 248.025 71.0334 247.433 71.5565C246.865 72.0569 246.069 72.307 245.045 72.307C243.976 72.307 243.226 71.9886 242.794 71.3518C242.361 70.6922 242.236 69.7824 242.418 68.6225L243.373 62.3792H233.48L232.388 69.1683C232.229 70.2373 231.854 71.0334 231.262 71.5565C230.694 72.0569 229.886 72.307 228.84 72.307ZM265.144 72.3753C262.847 72.3753 260.846 71.9545 259.14 71.113C257.434 70.2487 256.103 69.0205 255.148 67.4284C254.216 65.8136 253.749 63.869 253.749 61.5945C253.749 59.5248 254.056 57.6371 254.671 55.9312C255.307 54.2027 256.194 52.7129 257.332 51.462C258.492 50.2111 259.868 49.2558 261.46 48.5962C263.074 47.9139 264.86 47.5728 266.816 47.5728C269.136 47.5728 271.149 48.0049 272.854 48.8692C274.56 49.7107 275.879 50.9389 276.812 52.5537C277.744 54.1458 278.211 56.0677 278.211 58.3194C278.211 60.4118 277.904 62.3224 277.29 64.0509C276.675 65.7567 275.788 67.2351 274.629 68.486C273.469 69.737 272.081 70.7036 270.466 71.3859C268.874 72.0455 267.1 72.3753 265.144 72.3753ZM265.212 67.1214C266.6 67.1214 267.771 66.7575 268.726 66.0297C269.682 65.3018 270.421 64.2897 270.944 62.9933C271.467 61.6741 271.729 60.1617 271.729 58.4558C271.729 56.5453 271.274 55.1352 270.364 54.2254C269.477 53.2929 268.26 52.8267 266.714 52.8267C265.372 52.8267 264.212 53.1906 263.234 53.9184C262.278 54.6462 261.539 55.6583 261.016 56.9547C260.516 58.2511 260.266 59.7636 260.266 61.4922C260.266 63.38 260.709 64.7901 261.596 65.7226C262.483 66.6551 263.689 67.1214 265.212 67.1214ZM289.491 72.3753C288.627 72.3753 287.728 72.3184 286.796 72.2047C285.886 72.091 284.988 71.8977 284.101 71.6247C283.214 71.3518 282.383 71.0334 281.61 70.6695C280.996 70.351 280.564 69.9417 280.314 69.4413C280.086 68.9182 280.007 68.3837 280.075 67.8378C280.166 67.292 280.371 66.8143 280.689 66.4049C281.03 65.9955 281.462 65.7226 281.985 65.5861C282.531 65.4497 283.145 65.5407 283.828 65.8591C284.851 66.3594 285.92 66.712 287.035 66.9167C288.172 67.1214 289.195 67.2237 290.105 67.2237C291.401 67.2237 292.391 67.019 293.073 66.6096C293.778 66.1775 294.131 65.643 294.131 65.0062C294.131 64.483 293.915 64.0509 293.483 63.7097C293.073 63.3458 292.414 63.0615 291.504 62.8568L287.58 61.9016C285.852 61.5149 284.476 60.7757 283.452 59.684C282.452 58.5923 281.951 57.239 281.951 55.6242C281.951 54.3278 282.224 53.1906 282.77 52.2126C283.316 51.2118 284.066 50.3703 285.022 49.688C285.977 48.9829 287.069 48.4598 288.297 48.1186C289.525 47.7547 290.81 47.5728 292.152 47.5728C293.244 47.5728 294.426 47.6978 295.7 47.948C296.974 48.1982 298.191 48.6417 299.351 49.2786C299.896 49.5515 300.283 49.9268 300.511 50.4044C300.761 50.882 300.863 51.3824 300.818 51.9055C300.772 52.4059 300.579 52.8494 300.238 53.2361C299.919 53.6227 299.464 53.8843 298.873 54.0207C298.304 54.1344 297.622 54.0321 296.826 53.7137C296.121 53.3953 295.348 53.1564 294.506 52.9972C293.665 52.8153 292.868 52.7243 292.118 52.7243C291.276 52.7243 290.549 52.8267 289.934 53.0314C289.343 53.2133 288.888 53.4749 288.57 53.816C288.251 54.1572 288.092 54.5438 288.092 54.976C288.092 55.4991 288.286 55.9312 288.672 56.2724C289.059 56.6136 289.662 56.8865 290.48 57.0912L294.404 58.0123C296.269 58.4445 297.713 59.2178 298.736 60.3322C299.76 61.424 300.272 62.7431 300.272 64.2897C300.272 65.6544 299.976 66.8484 299.385 67.8719C298.816 68.8727 298.02 69.7142 296.997 70.3965C295.996 71.0561 294.847 71.5565 293.551 71.8977C292.254 72.2161 290.901 72.3753 289.491 72.3753ZM305.436 72.307C304.367 72.307 303.605 71.9886 303.15 71.3518C302.718 70.715 302.593 69.8052 302.775 68.6225L305.606 50.7456C305.766 49.6993 306.141 48.926 306.732 48.4257C307.324 47.9025 308.142 47.641 309.189 47.641C310.235 47.641 310.974 47.9594 311.406 48.5962C311.861 49.2331 311.986 50.1428 311.781 51.3255L308.95 69.1683C308.791 70.2373 308.427 71.0334 307.858 71.5565C307.289 72.0569 306.482 72.307 305.436 72.307ZM322.341 72.3753C321.477 72.3753 320.579 72.3184 319.646 72.2047C318.736 72.091 317.838 71.8977 316.951 71.6247C316.064 71.3518 315.234 71.0334 314.46 70.6695C313.846 70.351 313.414 69.9417 313.164 69.4413C312.936 68.9182 312.857 68.3837 312.925 67.8378C313.016 67.292 313.221 66.8143 313.539 66.4049C313.88 65.9955 314.312 65.7226 314.836 65.5861C315.381 65.4497 315.996 65.5407 316.678 65.8591C317.701 66.3594 318.77 66.712 319.885 66.9167C321.022 67.1214 322.046 67.2237 322.955 67.2237C324.252 67.2237 325.241 67.019 325.923 66.6096C326.628 66.1775 326.981 65.643 326.981 65.0062C326.981 64.483 326.765 64.0509 326.333 63.7097C325.923 63.3458 325.264 63.0615 324.354 62.8568L320.431 61.9016C318.702 61.5149 317.326 60.7757 316.303 59.684C315.302 58.5923 314.801 57.239 314.801 55.6242C314.801 54.3278 315.074 53.1906 315.62 52.2126C316.166 51.2118 316.917 50.3703 317.872 49.688C318.827 48.9829 319.919 48.4598 321.147 48.1186C322.375 47.7547 323.66 47.5728 325.002 47.5728C326.094 47.5728 327.277 47.6978 328.55 47.948C329.824 48.1982 331.041 48.6417 332.201 49.2786C332.747 49.5515 333.133 49.9268 333.361 50.4044C333.611 50.882 333.713 51.3824 333.668 51.9055C333.622 52.4059 333.429 52.8494 333.088 53.2361C332.769 53.6227 332.315 53.8843 331.723 54.0207C331.155 54.1344 330.472 54.0321 329.676 53.7137C328.971 53.3953 328.198 53.1564 327.356 52.9972C326.515 52.8153 325.719 52.7243 324.968 52.7243C324.127 52.7243 323.399 52.8267 322.785 53.0314C322.193 53.2133 321.738 53.4749 321.42 53.816C321.102 54.1572 320.942 54.5438 320.942 54.976C320.942 55.4991 321.136 55.9312 321.522 56.2724C321.909 56.6136 322.512 56.8865 323.331 57.0912L327.254 58.0123C329.119 58.4445 330.563 59.2178 331.587 60.3322C332.61 61.424 333.122 62.7431 333.122 64.2897C333.122 65.6544 332.826 66.8484 332.235 67.8719C331.666 68.8727 330.87 69.7142 329.847 70.3965C328.846 71.0561 327.697 71.5565 326.401 71.8977C325.105 72.2161 323.751 72.3753 322.341 72.3753Z" fill="#8F37FF"/>
<mask id="path-3-outside-1_122_215" maskUnits="userSpaceOnUse" x="14.6963" y="0" width="104" height="82" fill="black">
<rect fill="white" x="14.6963" width="104" height="82"/>
<path fill-rule="evenodd" clip-rule="evenodd" d="M64.2368 6.83594C65.4345 4.38801 68.9235 4.38802 70.1212 6.83595L75.7074 18.2531C78.0805 18.9519 80.3319 19.935 82.4222 21.1628L85.5448 18.0402C85.5405 18.0133 85.5365 17.9863 85.5327 17.9592C85.1855 15.4708 86.9212 13.172 89.4096 12.8247C91.898 12.4775 94.1968 14.2132 94.544 16.7016C94.8913 19.19 93.1556 21.4888 90.6672 21.836C90.2327 21.8967 89.804 21.8938 89.3905 21.8345L86.8723 24.3526C92.0389 28.8161 95.6735 35.0048 96.8808 42.0236C97.4863 40.9069 98.3306 39.8332 99.3945 38.8909C103.098 35.6111 108.061 35.1666 110.48 37.8981C112.246 39.892 112.168 43.0272 110.557 45.8508C114.403 50.3137 115.037 56.0836 111.952 58.816C108.829 61.5816 103.078 60.1883 99.1067 55.7039C98.1789 54.6562 97.4302 53.5325 96.8675 52.3902C94.3949 66.5469 82.0436 77.308 67.179 77.308C51.8647 77.308 39.2182 65.8862 37.2933 51.0966C36.7128 52.6766 35.7754 54.2622 34.4986 55.7039C30.5272 60.1883 24.7763 61.5816 21.6535 58.816C18.5681 56.0836 19.2027 50.3137 23.0486 45.8508C21.4371 43.0272 21.3591 39.892 23.125 37.8981C25.5441 35.1666 30.5074 35.6111 34.2108 38.8909C35.6629 40.1768 36.7056 41.7077 37.2911 43.2583C38.2817 35.6119 42.1381 28.8645 47.7478 24.1287L44.8745 21.2553C44.8475 21.2596 44.8205 21.2636 44.7934 21.2674C42.305 21.6147 40.0062 19.879 39.6589 17.3906C39.3116 14.9022 41.0473 12.6034 43.5357 12.2561C46.0241 11.9088 48.3229 13.6445 48.6702 16.1329C48.7308 16.5674 48.728 16.996 48.6687 17.4095L52.2436 20.9844C54.2466 19.8395 56.3935 18.9177 58.6506 18.2531L64.2368 6.83594Z"/>
</mask>
<path fill-rule="evenodd" clip-rule="evenodd" d="M64.2368 6.83594C65.4345 4.38801 68.9235 4.38802 70.1212 6.83595L75.7074 18.2531C78.0805 18.9519 80.3319 19.935 82.4222 21.1628L85.5448 18.0402C85.5405 18.0133 85.5365 17.9863 85.5327 17.9592C85.1855 15.4708 86.9212 13.172 89.4096 12.8247C91.898 12.4775 94.1968 14.2132 94.544 16.7016C94.8913 19.19 93.1556 21.4888 90.6672 21.836C90.2327 21.8967 89.804 21.8938 89.3905 21.8345L86.8723 24.3526C92.0389 28.8161 95.6735 35.0048 96.8808 42.0236C97.4863 40.9069 98.3306 39.8332 99.3945 38.8909C103.098 35.6111 108.061 35.1666 110.48 37.8981C112.246 39.892 112.168 43.0272 110.557 45.8508C114.403 50.3137 115.037 56.0836 111.952 58.816C108.829 61.5816 103.078 60.1883 99.1067 55.7039C98.1789 54.6562 97.4302 53.5325 96.8675 52.3902C94.3949 66.5469 82.0436 77.308 67.179 77.308C51.8647 77.308 39.2182 65.8862 37.2933 51.0966C36.7128 52.6766 35.7754 54.2622 34.4986 55.7039C30.5272 60.1883 24.7763 61.5816 21.6535 58.816C18.5681 56.0836 19.2027 50.3137 23.0486 45.8508C21.4371 43.0272 21.3591 39.892 23.125 37.8981C25.5441 35.1666 30.5074 35.6111 34.2108 38.8909C35.6629 40.1768 36.7056 41.7077 37.2911 43.2583C38.2817 35.6119 42.1381 28.8645 47.7478 24.1287L44.8745 21.2553C44.8475 21.2596 44.8205 21.2636 44.7934 21.2674C42.305 21.6147 40.0062 19.879 39.6589 17.3906C39.3116 14.9022 41.0473 12.6034 43.5357 12.2561C46.0241 11.9088 48.3229 13.6445 48.6702 16.1329C48.7308 16.5674 48.728 16.996 48.6687 17.4095L52.2436 20.9844C54.2466 19.8395 56.3935 18.9177 58.6506 18.2531L64.2368 6.83594Z" fill="#8F37FF"/>
<path d="M70.1212 6.83595L66.0348 8.83534L66.0348 8.83535L70.1212 6.83595ZM64.2368 6.83594L68.3232 8.83534L68.3232 8.83534L64.2368 6.83594ZM75.7074 18.2531L71.621 20.2525C72.1818 21.3987 73.1982 22.2567 74.4223 22.6172L75.7074 18.2531ZM82.4222 21.1628L80.118 25.0854C81.9043 26.1347 84.1741 25.8446 85.639 24.3796L82.4222 21.1628ZM85.5448 18.0402L88.7616 21.257C89.7906 20.228 90.2652 18.7689 90.0386 17.3315L85.5448 18.0402ZM85.5327 17.9592L90.0385 17.3308L90.0384 17.3304L85.5327 17.9592ZM89.4096 12.8247L88.7808 8.31908L88.7808 8.31908L89.4096 12.8247ZM94.544 16.7016L90.0384 17.3304L90.0384 17.3304L94.544 16.7016ZM90.6672 21.836L91.296 26.3417L91.296 26.3417L90.6672 21.836ZM89.3905 21.8345L90.0361 17.3312C88.6179 17.1279 87.1867 17.6046 86.1736 18.6177L89.3905 21.8345ZM86.8723 24.3526L83.6555 21.1358C82.7616 22.0296 82.28 23.2551 82.326 24.5184C82.3721 25.7817 82.9417 26.9688 83.8983 27.7952L86.8723 24.3526ZM96.8808 42.0236L92.3973 42.7948C92.7259 44.705 94.2287 46.1973 96.1412 46.5124C98.0537 46.8275 99.9559 45.8962 100.88 44.1923L96.8808 42.0236ZM99.3945 38.8909L96.3783 35.4852L96.3783 35.4852L99.3945 38.8909ZM110.48 37.8981L113.886 34.8819L113.886 34.8819L110.48 37.8981ZM110.557 45.8508L106.606 43.5958C105.651 45.2686 105.853 47.3615 107.111 48.8206L110.557 45.8508ZM111.952 58.816L114.968 62.2218L114.968 62.2218L111.952 58.816ZM99.1067 55.7039L95.701 58.7201L95.701 58.7201L99.1067 55.7039ZM96.8675 52.3902L100.949 50.3799C100.079 48.6136 98.171 47.6075 96.222 47.8869C94.2729 48.1663 92.7248 49.6678 92.3861 51.6074L96.8675 52.3902ZM37.2933 51.0966L41.8046 50.5095C41.5343 48.4323 39.8806 46.8082 37.7988 46.5755C35.7171 46.3427 33.7456 47.5615 33.0231 49.5276L37.2933 51.0966ZM34.4986 55.7039L37.9044 58.7201L37.9044 58.7201L34.4986 55.7039ZM21.6535 58.816L18.6373 62.2218L18.6373 62.2218L21.6535 58.816ZM23.0486 45.8508L26.4948 48.8206C27.7522 47.3614 27.9544 45.2686 26.9997 43.5958L23.0486 45.8508ZM23.125 37.8981L26.5307 40.9143L26.5307 40.9143L23.125 37.8981ZM34.2108 38.8909L31.1947 42.2967L31.1947 42.2967L34.2108 38.8909ZM37.2911 43.2583L33.035 44.8652C33.7724 46.8183 35.7444 48.0188 37.818 47.777C39.8916 47.5352 41.5345 45.9132 41.8027 43.8428L37.2911 43.2583ZM47.7478 24.1287L50.6825 27.6049C51.6553 26.7836 52.2395 25.5923 52.2931 24.3203C52.3467 23.0483 51.8649 21.812 50.9647 20.9118L47.7478 24.1287ZM44.8745 21.2553L48.0914 18.0385C47.0624 17.0095 45.6034 16.5349 44.166 16.7615L44.8745 21.2553ZM44.7934 21.2674L44.1647 16.7617L44.1646 16.7617L44.7934 21.2674ZM39.6589 17.3906L44.1646 16.7617L44.1646 16.7617L39.6589 17.3906ZM43.5357 12.2561L44.1646 16.7617L44.1646 16.7617L43.5357 12.2561ZM48.6702 16.1329L44.1646 16.7617L44.1646 16.7617L48.6702 16.1329ZM48.6687 17.4095L44.1654 16.764C43.9621 18.1822 44.4388 19.6133 45.4519 20.6264L48.6687 17.4095ZM52.2436 20.9844L49.0267 24.2013C50.4776 25.6521 52.72 25.9522 54.5013 24.934L52.2436 20.9844ZM58.6506 18.2531L59.9357 22.6171C61.1598 22.2567 62.1762 21.3987 62.737 20.2525L58.6506 18.2531ZM74.2076 4.83655C71.3464 -1.01125 63.0116 -1.0113 60.1504 4.83655L68.3232 8.83534C67.8574 9.78733 66.5006 9.7873 66.0348 8.83534L74.2076 4.83655ZM79.7938 16.2537L74.2076 4.83655L66.0348 8.83535L71.621 20.2525L79.7938 16.2537ZM84.7263 17.2402C82.3202 15.8268 79.7271 14.6943 76.9925 13.8891L74.4223 22.6172C76.434 23.2095 78.3436 24.0431 80.118 25.0854L84.7263 17.2402ZM82.3279 14.8233L79.2053 17.9459L85.639 24.3796L88.7616 21.257L82.3279 14.8233ZM90.0386 17.3315L90.0385 17.3308L81.027 18.5876C81.0346 18.6418 81.0426 18.6955 81.051 18.7489L90.0386 17.3315ZM90.0384 17.3304L90.0384 17.3304L88.7808 8.31908C83.804 9.01366 80.3325 13.6112 81.0271 18.588L90.0384 17.3304ZM90.0384 17.3304L90.0384 17.3304L99.0497 16.0728C98.3551 11.0959 93.7576 7.62451 88.7808 8.31908L90.0384 17.3304ZM90.0384 17.3304L90.0384 17.3304L91.296 26.3417C96.2728 25.6471 99.7443 21.0496 99.0497 16.0727L90.0384 17.3304ZM90.0384 17.3304C90.034 17.331 90.0322 17.3309 90.0327 17.3309C90.0331 17.3309 90.0343 17.331 90.0361 17.3312L88.7448 26.3378C89.5767 26.4571 90.4344 26.4619 91.296 26.3417L90.0384 17.3304ZM90.0892 27.5695L92.6073 25.0514L86.1736 18.6177L83.6555 21.1358L90.0892 27.5695ZM101.364 41.2524C99.9728 33.163 95.7852 26.0406 89.8464 20.9101L83.8983 27.7952C88.2927 31.5916 91.3742 36.8467 92.3973 42.7948L101.364 41.2524ZM96.3783 35.4852C94.9276 36.77 93.7468 38.2595 92.8816 39.8549L100.88 44.1923C101.226 43.5543 101.734 42.8963 102.411 42.2967L96.3783 35.4852ZM113.886 34.8819C111.492 32.1791 108.081 31.3343 105.013 31.6091C101.944 31.884 98.8826 33.2674 96.3783 35.4852L102.411 42.2967C103.61 41.2346 104.882 40.7559 105.825 40.6714C106.77 40.5868 107.049 40.8856 107.075 40.9143L113.886 34.8819ZM114.508 48.1058C116.677 44.3058 117.417 38.869 113.886 34.8819L107.075 40.9143C107.11 40.9547 107.236 41.11 107.236 41.5627C107.236 42.0434 107.08 42.7638 106.606 43.5958L114.508 48.1058ZM114.968 62.2218C117.917 59.6101 118.74 55.8464 118.376 52.4924C118.011 49.1229 116.451 45.7212 114.003 42.881L107.111 48.8206C108.509 50.4432 109.188 52.158 109.331 53.4723C109.475 54.802 109.072 55.2895 108.936 55.4103L114.968 62.2218ZM95.701 58.7201C98.2263 61.5716 101.442 63.5923 104.776 64.4001C108.092 65.2033 111.982 64.866 114.968 62.2218L108.936 55.4103C108.799 55.5316 108.252 55.8804 106.919 55.5573C105.604 55.2388 103.959 54.3206 102.512 52.6878L95.701 58.7201ZM92.7865 54.4004C93.532 55.9139 94.5096 57.3749 95.701 58.7201L102.512 52.6878C101.848 51.9376 101.328 51.151 100.949 50.3799L92.7865 54.4004ZM67.179 81.8573C84.2921 81.8573 98.5026 69.4697 101.349 53.1729L92.3861 51.6074C90.2872 63.6242 79.7952 72.7587 67.179 72.7587V81.8573ZM32.7821 51.6838C34.9981 68.7103 49.5496 81.8573 67.179 81.8573V72.7587C54.1799 72.7587 43.4383 63.0621 41.8046 50.5095L32.7821 51.6838ZM37.9044 58.7201C39.5408 56.8722 40.7793 54.7999 41.5635 52.6656L33.0231 49.5276C32.6463 50.5532 32.01 51.6522 31.0929 52.6878L37.9044 58.7201ZM18.6373 62.2218C21.6231 64.866 25.5136 65.2033 28.829 64.4001C32.1633 63.5923 35.3791 61.5716 37.9044 58.7201L31.0929 52.6878C29.6468 54.3206 28.0014 55.2388 26.6866 55.5573C25.353 55.8804 24.8066 55.5316 24.6696 55.4103L18.6373 62.2218ZM19.6023 42.881C17.1548 45.7212 15.594 49.1229 15.229 52.4924C14.8656 55.8464 15.6883 59.6101 18.6373 62.2218L24.6696 55.4103C24.5333 55.2895 24.1306 54.802 24.2747 53.4723C24.4171 52.158 25.0965 50.4432 26.4948 48.8206L19.6023 42.881ZM19.7192 34.8819C16.1883 38.869 16.9287 44.3058 19.0975 48.1058L26.9997 43.5958C26.5249 42.7638 26.3697 42.0434 26.3696 41.5627C26.3695 41.11 26.4949 40.9547 26.5307 40.9143L19.7192 34.8819ZM37.227 35.4852C34.7228 33.2674 31.6616 31.884 28.5921 31.6091C25.5245 31.3343 22.1129 32.1791 19.7192 34.8819L26.5307 40.9143C26.5561 40.8856 26.8357 40.5868 27.7805 40.6714C28.7233 40.7559 29.9954 41.2346 31.1947 42.2967L37.227 35.4852ZM41.5472 41.6515C40.6863 39.3714 39.2012 37.2335 37.227 35.4852L31.1947 42.2967C32.1246 43.1202 32.7249 44.0439 33.035 44.8652L41.5472 41.6515ZM44.8132 20.6525C38.3651 26.0961 33.9211 33.862 32.7795 42.6738L41.8027 43.8428C42.6424 37.3618 45.9112 31.6329 50.6825 27.6049L44.8132 20.6525ZM41.6576 24.4722L44.531 27.3455L50.9647 20.9118L48.0914 18.0385L41.6576 24.4722ZM45.4221 25.7731C45.4758 25.7656 45.5294 25.7576 45.583 25.7491L44.166 16.7615C44.1656 16.7616 44.1652 16.7616 44.1647 16.7617L45.4221 25.7731ZM35.1533 18.0194C35.8478 22.9962 40.4454 26.4676 45.4222 25.773L44.1646 16.7617L44.1646 16.7617L35.1533 18.0194ZM42.9069 7.75043C37.9301 8.445 34.4587 13.0426 35.1533 18.0194L44.1646 16.7617L44.1646 16.7617L42.9069 7.75043ZM53.1759 15.5041C52.4813 10.5273 47.8837 7.05586 42.9069 7.75043L44.1646 16.7617L44.1646 16.7617L53.1759 15.5041ZM53.172 18.055C53.2912 17.2232 53.2961 16.3656 53.1759 15.5041L44.1646 16.7617C44.1652 16.7661 44.1651 16.7679 44.1651 16.7674C44.1651 16.7671 44.1652 16.7658 44.1654 16.764L53.172 18.055ZM55.4605 17.7675L51.8856 14.1927L45.4519 20.6264L49.0267 24.2013L55.4605 17.7675ZM57.3655 13.889C54.7647 14.6549 52.2917 15.7168 49.9859 17.0348L54.5013 24.934C56.2014 23.9622 58.0224 23.1805 59.9357 22.6171L57.3655 13.889ZM60.1504 4.83654L54.5642 16.2537L62.737 20.2525L68.3232 8.83534L60.1504 4.83654Z" fill="white" mask="url(#path-3-outside-1_122_215)"/>
<mask id="path-5-outside-2_122_215" maskUnits="userSpaceOnUse" x="16.6963" y="2" width="100" height="78" fill="black">
<rect fill="white" x="16.6963" y="2" width="100" height="78"/>
<path fill-rule="evenodd" clip-rule="evenodd" d="M64.2368 6.83594C65.4345 4.38801 68.9235 4.38802 70.1212 6.83595L75.7074 18.2531C78.0805 18.9519 80.3319 19.935 82.4222 21.1628L85.5448 18.0402C85.5405 18.0133 85.5365 17.9863 85.5327 17.9592C85.1855 15.4708 86.9212 13.172 89.4096 12.8247C91.898 12.4775 94.1968 14.2132 94.544 16.7016C94.8913 19.19 93.1556 21.4888 90.6672 21.836C90.2327 21.8967 89.804 21.8938 89.3905 21.8345L86.8723 24.3526C92.0389 28.8161 95.6735 35.0048 96.8808 42.0236C97.4863 40.9069 98.3306 39.8332 99.3945 38.8909C103.098 35.6111 108.061 35.1666 110.48 37.8981C112.246 39.892 112.168 43.0272 110.557 45.8508C114.403 50.3137 115.037 56.0836 111.952 58.816C108.829 61.5816 103.078 60.1883 99.1067 55.7039C98.1789 54.6562 97.4302 53.5325 96.8675 52.3902C94.3949 66.5469 82.0436 77.308 67.179 77.308C51.8647 77.308 39.2182 65.8862 37.2933 51.0966C36.7128 52.6766 35.7754 54.2622 34.4986 55.7039C30.5272 60.1883 24.7763 61.5816 21.6535 58.816C18.5681 56.0836 19.2027 50.3137 23.0486 45.8508C21.4371 43.0272 21.3591 39.892 23.125 37.8981C25.5441 35.1666 30.5074 35.6111 34.2108 38.8909C35.6629 40.1768 36.7056 41.7077 37.2911 43.2583C38.2817 35.6119 42.1381 28.8645 47.7478 24.1287L44.8745 21.2553C44.8475 21.2596 44.8205 21.2636 44.7934 21.2674C42.305 21.6147 40.0062 19.879 39.6589 17.3906C39.3116 14.9022 41.0473 12.6034 43.5357 12.2561C46.0241 11.9088 48.3229 13.6445 48.6702 16.1329C48.7308 16.5674 48.728 16.996 48.6687 17.4095L52.2436 20.9844C54.2466 19.8395 56.3935 18.9177 58.6506 18.2531L64.2368 6.83594Z"/>
</mask>
<path fill-rule="evenodd" clip-rule="evenodd" d="M64.2368 6.83594C65.4345 4.38801 68.9235 4.38802 70.1212 6.83595L75.7074 18.2531C78.0805 18.9519 80.3319 19.935 82.4222 21.1628L85.5448 18.0402C85.5405 18.0133 85.5365 17.9863 85.5327 17.9592C85.1855 15.4708 86.9212 13.172 89.4096 12.8247C91.898 12.4775 94.1968 14.2132 94.544 16.7016C94.8913 19.19 93.1556 21.4888 90.6672 21.836C90.2327 21.8967 89.804 21.8938 89.3905 21.8345L86.8723 24.3526C92.0389 28.8161 95.6735 35.0048 96.8808 42.0236C97.4863 40.9069 98.3306 39.8332 99.3945 38.8909C103.098 35.6111 108.061 35.1666 110.48 37.8981C112.246 39.892 112.168 43.0272 110.557 45.8508C114.403 50.3137 115.037 56.0836 111.952 58.816C108.829 61.5816 103.078 60.1883 99.1067 55.7039C98.1789 54.6562 97.4302 53.5325 96.8675 52.3902C94.3949 66.5469 82.0436 77.308 67.179 77.308C51.8647 77.308 39.2182 65.8862 37.2933 51.0966C36.7128 52.6766 35.7754 54.2622 34.4986 55.7039C30.5272 60.1883 24.7763 61.5816 21.6535 58.816C18.5681 56.0836 19.2027 50.3137 23.0486 45.8508C21.4371 43.0272 21.3591 39.892 23.125 37.8981C25.5441 35.1666 30.5074 35.6111 34.2108 38.8909C35.6629 40.1768 36.7056 41.7077 37.2911 43.2583C38.2817 35.6119 42.1381 28.8645 47.7478 24.1287L44.8745 21.2553C44.8475 21.2596 44.8205 21.2636 44.7934 21.2674C42.305 21.6147 40.0062 19.879 39.6589 17.3906C39.3116 14.9022 41.0473 12.6034 43.5357 12.2561C46.0241 11.9088 48.3229 13.6445 48.6702 16.1329C48.7308 16.5674 48.728 16.996 48.6687 17.4095L52.2436 20.9844C54.2466 19.8395 56.3935 18.9177 58.6506 18.2531L64.2368 6.83594Z" fill="#8F37FF"/>
<path d="M70.1212 6.83595L68.078 7.83565L68.078 7.83565L70.1212 6.83595ZM64.2368 6.83594L66.28 7.83564L66.28 7.83564L64.2368 6.83594ZM75.7074 18.2531L73.6642 19.2528C73.9446 19.8259 74.4528 20.2549 75.0649 20.4351L75.7074 18.2531ZM82.4222 21.1628L81.2701 23.1241C82.1632 23.6488 83.2981 23.5037 84.0306 22.7712L82.4222 21.1628ZM85.5448 18.0402L87.1532 19.6486C87.6677 19.1341 87.905 18.4045 87.7917 17.6858L85.5448 18.0402ZM85.5327 17.9592L87.7856 17.645L87.7856 17.6448L85.5327 17.9592ZM89.4096 12.8247L89.0952 10.5719L89.0952 10.5719L89.4096 12.8247ZM94.544 16.7016L92.2912 17.016L92.2912 17.016L94.544 16.7016ZM90.6672 21.836L90.9816 24.0889L90.9816 24.0889L90.6672 21.836ZM89.3905 21.8345L89.7133 19.5829C89.0042 19.4812 88.2886 19.7195 87.782 20.2261L89.3905 21.8345ZM86.8723 24.3526L85.2639 22.7442C84.817 23.1911 84.5762 23.8039 84.5992 24.4355C84.6222 25.0672 84.907 25.6607 85.3853 26.0739L86.8723 24.3526ZM96.8808 42.0236L94.639 42.4092C94.8033 43.3643 95.5547 44.1104 96.511 44.268C97.4672 44.4255 98.4183 43.9599 98.8803 43.108L96.8808 42.0236ZM99.3945 38.8909L97.8864 37.1881L97.8864 37.1881L99.3945 38.8909ZM110.48 37.8981L112.183 36.39L112.183 36.39L110.48 37.8981ZM110.557 45.8508L108.581 44.7233C108.104 45.5597 108.205 46.6061 108.834 47.3357L110.557 45.8508ZM111.952 58.816L113.46 60.5189L113.46 60.5189L111.952 58.816ZM99.1067 55.7039L97.4039 57.212L97.4039 57.212L99.1067 55.7039ZM96.8675 52.3902L98.9081 51.385C98.4731 50.5019 97.5193 49.9988 96.5448 50.1385C95.5702 50.2782 94.7962 51.029 94.6268 51.9988L96.8675 52.3902ZM37.2933 51.0966L39.549 50.803C39.4138 49.7645 38.5869 48.9524 37.5461 48.836C36.5052 48.7197 35.5195 49.329 35.1582 50.3121L37.2933 51.0966ZM34.4986 55.7039L36.2015 57.212L36.2015 57.212L34.4986 55.7039ZM21.6535 58.816L20.1454 60.5189L20.1454 60.5189L21.6535 58.816ZM23.0486 45.8508L24.7717 47.3357C25.4004 46.6061 25.5015 45.5597 25.0241 44.7233L23.0486 45.8508ZM23.125 37.8981L24.8279 39.4062L24.8279 39.4062L23.125 37.8981ZM34.2108 38.8909L32.7028 40.5938L32.7028 40.5938L34.2108 38.8909ZM37.2911 43.2583L35.163 44.0618C35.5317 45.0383 36.5177 45.6386 37.5545 45.5177C38.5913 45.3968 39.4128 44.5858 39.5469 43.5506L37.2911 43.2583ZM47.7478 24.1287L49.2152 25.8668C49.7016 25.4561 49.9937 24.8605 50.0205 24.2245C50.0473 23.5885 49.8064 22.9704 49.3563 22.5202L47.7478 24.1287ZM44.8745 21.2553L46.4829 19.6469C45.9685 19.1324 45.2389 18.8951 44.5202 19.0084L44.8745 21.2553ZM44.7934 21.2674L44.479 19.0146L44.479 19.0146L44.7934 21.2674ZM39.6589 17.3906L41.9117 17.0761L41.9117 17.0761L39.6589 17.3906ZM43.5357 12.2561L43.8501 14.5089L43.8501 14.5089L43.5357 12.2561ZM48.6702 16.1329L46.4174 16.4473L46.4174 16.4473L48.6702 16.1329ZM48.6687 17.4095L46.4171 17.0868C46.3154 17.7959 46.5538 18.5114 47.0603 19.0179L48.6687 17.4095ZM52.2436 20.9844L50.6352 22.5928C51.3606 23.3182 52.4818 23.4683 53.3724 22.9592L52.2436 20.9844ZM58.6506 18.2531L59.2932 20.4351C59.9052 20.2549 60.4134 19.8259 60.6938 19.2528L58.6506 18.2531ZM72.1644 5.83625C70.135 1.68838 64.2231 1.68836 62.1936 5.83624L66.28 7.83564C66.646 7.08767 67.712 7.08766 68.078 7.83565L72.1644 5.83625ZM77.7506 17.2534L72.1644 5.83625L68.078 7.83565L73.6642 19.2528L77.7506 17.2534ZM83.5742 19.2015C81.3261 17.8809 78.9038 16.8231 76.35 16.0711L75.0649 20.4351C77.2573 21.0807 79.3378 21.989 81.2701 23.1241L83.5742 19.2015ZM83.9363 16.4317L80.8137 19.5544L84.0306 22.7712L87.1532 19.6486L83.9363 16.4317ZM87.7917 17.6858C87.7895 17.6721 87.7875 17.6585 87.7856 17.645L83.2799 18.2734C83.2856 18.314 83.2916 18.3544 83.2979 18.3945L87.7917 17.6858ZM87.7856 17.6448C87.6119 16.4006 88.4798 15.2512 89.724 15.0776L89.0952 10.5719C85.3626 11.0928 82.759 14.541 83.2799 18.2736L87.7856 17.6448ZM89.724 15.0776C90.9682 14.9039 92.1176 15.7718 92.2912 17.016L96.7969 16.3872C96.2759 12.6546 92.8278 10.051 89.0952 10.5719L89.724 15.0776ZM92.2912 17.016C92.4649 18.2602 91.597 19.4096 90.3528 19.5832L90.9816 24.0889C94.7142 23.5679 97.3178 20.1198 96.7969 16.3872L92.2912 17.016ZM90.3528 19.5832C90.1318 19.614 89.9177 19.6122 89.7133 19.5829L89.0676 24.0862C89.6903 24.1754 90.3336 24.1793 90.9816 24.0889L90.3528 19.5832ZM88.4808 25.9611L90.9989 23.4429L87.782 20.2261L85.2639 22.7442L88.4808 25.9611ZM99.1225 41.638C97.8232 34.0839 93.9121 27.4284 88.3594 22.6314L85.3853 26.0739C90.1658 30.2038 93.5238 35.9257 94.639 42.4092L99.1225 41.638ZM97.8864 37.1881C96.6291 38.3016 95.6166 39.5832 94.8812 40.9392L98.8803 43.108C99.3561 42.2306 100.032 41.3647 100.903 40.5938L97.8864 37.1881ZM112.183 36.39C110.382 34.3557 107.753 33.6474 105.216 33.8746C102.678 34.1019 100.064 35.2592 97.8864 37.1881L100.903 40.5938C102.428 39.2428 104.148 38.5379 105.622 38.4058C107.097 38.2737 108.16 38.7089 108.778 39.4062L112.183 36.39ZM112.532 46.9783C114.422 43.6665 114.832 39.3805 112.183 36.39L108.778 39.4062C109.661 40.4036 109.914 42.3879 108.581 44.7233L112.532 46.9783ZM113.46 60.5189C115.706 58.5299 116.424 55.5853 116.115 52.7373C115.806 49.8817 114.465 46.9017 112.28 44.3659L108.834 47.3357C110.494 49.2627 111.394 51.3992 111.592 53.2273C111.791 55.0631 111.283 56.3697 110.444 57.1131L113.46 60.5189ZM97.4039 57.212C99.6594 59.7588 102.483 61.5039 105.312 62.1894C108.132 62.8726 111.186 62.5324 113.46 60.5189L110.444 57.1131C109.595 57.8652 108.212 58.2111 106.383 57.768C104.564 57.3271 102.525 56.1334 100.81 54.1958L97.4039 57.212ZM94.827 53.3953C95.4811 54.7232 96.3442 56.0155 97.4039 57.212L100.81 54.1958C100.013 53.2969 99.3793 52.3417 98.9081 51.385L94.827 53.3953ZM67.179 79.5827C83.1678 79.5827 96.4488 68.0083 99.1083 52.7815L94.6268 51.9988C92.3411 65.0855 80.9194 75.0333 67.179 75.0333V79.5827ZM35.0377 51.3902C37.1081 67.2983 50.7071 79.5827 67.179 79.5827V75.0333C53.0223 75.0333 41.3283 64.4742 39.549 50.803L35.0377 51.3902ZM36.2015 57.212C37.6581 55.5672 38.7461 53.7382 39.4284 51.8811L35.1582 50.3121C34.6796 51.6149 33.8927 52.9572 32.7958 54.1958L36.2015 57.212ZM20.1454 60.5189C22.419 62.5324 25.4735 62.8726 28.2934 62.1894C31.1228 61.5039 33.946 59.7588 36.2015 57.212L32.7958 54.1958C31.0799 56.1334 29.0419 57.3271 27.2222 57.768C25.3931 58.2111 24.0108 57.8652 23.1616 57.1131L20.1454 60.5189ZM21.3255 44.3659C19.1402 46.9017 17.7997 49.8817 17.4904 52.7373C17.1818 55.5853 17.8996 58.5299 20.1454 60.5189L23.1616 57.1132C22.3221 56.3697 21.8144 55.0631 22.0132 53.2273C22.2113 51.3992 23.1111 49.2627 24.7717 47.3357L21.3255 44.3659ZM21.4221 36.39C18.7737 39.3805 19.1829 43.6665 21.073 46.9783L25.0241 44.7233C23.6913 42.3879 23.9445 40.4036 24.8279 39.4062L21.4221 36.39ZM35.7189 37.1881C33.541 35.2592 30.927 34.1019 28.3892 33.8746C25.8523 33.6474 23.2237 34.3557 21.4221 36.39L24.8279 39.4062C25.4453 38.7089 26.5079 38.2737 27.9834 38.4058C29.4578 38.5379 31.1773 39.2428 32.7028 40.5938L35.7189 37.1881ZM39.4191 42.4549C38.696 40.5396 37.432 38.7052 35.7189 37.1881L32.7028 40.5938C33.8937 41.6485 34.7153 42.8758 35.163 44.0618L39.4191 42.4549ZM46.2805 22.3906C40.2516 27.4803 36.1014 34.737 35.0353 42.9661L39.5469 43.5506C40.462 36.4868 44.0247 30.2487 49.2152 25.8668L46.2805 22.3906ZM43.2661 22.8638L46.1394 25.7371L49.3563 22.5202L46.4829 19.6469L43.2661 22.8638ZM45.1077 23.5202C45.1481 23.5146 45.1885 23.5086 45.2288 23.5022L44.5202 19.0084C44.5066 19.0106 44.4929 19.0126 44.479 19.0146L45.1077 23.5202ZM37.4061 17.705C37.927 21.4376 41.3752 24.0411 45.1078 23.5202L44.479 19.0146C43.2348 19.1882 42.0854 18.3203 41.9117 17.0761L37.4061 17.705ZM43.2213 10.0033C39.4887 10.5242 36.8851 13.9724 37.4061 17.705L41.9117 17.0761C41.7381 15.8319 42.6059 14.6826 43.8501 14.5089L43.2213 10.0033ZM50.923 15.8185C50.4021 12.0859 46.9539 9.48233 43.2213 10.0033L43.8501 14.5089C45.0943 14.3353 46.2437 15.2031 46.4174 16.4473L50.923 15.8185ZM50.9204 17.7323C51.0096 17.1096 51.0135 16.4665 50.923 15.8185L46.4174 16.4473C46.4482 16.6682 46.4464 16.8824 46.4171 17.0868L50.9204 17.7323ZM53.852 19.376L50.2771 15.8011L47.0603 19.0179L50.6352 22.5928L53.852 19.376ZM58.0081 16.0711C55.5791 16.7863 53.2691 17.7781 51.1148 19.0096L53.3724 22.9592C55.224 21.9008 57.2079 21.0491 59.2932 20.4351L58.0081 16.0711ZM62.1936 5.83624L56.6074 17.2534L60.6938 19.2528L66.28 7.83564L62.1936 5.83624Z" fill="#424242" mask="url(#path-5-outside-2_122_215)"/>
<ellipse cx="29.8315" cy="43.8368" rx="6.60659" ry="8.95741" transform="rotate(-48.4714 29.8315 43.8368)" fill="white"/>
<ellipse cx="28.8451" cy="50.6964" rx="7.55292" ry="10.846" transform="rotate(-138.471 28.8451 50.6964)" fill="white"/>
<ellipse cx="6.60659" cy="8.95741" rx="6.60659" ry="8.95741" transform="matrix(-0.662993 -0.748625 -0.748625 0.662993 114.861 42.8439)" fill="white"/>
<ellipse cx="7.55292" cy="10.846" rx="7.55292" ry="10.846" transform="matrix(0.748625 -0.662993 -0.662993 -0.748625 106.298 63.8235)" fill="white"/>
<ellipse cx="29.8315" cy="43.8368" rx="6.60659" ry="8.95741" transform="rotate(-48.4714 29.8315 43.8368)" fill="url(#paint0_linear_122_215)" fill-opacity="0.5"/>
<ellipse cx="28.8451" cy="50.6964" rx="7.55292" ry="10.846" transform="rotate(-138.471 28.8451 50.6964)" fill="url(#paint1_linear_122_215)" fill-opacity="0.5"/>
<ellipse cx="6.60659" cy="8.95741" rx="6.60659" ry="8.95741" transform="matrix(-0.662993 -0.748625 -0.748625 0.662993 114.861 42.8439)" fill="url(#paint2_linear_122_215)" fill-opacity="0.5"/>
<ellipse cx="7.55292" cy="10.846" rx="7.55292" ry="10.846" transform="matrix(0.748625 -0.662993 -0.662993 -0.748625 106.298 63.8235)" fill="url(#paint3_linear_122_215)" fill-opacity="0.5"/>
<path fill-rule="evenodd" clip-rule="evenodd" d="M70.122 6.83595C68.9243 4.38802 65.4353 4.38801 64.2376 6.83594L58.6514 18.2531C46.1593 21.9317 37.0405 33.4853 37.0405 47.1688C37.0405 63.8142 50.5343 77.308 67.1798 77.308C83.8252 77.308 97.319 63.8142 97.319 47.1688C97.319 33.4854 88.2003 21.9317 75.7082 18.2531L70.122 6.83595Z" fill="url(#paint4_linear_122_215)"/>
<g filter="url(#filter0_i_122_215)">
<g filter="url(#filter1_d_122_215)">
<rect x="74.5725" y="34.3738" width="4.83365" height="15.9226" rx="2.41683" fill="url(#paint5_linear_122_215)"/>
</g>
<g filter="url(#filter2_d_122_215)">
<rect x="54.9536" y="34.3738" width="4.83365" height="15.9226" rx="2.41683" fill="url(#paint6_linear_122_215)"/>
</g>
</g>
<g filter="url(#filter3_i_122_215)">
<path fill-rule="evenodd" clip-rule="evenodd" d="M57.0833 56.2996C57.3529 56.3115 57.6259 56.3176 57.9017 56.3176C62.9821 56.3176 67.1006 54.2584 67.1007 51.7181H67.1008C67.1008 54.2584 71.2193 56.3176 76.2998 56.3176C76.7195 56.3176 77.1328 56.3035 77.5376 56.2763C77.234 61.6615 72.7709 65.9348 67.3098 65.9348C61.8565 65.9348 57.3984 61.6738 57.0833 56.2996Z" fill="#EF71EA"/>
</g>
<g filter="url(#filter4_d_122_215)">
<ellipse cx="51.0731" cy="51.6389" rx="5.11798" ry="2.70116" transform="rotate(27.416 51.0731 51.6389)" fill="#FF96FB"/>
</g>
<g filter="url(#filter5_d_122_215)">
<ellipse cx="82.6301" cy="51.7828" rx="5.11798" ry="2.70116" transform="rotate(-30 82.6301 51.7828)" fill="#FF96FB"/>
</g>
<path fill-rule="evenodd" clip-rule="evenodd" d="M45.4079 14.148L41.5879 17.968L55.2595 31.6396L55.2621 31.637C55.2937 31.6721 55.3264 31.7065 55.3601 31.7402C56.415 32.7951 58.1252 32.7951 59.1801 31.7402C60.235 30.6853 60.235 28.9751 59.1801 27.9202C59.1464 27.8865 59.112 27.8538 59.0769 27.8222L59.0795 27.8196L45.4079 14.148Z" fill="url(#paint7_linear_122_215)"/>
<path fill-rule="evenodd" clip-rule="evenodd" d="M92.653 18.5728L88.833 14.7528L75.1614 28.4244L75.164 28.427C75.129 28.4586 75.0946 28.4913 75.0608 28.525C74.006 29.5799 74.006 31.2901 75.0608 32.345C76.1157 33.3999 77.826 33.3999 78.8809 32.345C78.9146 32.3113 78.9472 32.2769 78.9788 32.2419L78.9814 32.2445L92.653 18.5728Z" fill="url(#paint8_linear_122_215)"/>
<path fill-rule="evenodd" clip-rule="evenodd" d="M45.4079 14.148L41.5879 17.968L55.2595 31.6396L55.2621 31.637C55.2937 31.6721 55.3264 31.7065 55.3601 31.7402C56.415 32.7951 58.1252 32.7951 59.1801 31.7402C60.235 30.6853 60.235 28.9751 59.1801 27.9202C59.1464 27.8865 59.112 27.8538 59.0769 27.8222L59.0795 27.8196L45.4079 14.148Z" fill="url(#paint9_linear_122_215)"/>
<path fill-rule="evenodd" clip-rule="evenodd" d="M92.653 18.5728L88.833 14.7528L75.1614 28.4244L75.164 28.427C75.129 28.4586 75.0946 28.4913 75.0608 28.525C74.006 29.5799 74.006 31.2901 75.0608 32.345C76.1157 33.3999 77.826 33.3999 78.8809 32.345C78.9146 32.3113 78.9472 32.2769 78.9788 32.2419L78.9814 32.2445L92.653 18.5728Z" fill="url(#paint10_linear_122_215)"/>
<circle cx="44.1655" cy="16.7617" r="4.54932" transform="rotate(-7.94497 44.1655 16.7617)" fill="#8F37FF"/>
<circle cx="90.0394" cy="17.3304" r="4.54932" transform="rotate(82.055 90.0394 17.3304)" fill="#8F37FF"/>
<path fill-rule="evenodd" clip-rule="evenodd" d="M75.5327 61.7872C73.6662 64.3037 70.6732 65.9347 67.2994 65.9347C63.8448 65.9347 60.7897 64.2248 58.9341 61.6052C60.389 59.6269 63.5296 58.2578 67.1695 58.2578C70.9199 58.2578 74.1403 59.7114 75.5327 61.7872Z" fill="#FEB3FB"/>
<ellipse cx="55.0957" cy="39.7762" rx="0.995164" ry="2.27466" fill="white"/>
<ellipse cx="74.7146" cy="39.7762" rx="0.995164" ry="2.27466" fill="white"/>
<defs>
<filter id="filter0_i_122_215" x="54.9536" y="34.3738" width="24.4526" height="18.1973" filterUnits="userSpaceOnUse" color-interpolation-filters="sRGB">
<feFlood flood-opacity="0" result="BackgroundImageFix"/>
<feBlend mode="normal" in="SourceGraphic" in2="BackgroundImageFix" result="shape"/>
<feColorMatrix in="SourceAlpha" type="matrix" values="0 0 0 0 0 0 0 0 0 0 0 0 0 0 0 0 0 0 127 0" result="hardAlpha"/>
<feOffset dy="2.27466"/>
<feGaussianBlur stdDeviation="1.13733"/>
<feComposite in2="hardAlpha" operator="arithmetic" k2="-1" k3="1"/>
<feColorMatrix type="matrix" values="0 0 0 0 0 0 0 0 0 0 0 0 0 0 0 0 0 0 0.25 0"/>
<feBlend mode="normal" in2="shape" result="effect1_innerShadow_122_215"/>
</filter>
<filter id="filter1_d_122_215" x="73.4352" y="34.3738" width="7.1084" height="18.1973" filterUnits="userSpaceOnUse" color-interpolation-filters="sRGB">
<feFlood flood-opacity="0" result="BackgroundImageFix"/>
<feColorMatrix in="SourceAlpha" type="matrix" values="0 0 0 0 0 0 0 0 0 0 0 0 0 0 0 0 0 0 127 0" result="hardAlpha"/>
<feOffset dy="1.13733"/>
<feGaussianBlur stdDeviation="0.568665"/>
<feComposite in2="hardAlpha" operator="out"/>
<feColorMatrix type="matrix" values="0 0 0 0 0 0 0 0 0 0 0 0 0 0 0 0 0 0 0.25 0"/>
<feBlend mode="normal" in2="BackgroundImageFix" result="effect1_dropShadow_122_215"/>
<feBlend mode="normal" in="SourceGraphic" in2="effect1_dropShadow_122_215" result="shape"/>
</filter>
<filter id="filter2_d_122_215" x="53.8163" y="34.3738" width="7.1084" height="18.1973" filterUnits="userSpaceOnUse" color-interpolation-filters="sRGB">
<feFlood flood-opacity="0" result="BackgroundImageFix"/>
<feColorMatrix in="SourceAlpha" type="matrix" values="0 0 0 0 0 0 0 0 0 0 0 0 0 0 0 0 0 0 127 0" result="hardAlpha"/>
<feOffset dy="1.13733"/>
<feGaussianBlur stdDeviation="0.568665"/>
<feComposite in2="hardAlpha" operator="out"/>
<feColorMatrix type="matrix" values="0 0 0 0 0 0 0 0 0 0 0 0 0 0 0 0 0 0 0.25 0"/>
<feBlend mode="normal" in2="BackgroundImageFix" result="effect1_dropShadow_122_215"/>
<feBlend mode="normal" in="SourceGraphic" in2="effect1_dropShadow_122_215" result="shape"/>
</filter>
<filter id="filter3_i_122_215" x="57.0833" y="51.7181" width="20.4543" height="15.354" filterUnits="userSpaceOnUse" color-interpolation-filters="sRGB">
<feFlood flood-opacity="0" result="BackgroundImageFix"/>
<feBlend mode="normal" in="SourceGraphic" in2="BackgroundImageFix" result="shape"/>
<feColorMatrix in="SourceAlpha" type="matrix" values="0 0 0 0 0 0 0 0 0 0 0 0 0 0 0 0 0 0 127 0" result="hardAlpha"/>
<feOffset dy="1.13733"/>
<feGaussianBlur stdDeviation="0.568665"/>
<feComposite in2="hardAlpha" operator="arithmetic" k2="-1" k3="1"/>
<feColorMatrix type="matrix" values="0 0 0 0 0.8375 0 0 0 0 0.0907292 0 0 0 0 0.493985 0 0 0 0.25 0"/>
<feBlend mode="normal" in2="shape" result="effect1_innerShadow_122_215"/>
</filter>
<filter id="filter4_d_122_215" x="45.2242" y="48.2769" width="11.6978" height="8.99854" filterUnits="userSpaceOnUse" color-interpolation-filters="sRGB">
<feFlood flood-opacity="0" result="BackgroundImageFix"/>
<feColorMatrix in="SourceAlpha" type="matrix" values="0 0 0 0 0 0 0 0 0 0 0 0 0 0 0 0 0 0 127 0" result="hardAlpha"/>
<feOffset dy="1.13733"/>
<feGaussianBlur stdDeviation="0.568665"/>
<feComposite in2="hardAlpha" operator="out"/>
<feColorMatrix type="matrix" values="0 0 0 0 0.561333 0 0 0 0 0.216667 0 0 0 0 1 0 0 0 0.5 0"/>
<feBlend mode="normal" in2="BackgroundImageFix" result="effect1_dropShadow_122_215"/>
<feBlend mode="normal" in="SourceGraphic" in2="effect1_dropShadow_122_215" result="shape"/>
</filter>
<filter id="filter5_d_122_215" x="76.858" y="48.3157" width="11.5442" height="9.20886" filterUnits="userSpaceOnUse" color-interpolation-filters="sRGB">
<feFlood flood-opacity="0" result="BackgroundImageFix"/>
<feColorMatrix in="SourceAlpha" type="matrix" values="0 0 0 0 0 0 0 0 0 0 0 0 0 0 0 0 0 0 127 0" result="hardAlpha"/>
<feOffset dy="1.13733"/>
<feGaussianBlur stdDeviation="0.568665"/>
<feComposite in2="hardAlpha" operator="out"/>
<feColorMatrix type="matrix" values="0 0 0 0 0.561333 0 0 0 0 0.216667 0 0 0 0 1 0 0 0 0.5 0"/>
<feBlend mode="normal" in2="BackgroundImageFix" result="effect1_dropShadow_122_215"/>
<feBlend mode="normal" in="SourceGraphic" in2="effect1_dropShadow_122_215" result="shape"/>
</filter>
<linearGradient id="paint0_linear_122_215" x1="29.8315" y1="34.8794" x2="29.8315" y2="52.7942" gradientUnits="userSpaceOnUse">
<stop stop-color="#8F37FF"/>
<stop offset="1" stop-color="white"/>
</linearGradient>
<linearGradient id="paint1_linear_122_215" x1="28.8451" y1="39.8503" x2="28.8451" y2="61.5424" gradientUnits="userSpaceOnUse">
<stop stop-color="#8F37FF"/>
<stop offset="1" stop-color="white"/>
</linearGradient>
<linearGradient id="paint2_linear_122_215" x1="6.60659" y1="0" x2="6.60659" y2="17.9148" gradientUnits="userSpaceOnUse">
<stop stop-color="#8F37FF"/>
<stop offset="1" stop-color="white"/>
</linearGradient>
<linearGradient id="paint3_linear_122_215" x1="7.55292" y1="0" x2="7.55292" y2="21.6921" gradientUnits="userSpaceOnUse">
<stop stop-color="#8F37FF"/>
<stop offset="1" stop-color="white"/>
</linearGradient>
<linearGradient id="paint4_linear_122_215" x1="67.1798" y1="5" x2="67.1798" y2="84.132" gradientUnits="userSpaceOnUse">
<stop offset="0.322917" stop-color="#F7FFE1"/>
<stop offset="1" stop-color="#8BFFA5"/>
</linearGradient>
<linearGradient id="paint5_linear_122_215" x1="76.9893" y1="34.3738" x2="76.9893" y2="50.2964" gradientUnits="userSpaceOnUse">
<stop offset="0.489583" stop-color="#A97575"/>
<stop offset="1" stop-color="#FEB3FB"/>
</linearGradient>
<linearGradient id="paint6_linear_122_215" x1="57.3704" y1="34.3738" x2="57.3704" y2="50.2965" gradientUnits="userSpaceOnUse">
<stop offset="0.489583" stop-color="#A97575"/>
<stop offset="1" stop-color="#FEB3FB"/>
</linearGradient>
<linearGradient id="paint7_linear_122_215" x1="43.4979" y1="16.058" x2="60.6601" y2="33.2202" gradientUnits="userSpaceOnUse">
<stop offset="0.322917" stop-color="#F7FFE1"/>
<stop offset="1" stop-color="#8BFFA5"/>
</linearGradient>
<linearGradient id="paint8_linear_122_215" x1="90.743" y1="16.6628" x2="73.5809" y2="33.825" gradientUnits="userSpaceOnUse">
<stop offset="0.322917" stop-color="#F7FFE1"/>
<stop offset="1" stop-color="#8BFFA5"/>
</linearGradient>
<linearGradient id="paint9_linear_122_215" x1="43.4979" y1="16.058" x2="59.1801" y2="31.7402" gradientUnits="userSpaceOnUse">
<stop offset="0.161458" stop-color="#8F37FF"/>
<stop offset="0.963542" stop-color="#CA96FF"/>
</linearGradient>
<linearGradient id="paint10_linear_122_215" x1="90.743" y1="16.6628" x2="75.0608" y2="32.345" gradientUnits="userSpaceOnUse">
<stop offset="0.161458" stop-color="#8F37FF"/>
<stop offset="0.963542" stop-color="#CA96FF"/>
</linearGradient>
</defs>
</svg>
